<mxfile host="app.diagrams.net" modified="2023-08-16T20:43:42.103Z" agent="Mozilla/5.0 (Windows NT 10.0; Win64; x64) AppleWebKit/537.36 (KHTML, like Gecko) Chrome/115.0.0.0 Safari/537.36" etag="q47PO0IoxpGtA-7UlbdE" version="21.1.1" type="device" pages="2">
  <diagram name="Infrastructure HLA" id="PkbeFsFQLOZ5x-pmf3iw">
    <mxGraphModel dx="1449" dy="1294" grid="1" gridSize="10" guides="1" tooltips="1" connect="1" arrows="1" fold="1" page="1" pageScale="1" pageWidth="827" pageHeight="1169" math="0" shadow="0">
      <root>
        <mxCell id="0" />
        <mxCell id="1" parent="0" />
        <mxCell id="cB-VQLEL9NJTstsM0TsG-2" value="&lt;h1&gt;&lt;span style=&quot;background-color: initial;&quot;&gt;Cloud Sales System - Infrastructure HLA&lt;/span&gt;&lt;/h1&gt;&lt;h1&gt;&lt;span style=&quot;background-color: initial; font-size: 12px; font-weight: normal;&quot;&gt;This HLA diagram describes the infrastructure setup for a &lt;/span&gt;&lt;span style=&quot;background-color: initial; font-size: 12px;&quot;&gt;multi-region environment&lt;/span&gt;&lt;span style=&quot;background-color: initial; font-size: 12px;&quot;&gt;&lt;span style=&quot;font-weight: normal;&quot;&gt;.&lt;/span&gt;&lt;br&gt;Follow the Sun pattern&lt;/span&gt;&lt;span style=&quot;background-color: initial; font-size: 12px; font-weight: normal;&quot;&gt; should be used for defining the primary region.&lt;/span&gt;&lt;/h1&gt;&lt;div&gt;Four key services should be used to set up the infrastructure.&lt;/div&gt;&lt;div&gt;&lt;span style=&quot;background-color: initial; font-size: 12px; font-weight: normal;&quot;&gt;- AWS Route 53 - Defined routing rules for &lt;/span&gt;&lt;span style=&quot;background-color: initial; font-size: 12px;&quot;&gt;&lt;b&gt;&#39;Follow the Sun pattern&#39;&lt;/b&gt;&lt;/span&gt;&lt;/div&gt;&lt;div&gt;&lt;span style=&quot;background-color: initial; font-size: 12px; font-weight: normal;&quot;&gt;- AWS API Gateway - Local routing inside a region&lt;/span&gt;&lt;/div&gt;&lt;div&gt;- AWS Aurora Global Databases - Multi-Region support&lt;span style=&quot;background-color: initial; font-size: 12px; font-weight: normal;&quot;&gt;&lt;br&gt;&lt;/span&gt;&lt;/div&gt;&lt;div&gt;&lt;span style=&quot;background-color: initial; font-size: 12px; font-weight: normal;&quot;&gt;- Kubernetes - Standard orchestration and auto-scaling&lt;/span&gt;&lt;/div&gt;&lt;div&gt;&lt;span style=&quot;background-color: initial; font-size: 12px; font-weight: normal;&quot;&gt;&lt;br&gt;&lt;/span&gt;&lt;/div&gt;" style="text;html=1;strokeColor=none;fillColor=none;spacing=5;spacingTop=-20;whiteSpace=wrap;overflow=hidden;rounded=0;" vertex="1" parent="1">
          <mxGeometry x="19" y="10" width="491" height="210" as="geometry" />
        </mxCell>
        <mxCell id="cB-VQLEL9NJTstsM0TsG-13" value="" style="group" vertex="1" connectable="0" parent="1">
          <mxGeometry x="70" y="300" width="223.68" height="180" as="geometry" />
        </mxCell>
        <mxCell id="cB-VQLEL9NJTstsM0TsG-1" value="Region 1 Customer" style="shape=umlActor;verticalLabelPosition=bottom;verticalAlign=top;html=1;outlineConnect=0;fillColor=#dae8fc;strokeColor=#6c8ebf;" vertex="1" parent="cB-VQLEL9NJTstsM0TsG-13">
          <mxGeometry width="30" height="60" as="geometry" />
        </mxCell>
        <mxCell id="cB-VQLEL9NJTstsM0TsG-4" value="Region 2 Customer" style="shape=umlActor;verticalLabelPosition=bottom;verticalAlign=top;html=1;outlineConnect=0;fillColor=#d5e8d4;strokeColor=#82b366;" vertex="1" parent="cB-VQLEL9NJTstsM0TsG-13">
          <mxGeometry y="120" width="30" height="60" as="geometry" />
        </mxCell>
        <mxCell id="cB-VQLEL9NJTstsM0TsG-8" value="" style="group" vertex="1" connectable="0" parent="cB-VQLEL9NJTstsM0TsG-13">
          <mxGeometry x="100" y="60" width="123.68000000000002" height="60" as="geometry" />
        </mxCell>
        <mxCell id="cB-VQLEL9NJTstsM0TsG-7" value="AWS &lt;br&gt;Route 53" style="rounded=0;whiteSpace=wrap;html=1;" vertex="1" parent="cB-VQLEL9NJTstsM0TsG-8">
          <mxGeometry width="120" height="60" as="geometry" />
        </mxCell>
        <mxCell id="cB-VQLEL9NJTstsM0TsG-6" value="" style="shape=image;verticalLabelPosition=bottom;labelBackgroundColor=default;verticalAlign=top;aspect=fixed;imageAspect=0;image=https://d2908q01vomqb2.cloudfront.net/da4b9237bacccdf19c0760cab7aec4a8359010b0/2020/08/12/Screen-Shot-2020-08-12-at-9.51.17-AM.png;" vertex="1" parent="cB-VQLEL9NJTstsM0TsG-8">
          <mxGeometry x="89.23000000000002" y="28.75" width="30.77" height="31.25" as="geometry" />
        </mxCell>
        <mxCell id="cB-VQLEL9NJTstsM0TsG-9" value="" style="endArrow=classic;html=1;rounded=0;entryX=0.584;entryY=-0.013;entryDx=0;entryDy=0;entryPerimeter=0;fillColor=#dae8fc;strokeColor=#6c8ebf;" edge="1" parent="cB-VQLEL9NJTstsM0TsG-13" target="cB-VQLEL9NJTstsM0TsG-7">
          <mxGeometry width="50" height="50" relative="1" as="geometry">
            <mxPoint x="30" y="30" as="sourcePoint" />
            <mxPoint x="80" y="-20" as="targetPoint" />
            <Array as="points">
              <mxPoint x="170" y="30" />
            </Array>
          </mxGeometry>
        </mxCell>
        <mxCell id="cB-VQLEL9NJTstsM0TsG-10" value="" style="endArrow=classic;html=1;rounded=0;entryX=0.583;entryY=1.012;entryDx=0;entryDy=0;entryPerimeter=0;fillColor=#d5e8d4;strokeColor=#82b366;" edge="1" parent="cB-VQLEL9NJTstsM0TsG-13" target="cB-VQLEL9NJTstsM0TsG-7">
          <mxGeometry width="50" height="50" relative="1" as="geometry">
            <mxPoint x="30" y="152" as="sourcePoint" />
            <mxPoint x="170" y="180" as="targetPoint" />
            <Array as="points">
              <mxPoint x="170" y="152" />
            </Array>
          </mxGeometry>
        </mxCell>
        <mxCell id="cB-VQLEL9NJTstsM0TsG-21" value="" style="group" vertex="1" connectable="0" parent="1">
          <mxGeometry x="384" y="220" width="516" height="500" as="geometry" />
        </mxCell>
        <mxCell id="cB-VQLEL9NJTstsM0TsG-20" value="" style="group" vertex="1" connectable="0" parent="cB-VQLEL9NJTstsM0TsG-21">
          <mxGeometry x="31" width="486" height="500" as="geometry" />
        </mxCell>
        <mxCell id="cB-VQLEL9NJTstsM0TsG-12" value="" style="rounded=0;whiteSpace=wrap;html=1;" vertex="1" parent="cB-VQLEL9NJTstsM0TsG-20">
          <mxGeometry width="390" height="170" as="geometry" />
        </mxCell>
        <mxCell id="cB-VQLEL9NJTstsM0TsG-14" value="Region 1" style="text;html=1;strokeColor=none;fillColor=none;align=center;verticalAlign=middle;whiteSpace=wrap;rounded=0;" vertex="1" parent="cB-VQLEL9NJTstsM0TsG-20">
          <mxGeometry width="60" height="30" as="geometry" />
        </mxCell>
        <mxCell id="cB-VQLEL9NJTstsM0TsG-26" value="" style="group" vertex="1" connectable="0" parent="cB-VQLEL9NJTstsM0TsG-20">
          <mxGeometry x="61" y="30" width="426" height="470" as="geometry" />
        </mxCell>
        <mxCell id="cB-VQLEL9NJTstsM0TsG-22" value="Service 1" style="ellipse;whiteSpace=wrap;html=1;" vertex="1" parent="cB-VQLEL9NJTstsM0TsG-26">
          <mxGeometry width="70" height="30" as="geometry" />
        </mxCell>
        <mxCell id="cB-VQLEL9NJTstsM0TsG-23" value="Service 2" style="ellipse;whiteSpace=wrap;html=1;" vertex="1" parent="cB-VQLEL9NJTstsM0TsG-26">
          <mxGeometry y="40" width="70" height="30" as="geometry" />
        </mxCell>
        <mxCell id="cB-VQLEL9NJTstsM0TsG-24" value="Service N" style="ellipse;whiteSpace=wrap;html=1;" vertex="1" parent="cB-VQLEL9NJTstsM0TsG-26">
          <mxGeometry y="90" width="70" height="30" as="geometry" />
        </mxCell>
        <mxCell id="cB-VQLEL9NJTstsM0TsG-25" value="&lt;p style=&quot;line-height: 30%;&quot;&gt;.&lt;br&gt;.&lt;br&gt;.&lt;br&gt;&lt;/p&gt;" style="text;html=1;strokeColor=none;fillColor=none;align=center;verticalAlign=middle;whiteSpace=wrap;rounded=0;" vertex="1" parent="cB-VQLEL9NJTstsM0TsG-26">
          <mxGeometry x="27" y="66" width="16" height="20" as="geometry" />
        </mxCell>
        <mxCell id="cB-VQLEL9NJTstsM0TsG-39" value="" style="shape=image;verticalLabelPosition=bottom;labelBackgroundColor=default;verticalAlign=top;aspect=fixed;imageAspect=0;image=https://www.ovhcloud.com/sites/default/files/styles/text_media_horizontal/public/2021-04/K8S-logo.png;" vertex="1" parent="cB-VQLEL9NJTstsM0TsG-26">
          <mxGeometry x="-13" y="2" width="26" height="26" as="geometry" />
        </mxCell>
        <mxCell id="cB-VQLEL9NJTstsM0TsG-43" value="" style="shape=cylinder3;whiteSpace=wrap;html=1;boundedLbl=1;backgroundOutline=1;size=4.714285714285722;" vertex="1" parent="cB-VQLEL9NJTstsM0TsG-26">
          <mxGeometry x="234" y="25" width="24" height="30" as="geometry" />
        </mxCell>
        <mxCell id="cB-VQLEL9NJTstsM0TsG-45" value="..." style="text;html=1;strokeColor=none;fillColor=none;align=center;verticalAlign=middle;whiteSpace=wrap;rounded=0;" vertex="1" parent="cB-VQLEL9NJTstsM0TsG-26">
          <mxGeometry x="252" y="25" width="30" height="20" as="geometry" />
        </mxCell>
        <mxCell id="cB-VQLEL9NJTstsM0TsG-46" value="" style="shape=image;verticalLabelPosition=bottom;labelBackgroundColor=default;verticalAlign=top;aspect=fixed;imageAspect=0;image=https://seeklogo.com/images/A/aws-aurora-logo-DDA150F538-seeklogo.com.png;" vertex="1" parent="cB-VQLEL9NJTstsM0TsG-26">
          <mxGeometry x="212" y="65" width="30" height="30" as="geometry" />
        </mxCell>
        <mxCell id="cB-VQLEL9NJTstsM0TsG-87" value="Scenario 1 - Region 1 is primary" style="text;html=1;strokeColor=none;fillColor=none;align=center;verticalAlign=middle;whiteSpace=wrap;rounded=0;fontSize=15;fontStyle=1" vertex="1" parent="cB-VQLEL9NJTstsM0TsG-26">
          <mxGeometry x="-212" y="360" width="300" height="30" as="geometry" />
        </mxCell>
        <mxCell id="cB-VQLEL9NJTstsM0TsG-38" value="" style="group" vertex="1" connectable="0" parent="cB-VQLEL9NJTstsM0TsG-20">
          <mxGeometry x="150" y="30" width="90" height="120" as="geometry" />
        </mxCell>
        <mxCell id="cB-VQLEL9NJTstsM0TsG-37" value="" style="group" vertex="1" connectable="0" parent="cB-VQLEL9NJTstsM0TsG-38">
          <mxGeometry x="20" width="70" height="120" as="geometry" />
        </mxCell>
        <mxCell id="cB-VQLEL9NJTstsM0TsG-31" value="Lambda 1" style="ellipse;whiteSpace=wrap;html=1;" vertex="1" parent="cB-VQLEL9NJTstsM0TsG-37">
          <mxGeometry width="70" height="30" as="geometry" />
        </mxCell>
        <mxCell id="cB-VQLEL9NJTstsM0TsG-32" value="Lambda 2" style="ellipse;whiteSpace=wrap;html=1;" vertex="1" parent="cB-VQLEL9NJTstsM0TsG-37">
          <mxGeometry y="40" width="70" height="30" as="geometry" />
        </mxCell>
        <mxCell id="cB-VQLEL9NJTstsM0TsG-33" value="Lambda N" style="ellipse;whiteSpace=wrap;html=1;" vertex="1" parent="cB-VQLEL9NJTstsM0TsG-37">
          <mxGeometry y="90" width="70" height="30" as="geometry" />
        </mxCell>
        <mxCell id="cB-VQLEL9NJTstsM0TsG-34" value="&lt;p style=&quot;line-height: 30%;&quot;&gt;.&lt;br&gt;.&lt;br&gt;.&lt;br&gt;&lt;/p&gt;" style="text;html=1;strokeColor=none;fillColor=none;align=center;verticalAlign=middle;whiteSpace=wrap;rounded=0;" vertex="1" parent="cB-VQLEL9NJTstsM0TsG-37">
          <mxGeometry x="27" y="66" width="16" height="20" as="geometry" />
        </mxCell>
        <mxCell id="cB-VQLEL9NJTstsM0TsG-27" value="" style="shape=image;verticalLabelPosition=bottom;labelBackgroundColor=default;verticalAlign=top;aspect=fixed;imageAspect=0;image=https://upload.wikimedia.org/wikipedia/commons/thumb/5/5c/Amazon_Lambda_architecture_logo.svg/1200px-Amazon_Lambda_architecture_logo.svg.png;" vertex="1" parent="cB-VQLEL9NJTstsM0TsG-38">
          <mxGeometry y="3" width="24" height="24" as="geometry" />
        </mxCell>
        <mxCell id="cB-VQLEL9NJTstsM0TsG-35" value="" style="shape=image;verticalLabelPosition=bottom;labelBackgroundColor=default;verticalAlign=top;aspect=fixed;imageAspect=0;image=https://upload.wikimedia.org/wikipedia/commons/thumb/5/5c/Amazon_Lambda_architecture_logo.svg/1200px-Amazon_Lambda_architecture_logo.svg.png;" vertex="1" parent="cB-VQLEL9NJTstsM0TsG-38">
          <mxGeometry y="43" width="24" height="24" as="geometry" />
        </mxCell>
        <mxCell id="cB-VQLEL9NJTstsM0TsG-36" value="" style="shape=image;verticalLabelPosition=bottom;labelBackgroundColor=default;verticalAlign=top;aspect=fixed;imageAspect=0;image=https://upload.wikimedia.org/wikipedia/commons/thumb/5/5c/Amazon_Lambda_architecture_logo.svg/1200px-Amazon_Lambda_architecture_logo.svg.png;" vertex="1" parent="cB-VQLEL9NJTstsM0TsG-38">
          <mxGeometry y="94" width="24" height="24" as="geometry" />
        </mxCell>
        <mxCell id="cB-VQLEL9NJTstsM0TsG-40" value="" style="shape=image;verticalLabelPosition=bottom;labelBackgroundColor=default;verticalAlign=top;aspect=fixed;imageAspect=0;image=https://www.ovhcloud.com/sites/default/files/styles/text_media_horizontal/public/2021-04/K8S-logo.png;" vertex="1" parent="cB-VQLEL9NJTstsM0TsG-20">
          <mxGeometry x="46" y="72" width="26" height="26" as="geometry" />
        </mxCell>
        <mxCell id="cB-VQLEL9NJTstsM0TsG-41" value="" style="shape=image;verticalLabelPosition=bottom;labelBackgroundColor=default;verticalAlign=top;aspect=fixed;imageAspect=0;image=https://www.ovhcloud.com/sites/default/files/styles/text_media_horizontal/public/2021-04/K8S-logo.png;" vertex="1" parent="cB-VQLEL9NJTstsM0TsG-20">
          <mxGeometry x="46" y="124" width="26" height="26" as="geometry" />
        </mxCell>
        <mxCell id="cB-VQLEL9NJTstsM0TsG-42" value="" style="shape=cylinder3;whiteSpace=wrap;html=1;boundedLbl=1;backgroundOutline=1;size=4.714285714285722;" vertex="1" parent="cB-VQLEL9NJTstsM0TsG-20">
          <mxGeometry x="264" y="55" width="24" height="30" as="geometry" />
        </mxCell>
        <mxCell id="cB-VQLEL9NJTstsM0TsG-44" value="" style="shape=cylinder3;whiteSpace=wrap;html=1;boundedLbl=1;backgroundOutline=1;size=4.714285714285722;" vertex="1" parent="cB-VQLEL9NJTstsM0TsG-20">
          <mxGeometry x="338" y="55" width="24" height="30" as="geometry" />
        </mxCell>
        <mxCell id="cB-VQLEL9NJTstsM0TsG-53" value="" style="rounded=0;whiteSpace=wrap;html=1;" vertex="1" parent="cB-VQLEL9NJTstsM0TsG-20">
          <mxGeometry y="200" width="390" height="170" as="geometry" />
        </mxCell>
        <mxCell id="cB-VQLEL9NJTstsM0TsG-54" value="Region 2" style="text;html=1;strokeColor=none;fillColor=none;align=center;verticalAlign=middle;whiteSpace=wrap;rounded=0;" vertex="1" parent="cB-VQLEL9NJTstsM0TsG-20">
          <mxGeometry y="200" width="60" height="30" as="geometry" />
        </mxCell>
        <mxCell id="cB-VQLEL9NJTstsM0TsG-55" value="Service 1" style="ellipse;whiteSpace=wrap;html=1;" vertex="1" parent="cB-VQLEL9NJTstsM0TsG-20">
          <mxGeometry x="61" y="230" width="70" height="30" as="geometry" />
        </mxCell>
        <mxCell id="cB-VQLEL9NJTstsM0TsG-56" value="Service 2" style="ellipse;whiteSpace=wrap;html=1;" vertex="1" parent="cB-VQLEL9NJTstsM0TsG-20">
          <mxGeometry x="61" y="270" width="70" height="30" as="geometry" />
        </mxCell>
        <mxCell id="cB-VQLEL9NJTstsM0TsG-57" value="Service N" style="ellipse;whiteSpace=wrap;html=1;" vertex="1" parent="cB-VQLEL9NJTstsM0TsG-20">
          <mxGeometry x="61" y="320" width="70" height="30" as="geometry" />
        </mxCell>
        <mxCell id="cB-VQLEL9NJTstsM0TsG-58" value="&lt;p style=&quot;line-height: 30%;&quot;&gt;.&lt;br&gt;.&lt;br&gt;.&lt;br&gt;&lt;/p&gt;" style="text;html=1;strokeColor=none;fillColor=none;align=center;verticalAlign=middle;whiteSpace=wrap;rounded=0;" vertex="1" parent="cB-VQLEL9NJTstsM0TsG-20">
          <mxGeometry x="88" y="296" width="16" height="20" as="geometry" />
        </mxCell>
        <mxCell id="cB-VQLEL9NJTstsM0TsG-59" value="" style="shape=image;verticalLabelPosition=bottom;labelBackgroundColor=default;verticalAlign=top;aspect=fixed;imageAspect=0;image=https://www.ovhcloud.com/sites/default/files/styles/text_media_horizontal/public/2021-04/K8S-logo.png;" vertex="1" parent="cB-VQLEL9NJTstsM0TsG-20">
          <mxGeometry x="48" y="232" width="26" height="26" as="geometry" />
        </mxCell>
        <mxCell id="cB-VQLEL9NJTstsM0TsG-60" value="" style="shape=cylinder3;whiteSpace=wrap;html=1;boundedLbl=1;backgroundOutline=1;size=4.714285714285722;" vertex="1" parent="cB-VQLEL9NJTstsM0TsG-20">
          <mxGeometry x="295" y="255" width="24" height="30" as="geometry" />
        </mxCell>
        <mxCell id="cB-VQLEL9NJTstsM0TsG-61" value="..." style="text;html=1;strokeColor=none;fillColor=none;align=center;verticalAlign=middle;whiteSpace=wrap;rounded=0;" vertex="1" parent="cB-VQLEL9NJTstsM0TsG-20">
          <mxGeometry x="313" y="255" width="30" height="20" as="geometry" />
        </mxCell>
        <mxCell id="cB-VQLEL9NJTstsM0TsG-62" value="" style="shape=image;verticalLabelPosition=bottom;labelBackgroundColor=default;verticalAlign=top;aspect=fixed;imageAspect=0;image=https://seeklogo.com/images/A/aws-aurora-logo-DDA150F538-seeklogo.com.png;" vertex="1" parent="cB-VQLEL9NJTstsM0TsG-20">
          <mxGeometry x="273" y="295" width="30" height="30" as="geometry" />
        </mxCell>
        <mxCell id="cB-VQLEL9NJTstsM0TsG-63" value="" style="group" vertex="1" connectable="0" parent="cB-VQLEL9NJTstsM0TsG-20">
          <mxGeometry x="150" y="230" width="90" height="120" as="geometry" />
        </mxCell>
        <mxCell id="cB-VQLEL9NJTstsM0TsG-64" value="" style="group" vertex="1" connectable="0" parent="cB-VQLEL9NJTstsM0TsG-63">
          <mxGeometry x="20" width="70" height="120" as="geometry" />
        </mxCell>
        <mxCell id="cB-VQLEL9NJTstsM0TsG-65" value="Lambda 1" style="ellipse;whiteSpace=wrap;html=1;" vertex="1" parent="cB-VQLEL9NJTstsM0TsG-64">
          <mxGeometry width="70" height="30" as="geometry" />
        </mxCell>
        <mxCell id="cB-VQLEL9NJTstsM0TsG-66" value="Lambda 2" style="ellipse;whiteSpace=wrap;html=1;" vertex="1" parent="cB-VQLEL9NJTstsM0TsG-64">
          <mxGeometry y="40" width="70" height="30" as="geometry" />
        </mxCell>
        <mxCell id="cB-VQLEL9NJTstsM0TsG-67" value="Lambda N" style="ellipse;whiteSpace=wrap;html=1;" vertex="1" parent="cB-VQLEL9NJTstsM0TsG-64">
          <mxGeometry y="90" width="70" height="30" as="geometry" />
        </mxCell>
        <mxCell id="cB-VQLEL9NJTstsM0TsG-68" value="&lt;p style=&quot;line-height: 30%;&quot;&gt;.&lt;br&gt;.&lt;br&gt;.&lt;br&gt;&lt;/p&gt;" style="text;html=1;strokeColor=none;fillColor=none;align=center;verticalAlign=middle;whiteSpace=wrap;rounded=0;" vertex="1" parent="cB-VQLEL9NJTstsM0TsG-64">
          <mxGeometry x="27" y="66" width="16" height="20" as="geometry" />
        </mxCell>
        <mxCell id="cB-VQLEL9NJTstsM0TsG-69" value="" style="shape=image;verticalLabelPosition=bottom;labelBackgroundColor=default;verticalAlign=top;aspect=fixed;imageAspect=0;image=https://upload.wikimedia.org/wikipedia/commons/thumb/5/5c/Amazon_Lambda_architecture_logo.svg/1200px-Amazon_Lambda_architecture_logo.svg.png;" vertex="1" parent="cB-VQLEL9NJTstsM0TsG-63">
          <mxGeometry y="3" width="24" height="24" as="geometry" />
        </mxCell>
        <mxCell id="cB-VQLEL9NJTstsM0TsG-70" value="" style="shape=image;verticalLabelPosition=bottom;labelBackgroundColor=default;verticalAlign=top;aspect=fixed;imageAspect=0;image=https://upload.wikimedia.org/wikipedia/commons/thumb/5/5c/Amazon_Lambda_architecture_logo.svg/1200px-Amazon_Lambda_architecture_logo.svg.png;" vertex="1" parent="cB-VQLEL9NJTstsM0TsG-63">
          <mxGeometry y="43" width="24" height="24" as="geometry" />
        </mxCell>
        <mxCell id="cB-VQLEL9NJTstsM0TsG-71" value="" style="shape=image;verticalLabelPosition=bottom;labelBackgroundColor=default;verticalAlign=top;aspect=fixed;imageAspect=0;image=https://upload.wikimedia.org/wikipedia/commons/thumb/5/5c/Amazon_Lambda_architecture_logo.svg/1200px-Amazon_Lambda_architecture_logo.svg.png;" vertex="1" parent="cB-VQLEL9NJTstsM0TsG-63">
          <mxGeometry y="94" width="24" height="24" as="geometry" />
        </mxCell>
        <mxCell id="cB-VQLEL9NJTstsM0TsG-72" value="" style="shape=image;verticalLabelPosition=bottom;labelBackgroundColor=default;verticalAlign=top;aspect=fixed;imageAspect=0;image=https://www.ovhcloud.com/sites/default/files/styles/text_media_horizontal/public/2021-04/K8S-logo.png;" vertex="1" parent="cB-VQLEL9NJTstsM0TsG-20">
          <mxGeometry x="46" y="272" width="26" height="26" as="geometry" />
        </mxCell>
        <mxCell id="cB-VQLEL9NJTstsM0TsG-73" value="" style="shape=image;verticalLabelPosition=bottom;labelBackgroundColor=default;verticalAlign=top;aspect=fixed;imageAspect=0;image=https://www.ovhcloud.com/sites/default/files/styles/text_media_horizontal/public/2021-04/K8S-logo.png;" vertex="1" parent="cB-VQLEL9NJTstsM0TsG-20">
          <mxGeometry x="46" y="324" width="26" height="26" as="geometry" />
        </mxCell>
        <mxCell id="cB-VQLEL9NJTstsM0TsG-74" value="" style="shape=cylinder3;whiteSpace=wrap;html=1;boundedLbl=1;backgroundOutline=1;size=4.714285714285722;" vertex="1" parent="cB-VQLEL9NJTstsM0TsG-20">
          <mxGeometry x="264" y="255" width="24" height="30" as="geometry" />
        </mxCell>
        <mxCell id="cB-VQLEL9NJTstsM0TsG-75" value="" style="shape=cylinder3;whiteSpace=wrap;html=1;boundedLbl=1;backgroundOutline=1;size=4.714285714285722;" vertex="1" parent="cB-VQLEL9NJTstsM0TsG-20">
          <mxGeometry x="338" y="255" width="24" height="30" as="geometry" />
        </mxCell>
        <mxCell id="cB-VQLEL9NJTstsM0TsG-76" value="" style="group" vertex="1" connectable="0" parent="cB-VQLEL9NJTstsM0TsG-20">
          <mxGeometry x="-31" y="250" width="60" height="75" as="geometry" />
        </mxCell>
        <mxCell id="cB-VQLEL9NJTstsM0TsG-77" value="AWS API&lt;br&gt;Gateway" style="ellipse;whiteSpace=wrap;html=1;aspect=fixed;" vertex="1" parent="cB-VQLEL9NJTstsM0TsG-76">
          <mxGeometry width="60" height="60" as="geometry" />
        </mxCell>
        <mxCell id="cB-VQLEL9NJTstsM0TsG-78" value="" style="shape=image;verticalLabelPosition=bottom;labelBackgroundColor=default;verticalAlign=top;aspect=fixed;imageAspect=0;image=data:image/png,iVBORw0KGgoAAAANSUhEUgAAASsAAAEsCAYAAACboZUMAAAAAXNSR0IArs4c6QAAAARnQU1BAACxjwv8YQUAAAAJcEhZcwAADsMAAA7DAcdvqGQAAFsfSURBVHhe7b0L1HVXVaa5/yCGewiXhAQQSQQsARUEuwhCFQhYCl6gAHu0UNqWAyIXFblpiVZbpZQoYJWCINU9tICq0Vy6cDSiAwKDGoUQu7mUoIBCJyhoMKAJt3ARMb3XOvM7651zrfc96+yzv3O+P9mPQ9aZa73rnfOss/fMOef7/v8/de655147LCwsLJxwTj37YX987XDqlIUePxs0EEod4NMInY0ZUlvCrwQdhFIH9NdHzR1OF3EWQgecEmeBHKw+v4kye959nUuY5vX5eV5e0NmY4UGIgJCI6qIfN7RxhYt4ECJAvE7SwcIz8v9e235z5WeDBkKpA3waobMxQ2pL+JWgg1DqgP76qLnD6SLOQuiAa8VZIAerz2+izJ53X+cSpnl9fp6XF3Q2ZngQIiAkorroxw1tXOEiHoQIEK+TdLBw1awSxKjHJCF1gE8jdDZmdnySCakD+uuj5g55wzkLoQOWhtVmaVhGSER10Y8b2rjCRTwIESBeJ+kwhqVZJYjRJpMjpA7waYTOxswOT/IIqQP666PmDnnDOQuhA5aG1WZpWEZIRHXRjxvauMJFPAgRIF4n5eCbVYIYKRMMpQ7waYTOxszEJ4mh1AH99VFzh7zhnIXQAUvDarM0LCMkorroxw1tXOEiHoQIEK8Tc6ibVYIYMZMMhFIH+DRCZ2NmwpPMQCh1QH991NwhbzhnIXTA0rDaLA3LCImoLvpxQxtXuIgHIQLE69RyaDerBDFqmayBUOoAn0bobMxs+STXQCh1QH991NwhbzhnIXTA0rDaLA3LCImoLvpxQxtXuIgHIQLE6xQdzuDSEWIUTRwQSh3g0widjZktnqQDQqkD+uuj5g55wzkLoQOWhtVmaVhGSER10Y8b2rjCRTwIESBeJ1zJ76y4dIQY+dmggVDqAJ9G6GzMdD7Jyg9CqQP666PmDnnDOQuhA5aG1WZpWEZIRHXRjxvauMJFPAgRIF6no5X1x0AuHSFGfjZoIJQ6wKcROhszHU9yRdBBKHVAf33U3CFvOGchdMDSsNosDcsIiagu+nFDG1e4iAchAsTrlFbGZlUEXDpCjPxs0EAodYBPI3Q2ZjY8yULQQSh1QH991NwhbzhnIXTA0rDaLA3LCImoLvpxQxtXuIgHIQLE62TvrIqAS0eIkZ8NGgilDvBphM7GjHiSfiXoIJQ6oL8+au6QN5yzEDpgaVhtloZlhERUF/24oY0rXMSDEAEkEfw0sAioSYIY+dmggVDqAJ9G6GzM8NPUeSGUOqC/PmrukDecsxA6YGlYbZaGZYREVBf9uKGNK1zEgxABjUTQrBJFQE0SpGI/GzQQSh3g0widjRl+mjovhFIH9NdHzR3yhnMWQgcsDavN0rCMkIjqoh83tHGFi3gQIiAkOqNWlglqkiAV+9mggVDqAJ9G6GzM8NPUeSGUOqC/PmrukDecsxA6YGlYbZaGZYREVBf9uKGNK1zEgxABkGj1zqpSlglqkiAV+9mggVDqAJ9G6GzM8NPUeSGUOqC/PmrukDecsxA6YGlYbZaGZYREVBf9uKGNK1zEgxABlqh8DKyUZYKaJEjFfjZoIJQ6wKcROhsz/DR1XgilDuivj5o75A3nLIQOWBpWm6VhGSER1UU/bmjjChfxIETAmMj/BnulLBPUJEEq9rNBA6HUAT6N0NmY4aep80IodUB/fdTcIW84ZyF0wNKw2iwNywiJqC76cUMbV7iIByEq5HdWYt9ImWAmGVKxnw0aCKUO8GmEzsYMP02dF0KpA/rro+YOecM5C6EDlobVZmlYRkhEddGPG9q4wkU8CNGK9cdAsW+kTLRM1pCK/WzQQCh1gE8jdDZm+GnqvBBKHdBfHzV3yBvOWQgdsDSsNkvDMkIiqot+3NDGFS7iQYhysypTYt8I0UVIxX42aCCUOsCnETobM/w0dV4IpQ7or4+aO+QN5yyEDlgaVpulYRkhEdVFP25o4woX8cBF9s6qTIl9I0QXIRX72aCBUOoAn0bobMzw09R5IZQ6oL8+au6QN5yzEDpgaVhtloZlhERUF/24oY0rXMSDdVR+GggCsW+E6CKkYj8bNBBKHeDTCJ2NGX6aOi+EUgf010fNHfKGcxZCBywNq83SsIyQiOqiHze0cYWLeJAjaFaJIhD7RoguQir2s0EDodQBPo3Q2Zjhp6nzQih1QH991NwhbzhnIXTA0rDaLA3LCImoLvpxQxtXuIgHsVklikDsGyG6CKnYzwYNhFIH+DRCZ2OGn6bOC6HUAf31UXOHvOGchdABS8NqszQsIySiuujHDW1c4SISNJpVogi4SYLoIqRiPxs0EEod4NMInY0Zfpo6L4RSB/TXR80d8oZzFkIHLA2rzdKwjJCI6qIfN7RxhYsaAWlWiaLmJgmii5CK/WzQQCh1gE8jdDZm+GnqvBBKHdBfHzV3yBvOWQgdsDSsNkvDMkIiqot+3NDGFS4KwRn6NSiL3CRBdBGSzM8GDYRSB/g0QmdjRhyEXwk6CKUO6K+PmjvkDecshA5YGlabpWEZIRHVRT9uaOMKF0GQ31np16AsMpMVRBchyfxs0EAodYBPI3Q2ZsRB+JWgg1DqgP76qLlD3nDOQuiApWG1WRqWERJRXfTjhjaucJEF64+B+jUoiy2TAtFFSDI/GzQQSh3g0widjRlxEH4l6CCUOqC/PmrukDecsxA6YGlYbZaGZYREVBf9uKGNK1w0BmOzKlP6NQCdjZlqD9FFSDI/GzQQSh3g0widjRlxEH4l6CCUOqC/PmrukDecsxA6YGlYbZaGZYREVBf9uKGNKzCyd1ZlSr8GoLMxU+0hughJ5meDBkKpA3waobMxIw7CrwQdhFIH9NdHzR3yhnMWQgcsDavN0rCMkIjqoh83tHHFUQQ/DSwC/RqAzsZMtYfoIiSZnw0aCKUO8GmEzsaMOAi/EnQQSh3QXx81d8gbzlkIHbA0rDZLwzJCIqqLftzQxhUpgmaVKAL9GoDOxky1h+giJJmfDRoIpQ7waYTOxow4CL8SdBBKHdBfHzV3yBvOWQgdsDSsNkvDMkIiqot+3NDGFaFZJYpAvwagszFT7SG6CEnmZ4MGQqkDfBqhszEjDsKvBB2EUgf010fNHfKGcxZCBywNq83SsIyQiOqiHze0sdmsEkWgXwPQ2Zip9hBdhCTzs0EDodQBPo3Q2ZgRB+FXgg5CqQP666PmDnnDOQuhA5aG1WZpWEZIRHXRjxvm/yXNKlF26tcAdDZmqj1EFyHJ/GzQQCh1gE8jdDZmxEH4laCDUOqA/vqouUPecM5C6IClYbVZGpYRElFd9OOG4e9gryir+jUAnY2Zag/RRUgyPxs0EEod4NMInY0ZcRB+JegglDqgvz5q7pA3nLMQOmBpWG2WhmWERFQX/Ygwv7PiJomyql8D0NmYqfYQXYQk87NBA6HUAT6N0NmYEQfhV4IOQqkD+uuj5g55wzkLoQOWhtVmaVhGSER10a8hXH8M5CaJsqpfA9DZmKn2EF2EJPOzQQOh1AE+jdDZmBEH4VeCDkKpA/rro+YOecM5C6EDlobVZmlYRkhEddEvCM/AGW6SAJ0UEr9qD9FFSDI/GzQQSh3g0widjRlxEH4l6CCUOqC/PmrukDecsxA6YGlYbZaGZYREVBf9IFy9s4IZbpIAnRQSv2oP0UVIMj8bNBBKHeDTCJ2NGXEQfiXoIJQ6oL8+au6QN5yzEDpgaVhtloZlhERUF/0sLD8NBCNukgCdFBK/ag/RRUgyPxs0EEod4NMInY0ZcRB+JegglDqgvz5q7pA3nLMQOmBpWG2WhmWERFQX/cbQ/+oCGHGTBOikkPhVe4guQpL52aCBUOoAn0bobMyIg/ArQQeh1AH99VFzh7zhnIXQAUvDarM0LCMkorqw4ptVAoy4SQJ0Ukj8qj1EFyHJ/GzQQCh1gE8jdDZmxEH4laCDUOqA/vqouUPecM5C6IClYbVZGpYRElEdrNTNKgFG3CQBOikkftUeoouQZH42aCCUOsCnETobM+Ig/ErQQSh1QH991NwhbzhnIXTA0rDaLA3LCImozlbazSoBRtwkATopJH7VHqKLkGR+NmgglDrApxE6GzPiIPxK0EEodUB/fdTcIW84ZyF0wNKw2iwNywiJqG5c0b/BDkZSB6v6NSB+1R6ii5BkfjZoIJQ6wKcROhsz4iD8StBBKHVAf33U3CFvOGchdMDSsNosDcsIiZguv7OiJgkwkjpY1a8B8av2EF2EJPOzQQOh1AE+jdDZmBEH4VeCDkKpA/rro+YOecM5C6EDlobVZmlYRkjU0q0/BlKTBBhJHazq14D4VXuILkKS+dmggVDqAJ9G6GzMiIPwK0EHodQB/fVRc4e84ZyF0AFLw2qzNCwjJIq6sVmVKWqSACOpQz9taGPwq/YQXYQk87NBA6HUAT6N0NmYEQfhV4IOQqkD+uuj5g55wzkLoQOWhtVmaVhGSISRvbMqU9QkAUZSh37a0MbgV+0hughJ5meDBkKpA3waobMxIw7CrwQdhFIH9NdHzR3yhnMWQgcsDavN0rCMkOgogp8GFgE1SYCR1KGfNrQx+FV7iC5CkvnZoIFQ6gCfRuhszIiD8CtBB6HUAf31UXOHvOGchdABS8NqszQsIyRKETSrRBFQkwQYSR36aUMbg1+1h+giJJmfDRoIpQ7waYTOxow4CL9Sohvd9IzhRjcpLxXTRfrrgzUu87qIsxA6YGlYbZaGZYREp37ywe+5djhl0ZoyUS0hpzp16KcNbQx+1R6ii5BkfjZoIJQ6wKcROhsz4iCOVu71kLOGB//ArYdbnnPDHH/qE18efu9lnxw++Iefy7F3EH4+sY01p3CNy7wu4iyEDjilL4o1c9d3t//pJsNDf/iWw1m3/aocf/qTfz+88/WfG9731muGL17zD3kucZ0/lzDN6/PzvLygszHDgxABlmjVrPKj/L9AmaAmCahY6tBPG9oY/Ko9RBchyfxs0EAodYBPI3Q2Zhq1pXdR9x6b1EXfd/a6SUX+yy9csTSshCxBLo6N6sbDo599W5vwfOnz/zD8v2PTeufvfnbdtK7z5xKmeX1+npcXdDZmeBAiYExUmlWiUpYJapKAiqUO/bShjcGv2kN0EZLMzwYNhFIH+DRCZ2PGNqUmddH33Wq46HvPzo8V6R3WC374IxbFTCKvT2xjzc4XfsJZCB2wz4b1lJedv35HxYhN6zp/LmGa1+fneXlBZ2OGByEq+N9grz48lolqCYHPllKHftrQxuBX7SG6CEnmZ4MGQqkDfBqhszGRvot68A/cZnjGb104PPh/ufXGRpXI77jAxGcSed2S0HFzh/wOxlkIHbDP77A2NarEmeNr84Dvv8Xw5N88bxzPGs68KdxGE/Pi0ok7lzDN6/PzvLygszHDgxAV8p0h9o2UCWaSgYqlDv20oY3Br9pDdBGSzM8GDYRSB/g0XHfmTW+walK/3d+kKo6xvp0v/ISzEDpgr1+6d4JN69vGcf1aTc3rSu+rb2lY8NNAsW+kTLRM1kDFUod+2tDG4FftIboISeZngwZCqQN8Gq+70dikvn1sUs9MTWocJzUpZOb6kJ0v/ISzEDrgJDasxFHTetJv3i6P+bWbmteV3lff9b1hudMW+0aILgIVSx36aUMbg1+1h+giJJmfDRoIpQ7waa4dzj73hsPDn3jufE0KmaE+xs4XfsJZCB1wUhtWIjWt9A7raa84f3jEU28lP1KetucSpnl9fp6XF3Q2ZnjgIrtjypTYN0J0EahY6tBPG9oY/Ko9RBchyfxs0EAodUBKk5rUP//J8/N3Uj1fnvczT30FoePmDnnDOQuhA05ywzring+6yfCkl95ueMRTxqZ1TrtpnbbnEqZ5fX6elxd0NmZ4sI7gzikCsW+E6CJQsdShnza0MfhVe4guQpL52aCBUOpGUpN69NNTk/q6/KsIx8P0+o7wxyB03NwhbzhnIXTA6dCwErlpvWRsWumdVqNpnbbnEqZ5fX6elxd0NmZ4kKPwn/kiEPtGiC4CFUsd+mlDG4NftYfoIiSZnw0aCFu6oyb1zN8+ziaFbFdfC38MQsfNHfKGcxZCB5wuDStxz3/Km9Zpey5hmtfn53l5QWdjhgexWSWKQOwbIboIVCx16KcNbQx+1R6ii5BkfjZoIDx6uGpS583SpNLvUW1i2/pWBB3gj0HouLlD3nDOQuiAuW/MTaTfZt8F1rRO+rnQvGGa1+fneXlBZ2OGBOQLlCLgJgmii0DFUod+2tDG4FftIboISeZng8bC8y64kb2TusvYpG65mpzIxy//0vB//erHh1/5octsRtNTX0LqAH8MQsfNHfKGcxZCB+yzYb3oCVcMr3/R387WtB797FsPX3P3M/PcST8XmjdM8/r8PC8v6GzMNIJTT3vwu6kV/i6p+IXTEaKLwK+6Sh36aUMbg1+1h+giJJmfXUUXfONNh4c8/rbDne95kxzvwkf++PPDW/7z3wwfed/nbWYYfvH3vt4etXnOw//MHrXrWwOh1AH+GISOmzvkb2o7C6ED5viN7ue87k72qM0vPvKjqwfjvm988E2Hb3rQzdbNZhc++v4vDW971WfyeBLPBaF5wzSvz8/z8oLOxgwEp37iQe++Vj/HsshMVhBdBJJJHfppQxuDX7WH6CIk2dHsqkmdM2OT+uTYpL5gM4VtmlXCVx2eA4RSB/hjEDpu7pA3nLMQOmDXG7O7WSVs353ucaPhgd9/1qxN62Pv/zubaeBK73y+O55LhOYN07w+P8/LCzobMxbkZpUfUJNEWWyZFIguAsmkDv20oY3Br9pDdJFGstSkHprfSd3UZqaTm9QrxyY1jgWfc9tmlfAO4TlAKHWAPwah4+YOecM5C6EDdrkxt2pWCbD42rFppT9+M1fT+oNXfTaPTVzpnc93h3NpQfOGaV6fn+flBZ2NmTFYN6uEfo5lMZp4iC4CyaQO/bShjcGv2kN0EUt29HHvghmb1OXwcc8/pxJMaVYJ/5zCM4RQ6gBWX2TnCz/hLIQOmHpjbt2sEqG+O93jzP00rZC3h+tiwxqb1bvGZlWm9HMEnY2Zag/RRSCZ1KGfNrQx+FV7iA64+0W3GO7/qFvP0qQ+cOlnh3f8zlWuSSH+Oa2Cqc0q4Z9TeIYQSh3Qqq/Fzhd+wlkIHTDlxnzO70xoVolGfXM3rT9+6+fz/zsaeTdxXWtY1qzyw9Uwop8j6GzMVHuILgLJpA79tKGNwa/a09Z9y8POzt9JnU3+LqlteM+bP5XfSV195dGvIlRFrPHP6dTmZvVdfxo3OfxK0EEodUCsj7HzhZ9wFkIHbHtjTm5WCVLfuXe+4fCtj7j5cM8H7f4fuE9/8ivjO63P+KZF8iquSw2r/Rvs5WED0NmYqfYQXQSSSR36aUMbg1+1x+tSk3r2K+42PObpt9+5Ub3nkk8Nv/xDHx5e84IrhqvWjSpRFbHGPyeuc4iD8CtBB6HUAb317fzj8YSzEDpg0o/vBVPqu/IjXx5e/+tXDS+++ONjk7nGZqdx1m1vMDz8KWcPP/rS2+Xfjs+QvIrr0q818N9gpyYJ0NmYqfYQXQSSSR36aUMbg1+159rhPmOT+qk5m9QPrprU1X9dmpRPywvvvK48YpPMC6HUAT6V0HFzh7zhnIXQASehYSU+/Ym/P76mJfIyrisNS/8GOzVJgM7GTLWH6CKQTOrQTxvaGPwsWDWpr5+xSX1obFJ/BR/5RiCxL9VHSOd1FZ6T8LNxRdBBKHWATyV03NwhbzhnIXRA743Zyy71HVvT+qfl12bmPhfnJ7bQvGGa1+fneXllYfNvsFOTBOhszFR7iC4CyaQO/bShjeVRblIvT03qDjs3qXePTep5Y5N6tWtSoSAI/UrQAZ3XlXcQm2ReCKUO8KmEjps75A3nLIQOOEkNK3EsTesl5ePh3Ofi/MQWmjdM8/r8PC9vtQBfsLcoX3Lp7+lAZ2Om2kN0EUgmdegnhDe+2VcN3/bI2wwPeFT6GzlvYLPT+OI1Xxn+4HVXDW//nb8dvvC5r9jsCl9CKAhCqTOe+/v/yB61+Zn0BbvhHMRByLwQSh3gUwkdN3fIL42dhdAB6svln/2dr7VHbX7hkX9hjwpz1Zf+mqD7PuLmw7d+983y3421C+nviX/n714zvOsNnxu+dI24lYHT9Uv3M3RXLmu6KYPOxky1h+gikEzq0K8hvPHNbjA89PHnDj/9iruN4zk7NarUpN78yk8Mz/sXHxre/Iorq0aV8CWEgiCUugk4B/FCybwQSh3gUwkdN3fIa9FZCB1w0t5hHZH+8Ym3verTw4uf+PH8E7/UcKaS/yLAx958fKd17nD/cTyz4+9LO13fYeVnpg+3rOnnCDobM9UeootAMqlDP3tYmtTX53G+JvWJ0qTIYfjZoIFQ6ibgHMQLJfNCKHWATyV03Nwhr0VnIXTASW1YidS0/vvYtH7jiX89Y9M6J4+bmtbp2LDWz0gfblnTzxF0NmaqPUQXgWRSZ6vH0aR+KTYphByGnw0aCKVuAs5BvFAyL4RSB/hUQsfNHfJadBZCB0xqWHus7wvjtZb+nOBcTSu9w+ppWqdbwzoD1/XhljX9HEFnY6baQ3QRSKZ06e+TetpL7zJjk/qz4RJrUr31IX42aCCUugk4B/FCybwQSh3gUwkdN3fIa9FZCB1w0htW0q0+HlrTevU8TeuHn3/b4axz+P1wOjWsVduFCX24ZU0/R9DZmKn2EF0EkjHd//ysO44N66st2p7007zXPP8vh3/9qA+MTeroO6nt60P8bNBAKHUUrnMr4oWSeSGUOsCnEjpu7pDXorMQOuB0aFiJ3LT+z88ML3z8FcMbXnR1/m32qdzCfnqoOF0aVnmPCOv6cMuafo6gszFT7SG6CCRr6S74xpvZo+1ITerVY5P6pcf/6fCuN109S32Inw0aCKWOwnVuRbxQMi+EUgf4VELHzR3yWnQWQgfs7cZMOItped/31muG37j44zs1rTt+w+b/iJ8ODct/oIV1fbhlTT9H0NmYqfYQXQSSSV0HV1/5d2OT+tjw76xJOb/KvDMvOQw/GzQQSm8K3+VWxAvlV4IOQqkDfCqh4+YOeS06C6EDTreGlZijaW3ipDes+ts3WNeHW9b0cwSdjZlqD9FFIJnUEWKTonkr88685DD8bNBAKL0Bn4bv8rJOXfSDUOqA/vqouUNei85C6CZwqPpY3qlNqzuvuEaQnc8lTPP6ynz7RwWwTz/JsqafI+hszFR7iC4CyaQOqJsUQvwq88685DD8bNBAKL2B/oYAiBfKrwQdhFIH9NdHzR3yWnQWQjeBQ9Wn8mLT+sSf4x+W53TnFdcIsvO5hGle32q+3awSsE8/ybKmnyPobMxUe4guAsmkznju4/50eOcbY5NCiF9l3pmXHIafDRpp2Ka/IQDihfIrQQeh1AH99VFzh7wWnYXQTeBQ9W3Km5rW//H0Ky3aTHdecY0gO59LmOb1XbvhN9hhST/JsqafI+hszFR7iC7SeaDISajPzwaNNGzj03ADL+vUifqkDuivj5o75rlmt+dQ9fXmlUzJq2+WNTufS5hmuvzOShYPS/pJljX9HEFnY6baQ3SRzgN1ftrQxpC32kN0EZLMzwaNNGzj03ADL+vUifqkDuivj5o75rlmt+dQ9fXmlUzJq2+WNTufS5hu6dYfA2XxsKSfZFnTzxF0NmaqPUQX6TxQ56cNbQx5qz1EFyHJ/Kx06MKn4X5e1qmLfhBKHdBfHzV3zHPNbs+h6uvNK5mSV98sa3Y+lzAdde47K1k8LOknWdb0cwSdjZlqD9FNBvykIclb7SG6CEnmZ6VDF/0NARAH4VeCDkKpA/rro+aOea7Z7TlUfb15JVPy6ptlzc7nEqZRV33BLouHJf0ky5p+jqCzMVPtIbrJgJ80JHmrPUQXIcn8rHQAuK6/IQDiIPxK0EEodUB/fdTcMc81uz2Hqq83r2RKXn2zrNn5XML0ka7500BZPCzpJ1nW9HMEnY2Zag/RTQb8pCHJW+0hughJ5melA8B1/Q0BEAfhV4IOQqkD+uuj5o55rtnC3m7MhLOYN69kSt59nUuYTrpms0rI4l0dQgdr+jmCzsZMtYfoJgN+0pDkrfYQXYQkk3sofJdPI3Q2ZsRB+JWgg1DqgP76qLljnmu2cFo1rKlMybuvcwnT7m9diMjiYUk/ybKmnyPobMxUe4huMuAnDUneag/RRUgyuQfwOr7LpxE6GzPiIPxK0EEodUB/fdTc0XvN9nJdaViz593XucD06p3VFJMELOknWdb0cwSdjZlqD9EJtA78pJDkrfYQXYQkk3sAr+O7fBqhszEjDsKvBB2EUgf010fNHb3XbC9Lw2qz74ZVPgZOMUnAkn6SZU0/R9DZmKn2EJ1A68BPCkneag/RRTpfcIbfzb18GqGzMSNq8ytBB6HUAf31UXNH7zXby0lvWL3MnXefDcv/BvsUk4SzEDpY088RdDZmqj3SpIneAXmlEHQ2Zqo9RBfpfMEdsMXv5l4+jdDZmBG1+ZWgg1DqgP76qLlDX4vbszSsNvs6l/zOaleTjLMQOljTzxF0NmaqPdKkAMn0DtBJIfGr9hBdpPMFd8AWv5t7+TRCZ2NG1OZXgg5CqQP666PmDn0tbs/SsNrs41zWHwN3MVnjLIQO1vRzBJ2NmWqPNClAMr0DdFJI/Ko9RBfpfMEdsMXv5l4+jdDZmBG1+ZWgg1DqgP76qLlDX4vbszSsNsd9Lu5XF6aaOJyF0MGafo6gszEj9wggmbYAnRQSv2oP0UU6X3AHbPG7uZdPI3Q2ZkRtfiXoIJQ6oL8+au7Q1+L2LA2rzXGei2tWiSkmFc5C6GBNP0fQ2ZiRewSQTFuATgqJX7WH6CJdL3jQQOhXuJdPI3Q2ZkRtfiXoIJQ6oL8+au7Q1+L2nFYNa495j+tcTj31n/w/TdnO/xprwlkIHazpfywWdDZmxuAFb76XBW2e8ZA/skcAJJNpZ6jPQ3TAL73xHvZoGj/9nR8I3izTuDIu/eLv6X8BOvKch/+ZPapp5f23b7hrHnv5uUd82B6t6iu0n8fPv/7r7NE8/Pz3Xj5maueK7O1fOE44ixL8q/96R3vU5t896i9XD2bOq5j7XKp3Vkds2/WaOAuhgzXdlEFnY0buEUAybQE6KSR+1R6imxnvzTN1/ofQIzb15u3Fp9rdrxd9zRaWd1ht5j4X2qwSvSbzPMmypp8j6GzcCUim/UAnhcSv2kN0M+O9Z84kDmLuvD7VzM9DcKgbc557qnCwvDOei2xWif0+ybI2qSEItF2vH+i0oY3Br9pDdHMAht575kziIOZ+Tj7V3O4BsD/EjZmY554qHCzvTOeysVkl9vsky9qkhiDQdr1+oNOGNga/ag/RzQEYeu/dMzkHcRC7Z/L4VHO7B8B+3zfmEb33VC9z593nuZxxMv9rUNZ0eXKxibaDvDa2AZ02tDH4VXuIbg7A0Hvvnsk5iIOYlkn4+cQ2HhNgv88bE+m9p3qZO+++ziW/s7p+NCzws7EJJNPOoNOGNga/ag/RzQEYeu/dMzmHzuuoH+7nU82dNwD2+7oxI733VC9z593Huaw/Bi4NC4Bk2hl02tDG4FftkSZbErwg9Cu753QOnddRP9xv9lQKyLWPG7NFb95eZsnrLPrqm3oup57ywD90O0/C74zUlDVW3gvfcm971ObpD/kf9igBfjY2gWRS11HfCuJX7Tk1PG/D71n91Hf8CU3mZ4MGQqkDfBqhszEjDsKvBB2EUgf011fW/rfXX2iP2vz891xujwJgr6/Zwj7uqZ953dfYozbPfdTH7FHNLnnXOAuhA7Y9l+oL9tP7HVYv4GdjE0im04JOG9oY/Ko90qRAkvnZoIFQ6gCfRuhszIiD8CtBB6HUAf318bVuwKLXb3mH1Wbbc2n+NPA62bCqPeBnYxNIptOCThvaGPy0OYck87NBA6HUAT6N0NmYEQfhV4IOQqkD+uvja8g812xhaVhttjkX+qsLS8MCIJlOCzptaGPw0+YckszPBg2EUgf4NEJnY0YchF8JOgilDuivj68h81yzhaVhtek9F9qsEkvDAiCZTgs6bWhj8NPmHJLMzwYNhFIH+DRCZ2NGHIRfCToIpQ7ora+XQ92Ys9xTwCTd1LzOojNvx7nIZpW4rjQsJ6v2gJ+NTSCZ1KGfNrQx+GlzDknmZ4MGQqkDfBqhszEjDsKvBB2EUgf01tfLIW7MxCz3FDBJNzWvs+jMu+FcNjarxNKwAEgmdeinDW3c5NcJSeZngwZCqQN8GqGzMSMOwq8EHYRSB/TW18u+b8wjeu+pXrrr68y7z3Pxfwe74KQ3rF7cjmp7mZDOcBZSh37a0MZNfgVt1171s0EDodQBPo3Q2ZgRB+FXgg5CqQN66+tlnmu2sNeGNaU+v4myr3PJ76x2NYns90mqNaTo3I5qO9FF4CykDv20oY2b/Ararr3qZ4MGQqkDfBqhszEjDsKvBB2EUgf01tfLPNdsYWlYbVrnsv4YuItJi/0+SbWGFJ3bUW0nugichdShnza0sR9t1171s0EDodQBPo3Q2ZgRB+FXgg5CqQN663MI2TzXbGFpWG3iubh/kXmqCeNQT1JTPJxbZU10ETgLqUM/bWjjJjrzkmR+NmgglDrApxE6GzPiIPxK0EEodUBvfQ4hm/uaXRpWGzyX1TurHU0Uh3qSmuLh3CproovAWUgd+mlDGzfRmZck87NBA6HUAT6N0NmYEQfhV4IOQqkD9JkTxJ65r9mlYbU5Opfy08AdTDZxqCepKR7OrbImugichdShnxZ20pmXJPOzQQOh1AE+jdDZmBEH4VeCDkKpA3rP/FDX7NKw2qRz8b+6MNGkh0M9SU3xcG6VNdFF4CykDv20sJPOvCSZnw0aCKUO8GmEzsaMOAi/EnQQSh3Qe+aHumYn3VNTmVKf30SZ+1x8s0pMMFkaFgBnIXXop4Vtqj2deUkyPxs0EEod4NMInY0ZcRB+JegglLoJHOqanbthzV6f30SZM2/drBJbmiROesPS5ZVFJ6v2EF0Ekkkd+mlhm2pPZ16SzM8GDYRSBxylOfvcGw7P/O0Lh2//gdvkxxHnIA5C5oVQ6iZwuGu2U9frp3RT6vObKHPlbTerxBYmRywNC4BkUod+Wtim2tOZlyTzs0EDodQBKc0/ut/Nh1uec8PhwWOzesZvXTg85UV3Hi76vlu5xuUcxEHIvBBK3QQOd8326XqZvT6/iTJHXv0b7J0myKEaVi+6vLLoZNUeootAMqlDPy1c42TVHvCzsQlJ5meDBkKpA+79kLPs0YrzLjhzePgTzlk3rns/dLXuHMRByLwQSt0E5r5m576nepm9Pr+Jsmve/M5q9uI7D3fuJ6kpQl0e6GzMVHuILgLJpA79tHCNk1V7wM/GJiSZnw0aCKVuJL17Ou+CG1lUkxrXne95E4uCgzgImRdCqZvA3Nfs3PdUL7PX5zdRdsm7/hg4e/Gdhzv3k9QUoS4PdDZmqj1EF4FkUrdhtYXbUW3vzEsOw88GDYRKd//x494mPnjp5+zRCucgXiiVF0Opo3Dd3Nfs3PdUL7PX5zdRpuZ131nNXnzn4c7yJLspHro80NmYqfYQXQSSSd2G1QLxq7YTXYQchp8NGgiZ7hsuurk9avPFa/5h+MCln7Wo4PzEC8XyZiCUOgrXzXLNOguhA67PDav6gn324jsPd5Yn2U3x0OWBzsZMtYfoIpBM6jasFohftZ3oImN9N77ZDSwo+D3BAcKoSx//0hfrilajOuLMm0It4oWaVl8vKm+f+aHuKcc+6/ObKNvmbf40cPbiOw93lifZTfHQ5YHOxky1h+gikEzquiF+lfnmvN/2yFsPz/5PdxnOv7D+jsnvCQ4Q4sq32Bfnig/mZlVXlBpd+nWH++HHyD02LJ+K75rlmnUWQgdcHxtWs1klZi++83BneZLdFA9dHuhszFR7iC4CyaSuG+JXmfO8j3nGHYZHXHzecKPx3cxjnn77Wd5hbfcRsBikGh73c7cfxzPyTw0f9ZPn2cqIeKH8StBByB08PhXfNcs16yyEDri+NSz3ty5EZi++83BneZLdFA9dHuhszFR7iC4CyaSuG+JXmXtdakpP+JU7j++CbrmaHEnvap7wy19rkcfbBXMIb9f5ETA2hNSofuR5X+P2pl99+JfjXFrLiBeqt75eYn2MWa5ZZyF0wF7vKWex/7yrd1Y7miS6i9/n4QJaV9Z0eaCzMVPtIboIJJO6bohfZb6aOPvcr86N6oJvvGmOkdSw0jusFt4umFuIzY/x9tddlUc884c/8Zz86wyR9OsNqWGtf5FUvFA99W2DT6XywprII69FZyF0wPWlYZWPgTuYHNFd/D4PF9C6sqbLA52NmWoP0UUgmdR1Q/yC+fkXnjn8xEsuzE2JkRrOQx53W4s83i6Yj+HdN3wE/NQnvjx8/PIvWjRuGfd8+w/ctvoFUiQ1sSe/6M6lZvFCbapvW3wqlRfWRB55LToLoZvAoeqbI6//DfaJJt5C6IC5G1Yvur6ypssDnY2Zag/RRSCZ1AG71Hefh509PPFXLigfqwQPedw59F2SL6FE513Y8RHwHf6ngOm32NMfx9lE+h4rvcM6+q13dRCsvqn4VCovrIm0c99TvRyqvl3z5ndWByte33FreuuTdNdX1nZpCAWii0AyqQOm1Pdtj7zN+PHuDl2NykGS+dlV1PMR8N2XfNoebU9qWI962nmluYmDaNW3Cz6VygtrIu3c91Qvh6pvl7zrj4EHK17fcWt665N011fWpjSE2proIp1ngWxT32OfeYfhuy+Gn6xt4IvXfGV42TM/Mrz7TVevJkgyP3tt50fAL1i04j1j8/rfn/0X+SeEvaRm9c+PflIoDiLW14fwc0sqL6yJtHPfU70cqr6ped2vLhys+M6btLc+SXd9ZW2bhrCm2kN0kc6zcH7aMP/E7+LnXzC+4znb5jZz9dhQUqO6/H3X2IxBkh3NbvcR0Htd/r7PD//xWX+Rm1kv93rIWfkPQ+d3iuIg/ArXeYSfW1J5YU2knfue6uVQ9U3J65pV4mDFd96kvfVJuusra5sawhFOVu0hukjnWTg/suX8C2+cG1XrJ36M9MX3f/jR/2+44rLyBbiDJEuzPR8B33XJp+xRwnul3L/2pI+4L983cbsLzsy/7pC/eBdnx1cUws8tqbywJoqY+57q5VD1bZu3alaJgxXfeZP21ifprq+s6fJAZ2Om2kN0kwG/YHjUqNRP/CLvvuTq4TfHd1Rf+NxXdH3kML7holvYozZHPwX0u32UPn7+x2d9dHjPm/u/10oNK33xPlfDUvUhPpXKC2tc5nURZyF0EzhUfdvkbTarxMGK1x1hTW99ku76ypouD3Q2Zqo9RDcZ8LOH6Sd+P/GSu2z1RfofvO5vhlc//y/HRvX3NrOhvnAY6Y/pnL3hI+D74aeAfrePUsN67QuuGN7yn//GZjaTvnh/8ou+dvWTQvFCyecEqPoQn0rlhTUu87qIsxC6CRyqvt68tFklDla87ghrev0k3fWVNV0e6GzMVHuIbjLF5aGPP3d47DPuaFEfrxmb1Otf+nGLEp31wWH0/RRw/AgIht67zvSWV35yeO0Lr7Coj/STwoc/8VxX21Q21XfESW9Yc78JmL0+v6mJbFaJgxU/5XAF89RX1nR5oLMxU+0huslcOzzgUbfJzaqX9A7mN595+fCu9BO/qfXZYXR9BDz6HgwMvXedKf2k8Nef/JGtflJ4v+89e/WrDZ3XUcUW9R3hUwkdN3fMc80WTveGtbFZJQ5W/JTDFcxTX1nT5YHOxky1h+gm8rB/0d+orr7yy8NLn3H5cNl74Sd+E+u7+/1u3vER8DP2yABD711nSt9zpZ8UbvPFe/p73jPXg4bVy+ncsPTfwQ4crPipFxphnvrK2qEaVkuX/qxf73dU6ab/9z/6ofVP/Hatb9O7qkT+CBgdIPQrdaZVw/pod8NK32H1/NEcyRb1HbE0LMBZ7JY3v7Pa1SQye/FLw2oSdekjXS/pDwSn5kbzVkUQnbHpF0HT722tPwJGBwj9Sp2p1N3HVeO7xzVLw1pzOjas9cfAXUxazF789axh9YI70q8bXH3l31mkSe/A0k8L008Np9SHS3cf31Vtekf3gfEjoLcL5hAyXfop31NfnH4BtOvbi/wdWWrgzq/7Ogo6CP0K99trw5rA6daw3N9nNdWEMXvxS8MqQDLc8apf+Zg96iP91HD1hXzbT9V39Kj/I2C0C+YQRt23P+62w6N/8nyL+3jtC8tPN51f93XUXx/DpxI6bu7ovVd6OZ0a1uo/UTuaqC2zF999ofUxT31lTZcHOhsz1R5pUoBkR48ue+/nhpc+47KtPhKmZvX9z0y/6lD7ZapyvK7nIyD+Nry3C+YQHj189NPPz/+acy/pp4YvesqfDx953+dtZkXI1Mnm+lZw96VhAc5iu7zl/fQOJhmxZfbipzSsY6+vrM3TsDohDeslT7+s+yNhIv25wae99K7DjW/WvCQa9a0mej4Cvv11f2uPCt4umFuYfJ/64guGez9k8+9vHZG+fE9/IJp9CV89DUJPfQmpA5aGBTiL/rz+w/9EkzViy+zFLw2r0GhYV1z2heFXL/7QcEX42w0U6SdnFz//QvcPRuj60t+wsPkj4PvfHn5lwfB2Pkq1POGX77TVHxVaNaqjnxZWxa7hKx5VH4ZSBywNC3AWfXnrbyonmByq+KVhAY2Glb5wf+n4Dutdb1r99cE9rBrWBd0Na9NHwNQ48js8chh+dhWlv7kh/R3w2zSq9OcI0y+OpudcaOfchlZ9ayCUOsAfg9Bxc0f3vdKr67ynZqnPWWzOWzerxJYmiUMUnziZh1vWdHmgszEj9wgg2dGjdPOmL90vecWVNrOZ8pPC8vGrVV/PR8B3H/1dWAlyGDib/vmuHxs/+vX+xC+R/vxg+nOER/g07Zzb4B2CH4RSB/TWN8s1C3Tr9EW7Zpb6nIXOy6+ILUyO2HfxR1wnG9ZUIBn6venlfz3pJ4Xf86PlL+tz9Y1B10fA8NcXs8NIs+mvUH40+UcqGOnPDaY/Pxjxado5t8E7BD8IpQ7ora/3mu3ldL6n9G+wd5og+yx+Cvutr6zp1x50Nm5C27X90sfB9D3WNj8pTH8NMmtYm5rV+iNgpHEY333x7fKvJ/SSfuL360++fHiP+7uxPL0NoRfvEPwglDqgt77ea1biLPpMTlrDyu+sdjWJ7Kv4qey3vrKmX3vQ2bgJbdf2S1+8p58U9n7xnhpb/kPOob6ej4CrfYRwGOn3sHqbaGqCL3vWn9sX6QnvhfQ2hF68Q/CDUOqA3vp6r1mJs+gzOUkNa/0xcBeTFvsofhf2W19Z06+9XGyi7SCvjYnUsNIX7z0NK310TPoVxeXu9+/7CNhbX/o9rNe84K8s4qwa1epXE7w3z9TbEBzihZJ5IZQ6oLe+3mtW4iz6TE5Kw3LfWU01YRx38buy3/rKmn7t5SIAfjY2gWSoS1+8/+oTP5Q/GjJe/fyP1X9Tgrls8xGwt77U3FTDSh/5fu1Jlw9fhJ/4eW+eqbchOMQLJfNCKHVAb32916zEWfSZnISGVX3BPsVEcZzFz8F+6ytr+rWXiwD42dgEkkUd+0lh+gjHPsalX1fo+wi4fX3p4+DRH81B0pfor4Gf+KGh9+aZOu83j9gk80IodYBPJXTcvB9n0Wdy6IbV/GngtiabOK7i52K/9ZW1STdPBfjZ2ASSRd3RTwqPvjNK76ZSzOq7x/35v5p8RHlHtn196d3VBy4tP0V87Ri/+ZWfGB8FBwj9Cs/Ue+ZOJjbJvBBKHeBTCR0378dZ9JkcsmE1m1ViG5MejqP4OdlvfWWt9+bRgJ+NTSBZ1KWPg+mL9/e/49Njo/qozdb1pX/Wa9M/6YUfAVdsX99Rw/q1J18m/zUcDP0Kz9R75k4mNsm8EEod4FMJnVjrBix6/Q7VsNzfuhDpNel+kn4TZe68vey3vrLWe/M4qj3gZ2MTSBZ16Yv03/7Xfz6sfgscdCDs+d2q/BGwKoLndViyVMPLf/6j+Yv3hN8THCCUugk4B/FCybwQSh3gUwmdWEPmuWYLh2hYq3dWO5okup+k30SZPe8BDjeh6ytrneV5qj3gZ2MTSKbTgs4e3v2ijo+AR38WsDLvzEsOw88GDYRSNwHnIF4omRdCqQN8KqETa8g812xh3/dU+Ri4g8kR3U/Sb6LMnnfPh3uErq+sdZbnqfaAn41NIJlOW1bTl+o9PwW8Cj8CVuadeclh+NmggVDqJuAcxAsl80IodYBPxXW9nM73lP8N9okm3kLogLnz9nJdaVhOVu0BPxubQDKps9Xuj4Ajzq8y78xLDsPPBg2EUjcB5yBeKJkXQqkDfCqu62Wea7awr3sqv7Pa1STjLIQOmDtvL0vDAiCZ1I2rPT8F/JO3l39F2flV5p15yWH42aCBUOom4BzECyXzQih1gE/Fdb3Mc80W9nFPrT8G7mKyxlkIHTB33l5OesPqxe2otpcJ6QxnwXTpp4Cb3lmlX1dY/RSQ+FXmm/NmyGvlZ4MGQqmjcJ1bEdeRzAuh1AE+Fdf1Ms81Wzjue8r96sJUE4ezEDpglrwTOL0bVtG5HdV2oovAWbR0XV+sv6O8q6J5K3Oddw15rfxs0EAodRSucyviOpJ5IZQ6wKfiul7muWYLx3lPuWaVmGJS4SyEDpgl7wSWhgXAWUTdPbr+LGD7j+YknF9VBM/rIK+Vnw0aCKU3he9yK+I68itBB6HUAT4V1zmEbJ5rtnBc91TVrBLbmjRxFkIHzJJ3AiezYfVSPJxbZU10ETgL1KV/tVn9wefUqPzf0nkEyVsVQXQR8lr52aCBUHoDvQ3Byzp10Q9CqQN663MI2dzX7HHcU81mldjGhOIshA6YJe8EloYFwFkcPXrbf/1k/oPPz33cB4f/+yVXVI0Lv1ivIXmrIoguQl4rPxs0EEpvoLcheFmnLvpBKHVA5yXrEXvmvmbnvqdos0r0msz+JP0mSq9fL0vDAuAsUJe+QMfGlf4QdJpL76z08ZG81R6ii5BkfjZopGEbn4YbeFmnTtQndYA+88Khrtk57ynZrBIHe5J+E2WSn2BpWACcRUuXmlT6Q9CpaR19BNTHR/yqPUQXIcn8bNBIwzY+DTfwsk6dqE/qAH3mhUNds3PdUxubVeJgT9JvokzyEywNC4CzkDr004Y2Br9qD9FFSDI/GzTSsI1Pww28rFMn6pO6CRzqmp3jnjrjpN+YvXl76c570s9Fysqik1V7iC4CyaQO/bShjcGv2kN0EZLMz0qHLnwa7udlnbroB6HUTeBw12ynzpuvye+srhcNa0rek34uUlYWnazaQ3QRSCZ16KcNbQx+1R6ii5BkflY6dOHTcD8v69RFPwilbgKHu2Y7dd48s/4YuDSsNoc6l150eWXRyao9RBeBZFKHftrQxuBX7SG6CEnmZ6UDwHU+jdDZmBEH4VeCDkKpm8Dc1+xx31PuO6ulYbU5mQ2rCHV5oLMxU+0huggkkzr004Y2Br9qD9FFSDI/Kx0ArvNphM7GjDgIvxJ0EErdBOa+Zo/znqq+YF8aVpulYQGQTOrQTxvaGPyqPUQXIcnkHgrf5dMInY0ZcRB+JegglDoK1819zR7XPdX8aeDSsNrs9Vy6KR66PNDZmKn2EF0Ekkkd+mlDG4NftYfoIiSZ3AN4Hd/l0widjRlxEH4l6CCUOgrXzXLNOguhA7a5p5rNKrE0rDZLwwIgmdShnza0MfhVe4guQpLJPYDX8V0+jdDZmBEH4VeCDkLuoFB5+8zlNesshA7ovados0qcVg1rKlPy7vNcuikeujzQ2Zip9hBdBJJJHfppQxuDX7WH6CKdrxXD7+ZePo3Q2ZgRtfmVoIOQO3j66+szl9essxA6oOeeks0qcV1pWLPn3ee5dFM8dHmgszFT7SG6CCSTOvTThjYGv2oP0UU6XysHbPG7uZdPI3Q2ZkRtfiXoIOQOnv76+sz3fU9tbFaJpWG1WRoWAMmkDv20oY3Br9pDdJHO18oBW/xu7uXTCJ2NGVGbXwk6vo3SXx+siTz7vKf838EuOOkNq5e58x6qYWldWdPlgc7GTLWH6CKQTOrQTxvaGPyqPUQX6XytHLDF7+ZePo3Q2ZgRtfmVoOPbKP31wZrII69FZyF0ALun8jurXU0ih3qSvcydd2lYACSTOvTThjYGv2oP0UU6XysHbPG7uZdPI3Q2ZkRtfiXo+DZKf32wJvLIa9FZCB3QuqfWHwN3MWlxqCfZy9x55z6XXnR9ZU2XBzobM9UeootAMqlDP21oY/Cr9hBdpOu1ChoI/Qr38mmEzsaMqM2vcF0v/fXBmkh73PfUqR/5x//t2uGURSOnMBCcOtWp8+YUmddZtHW/8baL7FGbJz/wUnvk2TVvZK5z+Q9vva89msbTHvxue5QoCVh5L3zLve1RH09/yB/lUT5bSPb8S77JHvXxrIe9zx4h8DxszIzB8954Twvm4af/2fvtUXiGEPqVoAP8mQudjRlxHfmVVfRv33DXPDJ+7hEftkc1/fXBGpd5XcRZCB1wdE+t3lnN0PUYh+rKvcyd91DvsDQlQWd53Ui7uZPh87AxM3caRzCH0K/wIvwxCJ2NGXF2foXrPMLPJ7axpveaPa57qvw0cAeTTRzqSTr2mPf60bDAz8Ym8yQDOvPuiPcOmSCUOsAfg9DZmBFn51e4ziP8fGIba3qv2eO4p/yvLkw06eFQT9Kxx7xLwwImJNNbOvPuiPcOmSCUOsA/J6GzMSMOgq8ohJ9PbGNN7zU79z3lm1VigsnSsNosDWs3dH3Hlxfx3iEThFIH9DcEQBwEX/F4nfDziW2s6b1m57yn6maV2NIkcdIb1sHyznwuvej6ylpneRsAPxvnQtc3d7Y2PkvICaHUAf0NARAHwVc8Xif8fGIba/Z9T7WbVWILkyOWhtVm0rnMgPYra53leao94GfjbvTWN0+2TfgsISeEUgf0NwRg0gvl8Q4ir09sY80+7yn9G+ydJsihGlYvc+c91nOZAe23Y65qe5mY51mAnzScJ9smfJaQE0KpA/obAtB5HVXANu8g8vrENtbs65469S//8VvzynH9bsQm5vrdjZe87f4WtHnSA95hj1bMlfeIuc/l1/7bt9qjNj/+oHfmcZ76ypouD3Q2Zqo9RBeBZFKHftrQxuBX7Tk1PO+N97DHbX7qO/6EJvOzQQOh1AE+jdDZmAm1/cIb7maP2vzswz+0egDbvIPI6xPbWHPc99T6Y+CuXS+yvMNq03suvcxTX1nT5YHOxky1h+gikEzq0E8b2hj8qj3SpECS+dmggVDqAJ9G6GzM6IPgwDbvIPL6xDbWHPc95b6zmufCL+y1YU1glrzOoq++pWEBkEzq0E8b2hj8tDmHJPOzQQOh1AE+jdDZmNEHwYFt3kHk9YltrDnOe6r6gn2eC7+wNKw2S8MCIJnUoZ82tDH4aXMOSeZngwZCqQN8GqGzMaMPAgg6CP0K9+uvj5o7tr1mmz8NnOfCLywNq83SsABIJnXopw1tDH7anEOS+dmggVDqAJ9G6GzM6IMAgg5Cv8L9+uuj5o5trtkzmHaeC7+wNKw2S8MCIJnUoZ82tDH4aXMOSeZngwZCqQN8GqGzcTvCLgj9isjrloSOmzt6r9nVOyuinefCLywNq82khnXs9ZU1XR7obMxUe4guAsmkDv20oY2b/Dohyfxs0EAodYBPI3Q2bkLmhVDqgP76qLmj55otHwOJdp4Lv3CohjVJNzWvs+jM23kujmOvr6zp8kBnY6baQ3QRSCZ16KcNbdzkV9B27VU/GzQQSh3g0widjZuQeSGUOqC/Pmru2HTN+u+siHaeC7+wNKw2S8MCIJnUoZ82tHGTX0HbtVf9bNBAKHWAT8N1vci8EEod0FvfHPdU/RvsRDvPhV+Yu2H10l1fZ96Tfi7z1FfWdHmgszFT7SG6CCSTOvTThjb2o+3aq342aCCUOsCn4bpeZF4IpQ7orW/Xaza/s6oWidE8F35hrw1rSn1+E+Wkn8s89ZU1XR7obMxUe4guAsmkDv20oY2b6MxLkvnZoIFQ6gCfhut6kXkhlDqgt75drtn1x8BqkRjNc+EXloa1G/utr6z1NgQnq/YQXQSSSR36aUMbN9GZlyTzs0EDodQBPg3X9SLzQih1QG99U69Z951VdaESo3ku/MLSsHZjv/WVtd6G4GTVHqKLQDKpQz8t7KQzL0nmZ4MGQqkDfBqu60XmhVDqgN76plyz/gv2kepCJUbzXPiFpWHtxn7rK2v6ZQOdjZlqD9FFIJnUoZ8WdtKZlyTzs0EDodQBPg3XOcRByLwQSh3QW9+212zVrBLVhUqM5rnwC0vD2o391lfW9MsGOhsz1R6ii0AyqUM/LWxT7enMS5L52aCBUOoAn4brHOIgZF4IpQ7orW+ba3ZsVm1FdaESo3ku/MLSsHZjv/WVNf2ygc7GTLWH6CKQTOrQTwvbVHs685JkfjZoIJQ6YNpzEn42rgg6CKUO8KmEjps77J1VW1FdqMRongu/MKlhTWVKfX4TZe5z6WW/9ZU1/bKBzsZMtYfoIpBM6tBPC9tUezrzkmR+NmgglDqg9zk5mdgk80IodYBPJXTcfA18DGwrqguVGM1z4Rfmbliz1+c3UebO28t+6ytr+mUDnY2Zag/RRSCZ1KGfFq5xsmoP+NnYhCTzs0EDodQB056T8LNxRdBBKHWATyV03DwTvrNqG1UXKsk3z4VfWBrWbuy3vrKmXzbQ2Zip9hBdBJJJHfpp4Ronq/aAn41NSDI/GzQQSt0EnIM4CJkXQqkDfCqh4+bDGXW9baPqQm3Lah0CS/rCL/Q2rF5mr89vohzqXPZbX1nT5YHOxky1h+gikEzqNqy2cDuq7Z15yWH42aCBUOom4BzECyXzQih1gE8ldMQ8v7Oq620bVRdqW1brEFjSF35haVhtloYFQDKp27BaIH7VdqKLkMPws0EDodRNwDmIF0rmhVDqAJ9K6Brm64+Bdb1to+pCbctqHQJL+sIvXN8aVi9LwwIgmdRtWC0Qv2o70UXIYfjZoIFQ6ibgHMQLJfNCKHWATyV0wdx9Z1XX2zaqLtS2rNYhsKQv/MLSsNosDQuAZFLXDfGrzDvzksPws0EDodRNwDmIF0rmhVDqAJ9K6GAtfMEeTRJto+pCJfnmufALUxvWHe9yU3vkmb0+v4nSm7eXpWEBkEzquiF+lXlnXnIYfjZoIIy68y64kT1WtHMm3Ip4oWJeB4RSB/hUQmdrVbNK1PW2jaoLleSb58IvTGlYP/Nb9xqe+9r7Do/98QuqxjV7fX4Tpdevl6VhAZBM6rohfpV5Z15yGH42aCC83digHvHE2w3P+k93GZ764jvb7CZ4RW5FvFB+JegglDrApxK68f/GZtUW1PUSXZwn+ea58AtTGtatbnfm8ODHnN9sXLPX5zdRev16WRoWAMmkrhviV5l35iWH4WdLdN6Fqwb17LFB/diLLxgu+r5bDbc854a22guvyK2IF4rVl4FQ6gCfiuvsnVVbUNdLdHGe5Jvnwi9MaVhHtBrXHe5yE1ttMKU+v4nS69fL0rAASCZ13RC/yrwzLzmMo9ncoC4+d3j2y1cN6v6TGlRMwyvysk5d9INQ6oCe+uBjYFtQ10t0cb4tq3UILOkLv7BLwzoCG9cvvvY+w2N+/M5j42p8xzWlPr+J0uvXy9KwAEgmdcCh6kucPzao7754/Ij38ruODerCsUHdelKDivg0vCIv69RFPwilDthUX/jOqm1U10t0cb4tq3UILOkLv5BuzA/9j09btBulcX1zu3FNqc9vovT69bI0LACSSR2wz/rOv+DM3KCeDQ3q7BkaVOIjf/x5ezTWoItd42WduugHodQBqr4z6m1to7peoovzbVmtQ2BJX/iFV/37y4YvfO7vLZoH2rgm1Od0YsskP8HSsIDOs0COs77VO6jzhme/4m7Dj/3G183aoI744jX/MPzuS6+0aIV/TlWxa7ysUxf9IJQ6gNV36oe+9c05OpVDpJ5JnKqmiS7Ot2W1DoElqTNufd6Nhu/5kTsN3/yAWw83vtlX2ez8XPXXXxr+6G1/O1z6+58Y/vLD1+S5nvoSTie2vPi/388etXnKP/nDPHbnrV+4Jr31ybzOQuUta7o80NmYqfYQXWRM9vxLvsmCNs986HvH/wU/bWhjyFvtOZUb1Lc89Ozh7ve/xeyNCUlN6gOXfmZ4yyv/Zrj6yi/brMc/J/4EvaxTF/0glDog1rduVol6W9uorpfo4nxbVusQWNIXfiHdmN/8wFuv/n+PjeuvPlzebivc8yBPqbdZJbY5lx566kvM87qVNV0e6GzMVHuILvD8N3+zPWqzalYJ8FOGLO8YlAZ11l4a1Pvf8dnhg5d+1mYTvHD/nITOxow4CL8SdBBKHYCpTv3QfcdmRU0SbaO6XqKL821ZrUNgSV/4Bbwx99m43vu2q9w7LoZ7Ho2ntLFZPXBsVjuei2JTfUfM87qVNV0e6GzMVHuIDuhvVgnwY4aZsnj71KAeNjaoi8YGde4xN6h3jA1qbE4fGJsUPmFfKi/cPyehszEjDsKvBB2EUgccpVo1q/wo/2+m3tY2quslujjfltU6BJb0hV9o3ZgnqXG55xFK7WpWiZnOpYWqD5nndStrujzQ2Zip9hCdsV2zSoBfy3Dk/AtvPNxnDw3q6k98efjIe68ZG9RnVg0qPkMI/QopfMQ/J6GzMSNeKL8SdBBKHZBSlWaVoCaJtlFdL9HF+bas1iGwpC/8groxT0Ljcs8DHnY3q8TM54Kw+iLzvG5lTZcHOhsz1R6iG9m+WSXAzx6WBnWLsUF99WryGEgNKr2DevclnxquuOyLec4/p/AMIZQ6wJ+50NmYES+UXwk6CKUOGJvVJWOzau+st7WN6nqJLs63ZbUOgSV94Rd6bsy73uus4V4PvE1uXumngMdFq3G552EPt2pWiWM6l0SrvhbzvG5lTZcHOhsz1Z62blqzSqQvyccG9R1nD/fYR4N6e2pQVw9XXP4lm/X4pxuePIRSB/gzFzobM+KF8itBB6HUGdas8sPVkKAmCWJUTRNdnG/Lah0CS/rCL2xzY6Y/gnO/7zp3r43LfTk/lrp1s0oc87msEVvmed3Kmi4PdDZmqj21bttmtWpQt9pvg7J3UGvIYfjZoIFQ6gCfRuhszIgXyq8EHYRSNwLNKtHe2dhmo6eul+jifFtW6xBY0hd+YcqNece7WuMaPyruo3H94e9/Mr/jevHbJjSrxJ7ORVnP87qVNV0e6GzMVHu8blOzesbYrG6/xwb1fmhQVekIOQw/GzQQSh3g0widjRnxQvmVoINQ6UKzSrR3+m2JeiZR10t0cb4tq3UILOkLv7DLjbl+x7WHxrXJnzarxJ7PpcU8r1tZ0+WBzsZMtadMvGBDs7r6yr873gZ15dig3vHp8A6KPI8IOQw/GzQQSh3g0widjRnxQvmVoIOQ6U794NiswraR9k6pA+p6iS7Ot2W1DoElfeEX5rgx99W4GE9+4KX6+brSO5/vDOeCzFNfWdPlgc7GTLVnNbGpWR0H6wb1JmhQpL5EtYSQw/CzQQOh1AE+jdDZmBEvlF8JOghbutysSoi0d0odUNdLdHG+Lat1CCzpC78w5415iMaVmlXiJJ9LYp76ypouD3Q2Zqo9p/bWrNI7tPe/4zPDu7BBjWyq74hqCSGH4WeDBkKpA3waobMxI14ovxJ0EEbdulklavv2TqkD6nqJLs63ZbUOgSV94ReO48ZMf3bwft91zrE3rqNmlTgdzoXiLFTesqbLA52NmbDnBW++lz2aH9+gvmCzR/TVR3URchh+NmgglDrApxE6GzPihfIrQQchrrhmlajt2zulDqjrJbo435bVOgSW9IVfOM4b8zgbFzarxOl0LhXOQuUta7o80NmYgWDuZpUa1J+kBvXGVYPatb4VRBchyfxs0EAodYBPI3Q2ZsRB+JWgg/DoYdWsErV9Y+eI1AF1vUQX59uyWofAkr7wC/u4MeduXLFZJU7Hc1njLFTesqbLA52NGQvmaFalQV0F76Dmqa9AdBGSzM8GDYRSB/g0QmdjRhyEXwk6CNPDZrNK1PZhpyF1QF0v0cX5tqzWIbCkL/zCPm/MO6Rfh/jO3RpXq1klTudz8RYqb1nT5YHOxswYTG1W7QYV2b0+D9FFSDI/GzQQSh3g0widjRlxEH4l6CA89YP3edO1fU8ygTttHJE6oE5DdHG+Lat1CCzpC79wiBszveO66DvPHb7pAbfqblzpVxt+9rHvsajmunAuCV1fWdPlgc7GxHP+y927fzUhN6i3f3p4Z2pQl5MvySt2q682J7oISeZngwZCqQN8GqGzMSMOwq8EnYWrZpUftY3qWZhpPzSIXzVNdHG+Lat1CCzpC79wyBszf1Qc33Ftalwv+1d/ln+BVFv35+3hutaw7nH/s4b/9d9cYFGNa1DxHRQkk2l3qC9T7SG6CEnmZ4MGQqkDfBqhszEjDsKvBN0YlmaV6HqSCZhpPzSIXzVNdHG+Lat1CCzpC79wEm7MVuN63x9cNVz6e58Y3ve2q3OcmTmv4rrYsO77z2493OOis3KMDeqv0pfkeZYAyaRuh/oy1R6ii5BkfjZoIJQ6wKcROhsz4iD8Sohcs0p0PckEzLQfGsSvmia6ON+W1ToElvSFXziZN2bhYHlP5LmUNV0e6GzMVHuILgLJpA79tKGNwa/aQ3QRkszPBg2EUgf4NEJnY0YchF8pUf13sJO/a7mehZn2Q4P4VdNEF+fbslqHwJL+u8ELJ/PvLi8cLO+JPJeypssDnY2Zag/RRSCZ1KGfNrQx+FV7iC5CkvnZoIFQ6gCfRuhszIiD8Cslyv+6TbWt60kmYKb90CB+1TTRxfm2rNYhsKQv/MLSsNosDQuAZFKHftrQxuBX7SG6CEnmZ4MGQqkDfBqhszEjDsKvrKL1P8VVbet6kgmYaT80iF81TXRxvi2rdQgs6Qu/sDSsNkvDAiCZ1KGfNrQx+FV7iC5CkvnZoIFQ6gCfRuhszIiD8Cv5n48vVNu6nmQCZtoPDeJXTRNdnG/Lah0CS/rCLywNq83SsABIJnXopw1tDH7VHqKLkGR+NmgglDrApxE6GzPiIHAl/COnDfuuJ5mAmfZDg/hV00QX59uyWofAkr7wC0vDarM0LACSSR36aUMbg1+1h+giJJmfDRoIpQ7waYTOxow4iKOVqlklqm1dTzIBM+2HBvGrpokuzrdltQ6BJX3hF5aG1WZpWAAkkzr004Y2Br9qD9FFSDI/GzQQSh3g0widjRlxEGllbFZtQTXb9SQTMNN+aBC/apro4nxbVusQWNIXfmFpWG2WhgVAMqlDP21oY/Cr9hBdhCTzs0EDodQBPo3Q2ZgRB2HvrNqCarbrSSZgpv3QIH7VNNHF+bas1iGwpC/8wtKw2iwNC4BkUod+2tDG4FftIboISeZngwZCqQN8GqGzMUNqg4+BbUE12/UkEzDTfmgQv2qa6OJ8W1brEFjSF35haVhtloYFQDKpQz9taGPwq/YQXYQk87NBA6HUAT6N0NmYadQWvrNqG1WzXU8yATPthwbxq6aJLs63ZbUOgSV94ReWhtVmaVgAJJM69NOGNga/ag/RRUgyPxs0EEod4NMInY2ZUNsZda1to1rWqcOZ9kOD+FXTRBfn27Jah8CSvvALS8NqszQsAJJJHfppQxuDX7WH6CIkmZ8NGgilDvBphM7GDGzK76zqWttGtaxThzPthwbxq6aJLs63ZbUOgSV94ReWhtVmaVgAJJM69NOGNga/ag/RRUgyPxs0EEod4NMInY0Z27T+GFjX2jaqZZ06nGk/NIhfNU10cb4tq3UILOkLv7A0rDZLwwIgmdShnza0MfhVe4guQpL52aCBUOoAn0bobMyMm9x3VnWtbaNa1qnDmfZDg/hV00QX59uyWofAkr7wC0vDarM0LACSSR36aUMbg1+1h+giJJmfDRoIpQ7waYTOxkT4gj2aJNpGtaxThzPthwbxq6aJLs63ZbUOgSV94ReWhtVmaVgAJJM69NOGNga/ag/RRUgyPxs0EEod4NMInY1Vs0rUtbaNalmnDmfaDw3iV00TXZxvy2odAkv6wi8sDavN0rAASCZ16KcNbQx+1R6ii5BkfjZoIJQ6wKcRuvH/x2bVFtS1Ep2Na7qeZAJm2g8N4ldNE12cb8tqHQJL+sIvLA2rzdKwAEgmdeinDW0MftUeoouQZH42aCCUOsCn4Tp7Z9UW1LUSnY1rup5kAmbaDw3iV00TXZxvy2odAkv6wi8sDavN0rAASCZ16KcNbQx+1R6ii5BkfjZoIJQ6wKdp6+BjYFtQ10p0Nq7pepIJmGk/NIhfNU10cb4tq3UILOkLv7A0rDZLwwIgmdShnza0MfhVe4guQpL52aCBUOoAn6bWhe+s2kZ1rURn45quJ5mAmfZDg/hV00QX59uyWofAkr7wC0vDarM0LACSSR36aUMbg1+1h+giJJmfDRoIpQ7wabyu/jvYiVFdK9HZuKbrSSZgpv3QIH7VNNHF+bas1iGwpC/8wtKw2iwNC4BkUod+2tDG4FftIboISeZngwZCqQN8mhLkd1b1trZRXSvR2bim60kmYKb90CB+1TTRxfm2rNYhsKQv/MLSsNosDQuAZFKHftrQxuBX7SG6CEnmZ4MGQqkDfJpVsP4YWG9rG9W1Ep2Na7qeZAJm2g8N4ldNE12cb8tqHQJL+sIvLA2rzdKwAEgmdeinDW0MftUeoouQZH42aCCUOsCnSb/BTk0SbaO6VqKzcU3Xk0zATPuhQfyqaaKL821ZrUNgSV/4haVhtVkaFgDJpA79tKGNwa/aQ3QRkszPBg2EUgdgmtU7K2qSaBvVtRKdjWu6nmQCZtoPDeJXTRNdnG/Lah0CS/rCLywNq83SsABIJnXopw1tDH7VHqKLkGR+NmgglDrgKE35aSA1SbSN6lqJzsY1XU8yATPthwbxq6aJLs63ZbUOgSV94ReWhtVmaVgAJJM69NOGNga/ag/RRUgyPxs0EEodkNKMzaq9s97WNqprJTob13Q9yQTMtB8axK+aJro435bVOgSW9IVfWBpWm6VhAZBM6tBPG9oY/Ko9RBchyfxs0EAodYC9s2rvrLe1jepaic7GNV1PMgEz7YcG8aumiS7Ot2W1DoElfeEXlobVZmlYACSTOvTThjYGv2oP0UVIMj8bNBBKnVE+BpKd9ba2UV0r0dm4putJJmCm/dAgftU00cX5tqzWIbCkL/zC0rDaLA0LgGRSh37a0MbgV+0hughJ5meDBkKpG4FmlWjvrLfVM4m6VqKzcU3Xk0zATPuhQfyqaaKL821ZrUNgSV/4haVhtVkaFgDJpA79tKGNwa/aQ3QRkszPBg2ESqd/g52aJOqZRF0r0dm4putJJmCm/dAgftU00cX5tqzWIbCkL/zC0rDaLA0LgGRSh37a0MbgV+0hughJ5meDBkKmy++swraR9k6pA+paic7GNV1PMgEz7YcG8aumiS7Ot2W1DoElfeEXlobVZmlYACSTOvTThjYGv2oP0UVIMj8bNBC2dOuPgWHbSHun1AF1rURn45quJ5mAmfZDg/hV00QX59uyWofAkr7wC0vDarM0LACSSR36aUMbg1+1h+giJJmfDRoIo859Z1Vbt3dKHVDXSnQ2rul6kgmYaT80iF81TXRxvi2rdQgs6Qu/sDSsNkvDAiCZ1KGfNrQx+FV7iC5CkvnZoIEQV8IX7NW2kfZOqQPqWonOxjVdTzIBM+2HBvGrpokuzrdltQ6BJX3hF5aG1WZpWAAkkzr004Y2Br9qD9FFSDI/GzQQHj2smlWitm7sHJE6oK6V6Gxc0/UkEzDTfmgQv2qa6OJ8W1brEFjSF35haVhtloYFQDKpQz9taGPwq/YQXYQk87NBA2F6eEafSSLsNKQOqNMQnY1rTlx9Yb4tq3UILOkLv7A0rDZLwwIgmdShnza0MfhVe4guQpL52aCBcPXOqsskATPthwbxq6aJzsY1J66+MN+W1ToElvSFX1gaVpulYQGQTOrQTxvaGPyqPUQXIcn8bNBYWD4GdpkkYKb90CB+1TTR2bjmxNUX5tuyWofAkr7wC0vDarM0LACSSR36aUMbg1+1h+giJJmfDZox9N9ZdZkkYKb90CB+1TTR2bjmxNUX5tuyWofAkr7wC0vDarM0LACSSR36aUMbg1+1h+giJJmf9VH9BXuXSQJm2g8N4ldNE52Na05cfWG+Lat1CCzpC7+wNKw2S8MCIJnUoZ82tDH4VXuILkKS+dkSNX8a2GeSgJn2Q4P4VdNEZ+OaE1dfmG/Lah0CS/rCLywNq83SsABIJnXopw1tDH7VHqKLkGR+dhW1m1WiyyQBM+2HBvGrponOxjUnrr4w35bVOgSW9IVfWBpWm6VhAZBM6tBPG9oY/Ko9RBchyfzsta0/yAx0mSRgpv3QIH7VNNHZuObE1Rfm27Jah8CSvvALS8NqszQsAJJJHfppQxuDX7WH6CIkGc7md1a7mqyAmfZDg/hV00Rn45oTV1+Yb8tqHQJL+sIvLA2rzdKwAEgmdeinDW0MftUeoouQZEez64+Bu5gUYKb90CB+1TTR2bjmxNUX5tuyWofAkr7wC0vDarM0LACSSR36aUMbg1+1h+giJFmaHZvV7iYemGk/NIhfNU10Nq45cfWF+bas1iGwpC/8wtKw2iwNC4BkUod+2tDG4FftIboISWbvrHYzqWdhpv3QIH7VNNHZuObE1Rfm27Jah8CSvvALS8NqszQsAJJJHfppQxuDX7WH6CKNZPDTwOkmiXoWZtoPDeJXTROdjWtOXH1hvi2rdQgs6Qu/sDSsNkvDAiCZ1KGfNrQx+FV7iC4SkkGzSkwzOaKehZn2Q4P4VdNEZ+OaE1dfmG/Lah0CS/rCLywNq83SsABIJnXopw1tDH7VHqKLQDL3z8ev2N4EqWdhpv3QIH7VNNHZuObE1Rfm27Jah8CSvvALS8NqszQsAJJJHfppQxuDX7WH6CKWbPXOakeTSD0LM+2HBvGrponOxjUnrr4w35bVOgSW9IVfWBpWm6VhAZBM6tBPG9oY/Ko9RBe59trh/wfpLZd1elaciQAAAABJRU5ErkJggg==;" vertex="1" parent="cB-VQLEL9NJTstsM0TsG-76">
          <mxGeometry x="15.050000000000011" y="45" width="29.9" height="30" as="geometry" />
        </mxCell>
        <mxCell id="cB-VQLEL9NJTstsM0TsG-79" value="AWS Aurora DB Cluster" style="text;html=1;strokeColor=none;fillColor=none;align=center;verticalAlign=middle;whiteSpace=wrap;rounded=0;" vertex="1" parent="cB-VQLEL9NJTstsM0TsG-20">
          <mxGeometry x="305" y="296" width="60" height="30" as="geometry" />
        </mxCell>
        <mxCell id="cB-VQLEL9NJTstsM0TsG-18" value="" style="group" vertex="1" connectable="0" parent="cB-VQLEL9NJTstsM0TsG-21">
          <mxGeometry y="50" width="60" height="75" as="geometry" />
        </mxCell>
        <mxCell id="cB-VQLEL9NJTstsM0TsG-16" value="AWS API&lt;br&gt;Gateway" style="ellipse;whiteSpace=wrap;html=1;aspect=fixed;" vertex="1" parent="cB-VQLEL9NJTstsM0TsG-18">
          <mxGeometry width="60" height="60" as="geometry" />
        </mxCell>
        <mxCell id="cB-VQLEL9NJTstsM0TsG-17" value="" style="shape=image;verticalLabelPosition=bottom;labelBackgroundColor=default;verticalAlign=top;aspect=fixed;imageAspect=0;image=data:image/png,iVBORw0KGgoAAAANSUhEUgAAASsAAAEsCAYAAACboZUMAAAAAXNSR0IArs4c6QAAAARnQU1BAACxjwv8YQUAAAAJcEhZcwAADsMAAA7DAcdvqGQAAFsfSURBVHhe7b0L1HVXVaa5/yCGewiXhAQQSQQsARUEuwhCFQhYCl6gAHu0UNqWAyIXFblpiVZbpZQoYJWCINU9tICq0Vy6cDSiAwKDGoUQu7mUoIBCJyhoMKAJt3ARMb3XOvM7651zrfc96+yzv3O+P9mPQ9aZa73rnfOss/fMOef7/v8/de655147LCwsLJxwTj37YX987XDqlIUePxs0EEod4NMInY0ZUlvCrwQdhFIH9NdHzR1OF3EWQgecEmeBHKw+v4kye959nUuY5vX5eV5e0NmY4UGIgJCI6qIfN7RxhYt4ECJAvE7SwcIz8v9e235z5WeDBkKpA3waobMxQ2pL+JWgg1DqgP76qLnD6SLOQuiAa8VZIAerz2+izJ53X+cSpnl9fp6XF3Q2ZngQIiAkorroxw1tXOEiHoQIEK+TdLBw1awSxKjHJCF1gE8jdDZmdnySCakD+uuj5g55wzkLoQOWhtVmaVhGSER10Y8b2rjCRTwIESBeJ+kwhqVZJYjRJpMjpA7waYTOxswOT/IIqQP666PmDnnDOQuhA5aG1WZpWEZIRHXRjxvauMJFPAgRIF4n5eCbVYIYKRMMpQ7waYTOxszEJ4mh1AH99VFzh7zhnIXQAUvDarM0LCMkorroxw1tXOEiHoQIEK8Tc6ibVYIYMZMMhFIH+DRCZ2NmwpPMQCh1QH991NwhbzhnIXTA0rDaLA3LCImoLvpxQxtXuIgHIQLE69RyaDerBDFqmayBUOoAn0bobMxs+STXQCh1QH991NwhbzhnIXTA0rDaLA3LCImoLvpxQxtXuIgHIQLE6xQdzuDSEWIUTRwQSh3g0widjZktnqQDQqkD+uuj5g55wzkLoQOWhtVmaVhGSER10Y8b2rjCRTwIESBeJ1zJ76y4dIQY+dmggVDqAJ9G6GzMdD7Jyg9CqQP666PmDnnDOQuhA5aG1WZpWEZIRHXRjxvauMJFPAgRIF6no5X1x0AuHSFGfjZoIJQ6wKcROhszHU9yRdBBKHVAf33U3CFvOGchdMDSsNosDcsIiagu+nFDG1e4iAchAsTrlFbGZlUEXDpCjPxs0EAodYBPI3Q2ZjY8yULQQSh1QH991NwhbzhnIXTA0rDaLA3LCImoLvpxQxtXuIgHIQLE62TvrIqAS0eIkZ8NGgilDvBphM7GjHiSfiXoIJQ6oL8+au6QN5yzEDpgaVhtloZlhERUF/24oY0rXMSDEAEkEfw0sAioSYIY+dmggVDqAJ9G6GzM8NPUeSGUOqC/PmrukDecsxA6YGlYbZaGZYREVBf9uKGNK1zEgxABjUTQrBJFQE0SpGI/GzQQSh3g0widjRl+mjovhFIH9NdHzR3yhnMWQgcsDavN0rCMkIjqoh83tHGFi3gQIiAkOqNWlglqkiAV+9mggVDqAJ9G6GzM8NPUeSGUOqC/PmrukDecsxA6YGlYbZaGZYREVBf9uKGNK1zEgxABkGj1zqpSlglqkiAV+9mggVDqAJ9G6GzM8NPUeSGUOqC/PmrukDecsxA6YGlYbZaGZYREVBf9uKGNK1zEgxABlqh8DKyUZYKaJEjFfjZoIJQ6wKcROhsz/DR1XgilDuivj5o75A3nLIQOWBpWm6VhGSER1UU/bmjjChfxIETAmMj/BnulLBPUJEEq9rNBA6HUAT6N0NmY4aep80IodUB/fdTcIW84ZyF0wNKw2iwNywiJqC76cUMbV7iIByEq5HdWYt9ImWAmGVKxnw0aCKUO8GmEzsYMP02dF0KpA/rro+YOecM5C6EDlobVZmlYRkhEddGPG9q4wkU8CNGK9cdAsW+kTLRM1pCK/WzQQCh1gE8jdDZm+GnqvBBKHdBfHzV3yBvOWQgdsDSsNkvDMkIiqot+3NDGFS7iQYhysypTYt8I0UVIxX42aCCUOsCnETobM/w0dV4IpQ7or4+aO+QN5yyEDlgaVpulYRkhEdVFP25o4woX8cBF9s6qTIl9I0QXIRX72aCBUOoAn0bobMzw09R5IZQ6oL8+au6QN5yzEDpgaVhtloZlhERUF/24oY0rXMSDdVR+GggCsW+E6CKkYj8bNBBKHeDTCJ2NGX6aOi+EUgf010fNHfKGcxZCBywNq83SsIyQiOqiHze0cYWLeJAjaFaJIhD7RoguQir2s0EDodQBPo3Q2Zjhp6nzQih1QH991NwhbzhnIXTA0rDaLA3LCImoLvpxQxtXuIgHsVklikDsGyG6CKnYzwYNhFIH+DRCZ2OGn6bOC6HUAf31UXOHvOGchdABS8NqszQsIySiuujHDW1c4SISNJpVogi4SYLoIqRiPxs0EEod4NMInY0Zfpo6L4RSB/TXR80d8oZzFkIHLA2rzdKwjJCI6qIfN7RxhYsaAWlWiaLmJgmii5CK/WzQQCh1gE8jdDZm+GnqvBBKHdBfHzV3yBvOWQgdsDSsNkvDMkIiqot+3NDGFS4KwRn6NSiL3CRBdBGSzM8GDYRSB/g0QmdjRhyEXwk6CKUO6K+PmjvkDecshA5YGlabpWEZIRHVRT9uaOMKF0GQ31np16AsMpMVRBchyfxs0EAodYBPI3Q2ZsRB+JWgg1DqgP76qLlD3nDOQuiApWG1WRqWERJRXfTjhjaucJEF64+B+jUoiy2TAtFFSDI/GzQQSh3g0widjRlxEH4l6CCUOqC/PmrukDecsxA6YGlYbZaGZYREVBf9uKGNK1w0BmOzKlP6NQCdjZlqD9FFSDI/GzQQSh3g0widjRlxEH4l6CCUOqC/PmrukDecsxA6YGlYbZaGZYREVBf9uKGNKzCyd1ZlSr8GoLMxU+0hughJ5meDBkKpA3waobMxIw7CrwQdhFIH9NdHzR3yhnMWQgcsDavN0rCMkIjqoh83tHHFUQQ/DSwC/RqAzsZMtYfoIiSZnw0aCKUO8GmEzsaMOAi/EnQQSh3QXx81d8gbzlkIHbA0rDZLwzJCIqqLftzQxhUpgmaVKAL9GoDOxky1h+giJJmfDRoIpQ7waYTOxow4CL8SdBBKHdBfHzV3yBvOWQgdsDSsNkvDMkIiqot+3NDGFaFZJYpAvwagszFT7SG6CEnmZ4MGQqkDfBqhszEjDsKvBB2EUgf010fNHfKGcxZCBywNq83SsIyQiOqiHze0sdmsEkWgXwPQ2Zip9hBdhCTzs0EDodQBPo3Q2ZgRB+FXgg5CqQP666PmDnnDOQuhA5aG1WZpWEZIRHXRjxvm/yXNKlF26tcAdDZmqj1EFyHJ/GzQQCh1gE8jdDZmxEH4laCDUOqA/vqouUPecM5C6IClYbVZGpYRElFd9OOG4e9gryir+jUAnY2Zag/RRUgyPxs0EEod4NMInY0ZcRB+JegglDqgvz5q7pA3nLMQOmBpWG2WhmWERFQX/Ygwv7PiJomyql8D0NmYqfYQXYQk87NBA6HUAT6N0NmYEQfhV4IOQqkD+uuj5g55wzkLoQOWhtVmaVhGSER10a8hXH8M5CaJsqpfA9DZmKn2EF2EJPOzQQOh1AE+jdDZmBEH4VeCDkKpA/rro+YOecM5C6EDlobVZmlYRkhEddEvCM/AGW6SAJ0UEr9qD9FFSDI/GzQQSh3g0widjRlxEH4l6CCUOqC/PmrukDecsxA6YGlYbZaGZYREVBf9IFy9s4IZbpIAnRQSv2oP0UVIMj8bNBBKHeDTCJ2NGXEQfiXoIJQ6oL8+au6QN5yzEDpgaVhtloZlhERUF/0sLD8NBCNukgCdFBK/ag/RRUgyPxs0EEod4NMInY0ZcRB+JegglDqgvz5q7pA3nLMQOmBpWG2WhmWERFQX/cbQ/+oCGHGTBOikkPhVe4guQpL52aCBUOoAn0bobMyIg/ArQQeh1AH99VFzh7zhnIXQAUvDarM0LCMkorqw4ptVAoy4SQJ0Ukj8qj1EFyHJ/GzQQCh1gE8jdDZmxEH4laCDUOqA/vqouUPecM5C6IClYbVZGpYRElEdrNTNKgFG3CQBOikkftUeoouQZH42aCCUOsCnETobM+Ig/ErQQSh1QH991NwhbzhnIXTA0rDaLA3LCImozlbazSoBRtwkATopJH7VHqKLkGR+NmgglDrApxE6GzPiIPxK0EEodUB/fdTcIW84ZyF0wNKw2iwNywiJqG5c0b/BDkZSB6v6NSB+1R6ii5BkfjZoIJQ6wKcROhsz4iD8StBBKHVAf33U3CFvOGchdMDSsNosDcsIiZguv7OiJgkwkjpY1a8B8av2EF2EJPOzQQOh1AE+jdDZmBEH4VeCDkKpA/rro+YOecM5C6EDlobVZmlYRkjU0q0/BlKTBBhJHazq14D4VXuILkKS+dmggVDqAJ9G6GzMiIPwK0EHodQB/fVRc4e84ZyF0AFLw2qzNCwjJIq6sVmVKWqSACOpQz9taGPwq/YQXYQk87NBA6HUAT6N0NmYEQfhV4IOQqkD+uuj5g55wzkLoQOWhtVmaVhGSISRvbMqU9QkAUZSh37a0MbgV+0hughJ5meDBkKpA3waobMxIw7CrwQdhFIH9NdHzR3yhnMWQgcsDavN0rCMkOgogp8GFgE1SYCR1KGfNrQx+FV7iC5CkvnZoIFQ6gCfRuhszIiD8CtBB6HUAf31UXOHvOGchdABS8NqszQsIyRKETSrRBFQkwQYSR36aUMbg1+1h+giJJmfDRoIpQ7waYTOxow4CL9Sohvd9IzhRjcpLxXTRfrrgzUu87qIsxA6YGlYbZaGZYREp37ywe+5djhl0ZoyUS0hpzp16KcNbQx+1R6ii5BkfjZoIJQ6wKcROhsz4iCOVu71kLOGB//ArYdbnnPDHH/qE18efu9lnxw++Iefy7F3EH4+sY01p3CNy7wu4iyEDjilL4o1c9d3t//pJsNDf/iWw1m3/aocf/qTfz+88/WfG9731muGL17zD3kucZ0/lzDN6/PzvLygszHDgxABlmjVrPKj/L9AmaAmCahY6tBPG9oY/Ko9RBchyfxs0EAodYBPI3Q2Zhq1pXdR9x6b1EXfd/a6SUX+yy9csTSshCxBLo6N6sbDo599W5vwfOnz/zD8v2PTeufvfnbdtK7z5xKmeX1+npcXdDZmeBAiYExUmlWiUpYJapKAiqUO/bShjcGv2kN0EZLMzwYNhFIH+DRCZ2PGNqUmddH33Wq46HvPzo8V6R3WC374IxbFTCKvT2xjzc4XfsJZCB2wz4b1lJedv35HxYhN6zp/LmGa1+fneXlBZ2OGByEq+N9grz48lolqCYHPllKHftrQxuBX7SG6CEnmZ4MGQqkDfBqhszGRvot68A/cZnjGb104PPh/ufXGRpXI77jAxGcSed2S0HFzh/wOxlkIHbDP77A2NarEmeNr84Dvv8Xw5N88bxzPGs68KdxGE/Pi0ok7lzDN6/PzvLygszHDgxAV8p0h9o2UCWaSgYqlDv20oY3Br9pDdBGSzM8GDYRSB/g0XHfmTW+walK/3d+kKo6xvp0v/ISzEDpgr1+6d4JN69vGcf1aTc3rSu+rb2lY8NNAsW+kTLRM1kDFUod+2tDG4FftIboISeZngwZCqQN8Gq+70dikvn1sUs9MTWocJzUpZOb6kJ0v/ISzEDrgJDasxFHTetJv3i6P+bWbmteV3lff9b1hudMW+0aILgIVSx36aUMbg1+1h+giJJmfDRoIpQ7waa4dzj73hsPDn3jufE0KmaE+xs4XfsJZCB1wUhtWIjWt9A7raa84f3jEU28lP1KetucSpnl9fp6XF3Q2ZnjgIrtjypTYN0J0EahY6tBPG9oY/Ko9RBchyfxs0EAodUBKk5rUP//J8/N3Uj1fnvczT30FoePmDnnDOQuhA05ywzring+6yfCkl95ueMRTxqZ1TrtpnbbnEqZ5fX6elxd0NmZ4sI7gzikCsW+E6CJQsdShnza0MfhVe4guQpL52aCBUOpGUpN69NNTk/q6/KsIx8P0+o7wxyB03NwhbzhnIXTA6dCwErlpvWRsWumdVqNpnbbnEqZ5fX6elxd0NmZ4kKPwn/kiEPtGiC4CFUsd+mlDG4NftYfoIiSZnw0aCFu6oyb1zN8+ziaFbFdfC38MQsfNHfKGcxZCB5wuDStxz3/Km9Zpey5hmtfn53l5QWdjhgexWSWKQOwbIboIVCx16KcNbQx+1R6ii5BkfjZoIDx6uGpS583SpNLvUW1i2/pWBB3gj0HouLlD3nDOQuiAuW/MTaTfZt8F1rRO+rnQvGGa1+fneXlBZ2OGBOQLlCLgJgmii0DFUod+2tDG4FftIboISeZng8bC8y64kb2TusvYpG65mpzIxy//0vB//erHh1/5octsRtNTX0LqAH8MQsfNHfKGcxZCB+yzYb3oCVcMr3/R387WtB797FsPX3P3M/PcST8XmjdM8/r8PC8v6GzMNIJTT3vwu6kV/i6p+IXTEaKLwK+6Sh36aUMbg1+1h+giJJmfXUUXfONNh4c8/rbDne95kxzvwkf++PPDW/7z3wwfed/nbWYYfvH3vt4etXnOw//MHrXrWwOh1AH+GISOmzvkb2o7C6ED5viN7ue87k72qM0vPvKjqwfjvm988E2Hb3rQzdbNZhc++v4vDW971WfyeBLPBaF5wzSvz8/z8oLOxgwEp37iQe++Vj/HsshMVhBdBJJJHfppQxuDX7WH6CIk2dHsqkmdM2OT+uTYpL5gM4VtmlXCVx2eA4RSB/hjEDpu7pA3nLMQOmDXG7O7WSVs353ucaPhgd9/1qxN62Pv/zubaeBK73y+O55LhOYN07w+P8/LCzobMxbkZpUfUJNEWWyZFIguAsmkDv20oY3Br9pDdJFGstSkHprfSd3UZqaTm9QrxyY1jgWfc9tmlfAO4TlAKHWAPwah4+YOecM5C6EDdrkxt2pWCbD42rFppT9+M1fT+oNXfTaPTVzpnc93h3NpQfOGaV6fn+flBZ2NmTFYN6uEfo5lMZp4iC4CyaQO/bShjcGv2kN0EUt29HHvghmb1OXwcc8/pxJMaVYJ/5zCM4RQ6gBWX2TnCz/hLIQOmHpjbt2sEqG+O93jzP00rZC3h+tiwxqb1bvGZlWm9HMEnY2Zag/RRSCZ1KGfNrQx+FV7iA64+0W3GO7/qFvP0qQ+cOlnh3f8zlWuSSH+Oa2Cqc0q4Z9TeIYQSh3Qqq/Fzhd+wlkIHTDlxnzO70xoVolGfXM3rT9+6+fz/zsaeTdxXWtY1qzyw9Uwop8j6GzMVHuILgLJpA79tKGNwa/a09Z9y8POzt9JnU3+LqlteM+bP5XfSV195dGvIlRFrPHP6dTmZvVdfxo3OfxK0EEodUCsj7HzhZ9wFkIHbHtjTm5WCVLfuXe+4fCtj7j5cM8H7f4fuE9/8ivjO63P+KZF8iquSw2r/Rvs5WED0NmYqfYQXQSSSR36aUMbg1+1x+tSk3r2K+42PObpt9+5Ub3nkk8Nv/xDHx5e84IrhqvWjSpRFbHGPyeuc4iD8CtBB6HUAb317fzj8YSzEDpg0o/vBVPqu/IjXx5e/+tXDS+++ONjk7nGZqdx1m1vMDz8KWcPP/rS2+Xfjs+QvIrr0q818N9gpyYJ0NmYqfYQXQSSSR36aUMbg1+159rhPmOT+qk5m9QPrprU1X9dmpRPywvvvK48YpPMC6HUAT6V0HFzh7zhnIXQASehYSU+/Ym/P76mJfIyrisNS/8GOzVJgM7GTLWH6CKQTOrQTxvaGPwsWDWpr5+xSX1obFJ/BR/5RiCxL9VHSOd1FZ6T8LNxRdBBKHWATyV03NwhbzhnIXRA743Zyy71HVvT+qfl12bmPhfnJ7bQvGGa1+fneXllYfNvsFOTBOhszFR7iC4CyaQO/bShjeVRblIvT03qDjs3qXePTep5Y5N6tWtSoSAI/UrQAZ3XlXcQm2ReCKUO8KmEjps75A3nLIQOOEkNK3EsTesl5ePh3Ofi/MQWmjdM8/r8PC9vtQBfsLcoX3Lp7+lAZ2Om2kN0EUgmdegnhDe+2VcN3/bI2wwPeFT6GzlvYLPT+OI1Xxn+4HVXDW//nb8dvvC5r9jsCl9CKAhCqTOe+/v/yB61+Zn0BbvhHMRByLwQSh3gUwkdN3fIL42dhdAB6svln/2dr7VHbX7hkX9hjwpz1Zf+mqD7PuLmw7d+983y3421C+nviX/n714zvOsNnxu+dI24lYHT9Uv3M3RXLmu6KYPOxky1h+gikEzq0K8hvPHNbjA89PHnDj/9iruN4zk7NarUpN78yk8Mz/sXHxre/Iorq0aV8CWEgiCUugk4B/FCybwQSh3gUwkdN3fIa9FZCB1w0t5hHZH+8Ym3verTw4uf+PH8E7/UcKaS/yLAx958fKd17nD/cTyz4+9LO13fYeVnpg+3rOnnCDobM9UeootAMqlDP3tYmtTX53G+JvWJ0qTIYfjZoIFQ6ibgHMQLJfNCKHWATyV03Nwhr0VnIXTASW1YidS0/vvYtH7jiX89Y9M6J4+bmtbp2LDWz0gfblnTzxF0NmaqPUQXgWRSZ6vH0aR+KTYphByGnw0aCKVuAs5BvFAyL4RSB/hUQsfNHfJadBZCB0xqWHus7wvjtZb+nOBcTSu9w+ppWqdbwzoD1/XhljX9HEFnY6baQ3QRSKZ06e+TetpL7zJjk/qz4RJrUr31IX42aCCUugk4B/FCybwQSh3gUwkdN3fIa9FZCB1w0htW0q0+HlrTevU8TeuHn3/b4axz+P1wOjWsVduFCX24ZU0/R9DZmKn2EF0EkjHd//ysO44N66st2p7007zXPP8vh3/9qA+MTeroO6nt60P8bNBAKHUUrnMr4oWSeSGUOsCnEjpu7pDXorMQOuB0aFiJ3LT+z88ML3z8FcMbXnR1/m32qdzCfnqoOF0aVnmPCOv6cMuafo6gszFT7SG6CCRr6S74xpvZo+1ITerVY5P6pcf/6fCuN109S32Inw0aCKWOwnVuRbxQMi+EUgf4VELHzR3yWnQWQgfs7cZMOItped/31muG37j44zs1rTt+w+b/iJ8ODct/oIV1fbhlTT9H0NmYqfYQXQSSSV0HV1/5d2OT+tjw76xJOb/KvDMvOQw/GzQQSm8K3+VWxAvlV4IOQqkDfCqh4+YOeS06C6EDTreGlZijaW3ipDes+ts3WNeHW9b0cwSdjZlqD9FFIJnUEWKTonkr88685DD8bNBAKL0Bn4bv8rJOXfSDUOqA/vqouUNei85C6CZwqPpY3qlNqzuvuEaQnc8lTPP6ynz7RwWwTz/JsqafI+hszFR7iC4CyaQOqJsUQvwq88685DD8bNBAKL2B/oYAiBfKrwQdhFIH9NdHzR3yWnQWQjeBQ9Wn8mLT+sSf4x+W53TnFdcIsvO5hGle32q+3awSsE8/ybKmnyPobMxUe4guAsmkznju4/50eOcbY5NCiF9l3pmXHIafDRpp2Ka/IQDihfIrQQeh1AH99VFzh7wWnYXQTeBQ9W3Km5rW//H0Ky3aTHdecY0gO59LmOb1XbvhN9hhST/JsqafI+hszFR7iC7SeaDISajPzwaNNGzj03ADL+vUifqkDuivj5o75rlmt+dQ9fXmlUzJq2+WNTufS5hmuvzOShYPS/pJljX9HEFnY6baQ3SRzgN1ftrQxpC32kN0EZLMzwaNNGzj03ADL+vUifqkDuivj5o75rlmt+dQ9fXmlUzJq2+WNTufS5hu6dYfA2XxsKSfZFnTzxF0NmaqPUQX6TxQ56cNbQx5qz1EFyHJ/Kx06MKn4X5e1qmLfhBKHdBfHzV3zHPNbs+h6uvNK5mSV98sa3Y+lzAdde47K1k8LOknWdb0cwSdjZlqD9FNBvykIclb7SG6CEnmZ6VDF/0NARAH4VeCDkKpA/rro+aOea7Z7TlUfb15JVPy6ptlzc7nEqZRV33BLouHJf0ky5p+jqCzMVPtIbrJgJ80JHmrPUQXIcn8rHQAuK6/IQDiIPxK0EEodUB/fdTcMc81uz2Hqq83r2RKXn2zrNn5XML0ka7500BZPCzpJ1nW9HMEnY2Zag/RTQb8pCHJW+0hughJ5melA8B1/Q0BEAfhV4IOQqkD+uuj5o55rtnC3m7MhLOYN69kSt59nUuYTrpms0rI4l0dQgdr+jmCzsZMtYfoJgN+0pDkrfYQXYQkk3sofJdPI3Q2ZsRB+JWgg1DqgP76qLljnmu2cFo1rKlMybuvcwnT7m9diMjiYUk/ybKmnyPobMxUe4huMuAnDUneag/RRUgyuQfwOr7LpxE6GzPiIPxK0EEodUB/fdTc0XvN9nJdaViz593XucD06p3VFJMELOknWdb0cwSdjZlqD9EJtA78pJDkrfYQXYQkk3sAr+O7fBqhszEjDsKvBB2EUgf010fNHb3XbC9Lw2qz74ZVPgZOMUnAkn6SZU0/R9DZmKn2EJ1A68BPCkneag/RRTpfcIbfzb18GqGzMSNq8ytBB6HUAf31UXNH7zXby0lvWL3MnXefDcv/BvsUk4SzEDpY088RdDZmqj3SpIneAXmlEHQ2Zqo9RBfpfMEdsMXv5l4+jdDZmBG1+ZWgg1DqgP76qLlDX4vbszSsNvs6l/zOaleTjLMQOljTzxF0NmaqPdKkAMn0DtBJIfGr9hBdpPMFd8AWv5t7+TRCZ2NG1OZXgg5CqQP666PmDn0tbs/SsNrs41zWHwN3MVnjLIQO1vRzBJ2NmWqPNClAMr0DdFJI/Ko9RBfpfMEdsMXv5l4+jdDZmBG1+ZWgg1DqgP76qLlDX4vbszSsNsd9Lu5XF6aaOJyF0MGafo6gszEj9wggmbYAnRQSv2oP0UU6X3AHbPG7uZdPI3Q2ZkRtfiXoIJQ6oL8+au7Q1+L2LA2rzXGei2tWiSkmFc5C6GBNP0fQ2ZiRewSQTFuATgqJX7WH6CJdL3jQQOhXuJdPI3Q2ZkRtfiXoIJQ6oL8+au7Q1+L2nFYNa495j+tcTj31n/w/TdnO/xprwlkIHazpfywWdDZmxuAFb76XBW2e8ZA/skcAJJNpZ6jPQ3TAL73xHvZoGj/9nR8I3izTuDIu/eLv6X8BOvKch/+ZPapp5f23b7hrHnv5uUd82B6t6iu0n8fPv/7r7NE8/Pz3Xj5maueK7O1fOE44ixL8q/96R3vU5t896i9XD2bOq5j7XKp3Vkds2/WaOAuhgzXdlEFnY0buEUAybQE6KSR+1R6imxnvzTN1/ofQIzb15u3Fp9rdrxd9zRaWd1ht5j4X2qwSvSbzPMmypp8j6GzcCUim/UAnhcSv2kN0M+O9Z84kDmLuvD7VzM9DcKgbc557qnCwvDOei2xWif0+ybI2qSEItF2vH+i0oY3Br9pDdHMAht575kziIOZ+Tj7V3O4BsD/EjZmY554qHCzvTOeysVkl9vsky9qkhiDQdr1+oNOGNga/ag/RzQEYeu/dMzkHcRC7Z/L4VHO7B8B+3zfmEb33VC9z593nuZxxMv9rUNZ0eXKxibaDvDa2AZ02tDH4VXuIbg7A0Hvvnsk5iIOYlkn4+cQ2HhNgv88bE+m9p3qZO+++ziW/s7p+NCzws7EJJNPOoNOGNga/ag/RzQEYeu/dMzmHzuuoH+7nU82dNwD2+7oxI733VC9z593Huaw/Bi4NC4Bk2hl02tDG4FftkSZbErwg9Cu753QOnddRP9xv9lQKyLWPG7NFb95eZsnrLPrqm3oup57ywD90O0/C74zUlDVW3gvfcm971ObpD/kf9igBfjY2gWRS11HfCuJX7Tk1PG/D71n91Hf8CU3mZ4MGQqkDfBqhszEjDsKvBB2EUgf011fW/rfXX2iP2vz891xujwJgr6/Zwj7uqZ953dfYozbPfdTH7FHNLnnXOAuhA7Y9l+oL9tP7HVYv4GdjE0im04JOG9oY/Ko90qRAkvnZoIFQ6gCfRuhszIiD8CtBB6HUAf318bVuwKLXb3mH1Wbbc2n+NPA62bCqPeBnYxNIptOCThvaGPy0OYck87NBA6HUAT6N0NmYEQfhV4IOQqkD+uvja8g812xhaVhttjkX+qsLS8MCIJlOCzptaGPw0+YckszPBg2EUgf4NEJnY0YchF8JOgilDuivj68h81yzhaVhtek9F9qsEkvDAiCZTgs6bWhj8NPmHJLMzwYNhFIH+DRCZ2NGHIRfCToIpQ7ora+XQ92Ys9xTwCTd1LzOojNvx7nIZpW4rjQsJ6v2gJ+NTSCZ1KGfNrQx+GlzDknmZ4MGQqkDfBqhszEjDsKvBB2EUgf01tfLIW7MxCz3FDBJNzWvs+jMu+FcNjarxNKwAEgmdeinDW3c5NcJSeZngwZCqQN8GqGzMSMOwq8EHYRSB/TW18u+b8wjeu+pXrrr68y7z3Pxfwe74KQ3rF7cjmp7mZDOcBZSh37a0MZNfgVt1171s0EDodQBPo3Q2ZgRB+FXgg5CqQN66+tlnmu2sNeGNaU+v4myr3PJ76x2NYns90mqNaTo3I5qO9FF4CykDv20oY2b/Ararr3qZ4MGQqkDfBqhszEjDsKvBB2EUgf01tfLPNdsYWlYbVrnsv4YuItJi/0+SbWGFJ3bUW0nugichdShnza0sR9t1171s0EDodQBPo3Q2ZgRB+FXgg5CqQN663MI2TzXbGFpWG3iubh/kXmqCeNQT1JTPJxbZU10ETgLqUM/bWjjJjrzkmR+NmgglDrApxE6GzPiIPxK0EEodUBvfQ4hm/uaXRpWGzyX1TurHU0Uh3qSmuLh3CproovAWUgd+mlDGzfRmZck87NBA6HUAT6N0NmYEQfhV4IOQqkD9JkTxJ65r9mlYbU5Opfy08AdTDZxqCepKR7OrbImugichdShnxZ20pmXJPOzQQOh1AE+jdDZmBEH4VeCDkKpA3rP/FDX7NKw2qRz8b+6MNGkh0M9SU3xcG6VNdFF4CykDv20sJPOvCSZnw0aCKUO8GmEzsaMOAi/EnQQSh3Qe+aHumYn3VNTmVKf30SZ+1x8s0pMMFkaFgBnIXXop4Vtqj2deUkyPxs0EEod4NMInY0ZcRB+JegglLoJHOqanbthzV6f30SZM2/drBJbmiROesPS5ZVFJ6v2EF0Ekkkd+mlhm2pPZ16SzM8GDYRSBxylOfvcGw7P/O0Lh2//gdvkxxHnIA5C5oVQ6iZwuGu2U9frp3RT6vObKHPlbTerxBYmRywNC4BkUod+Wtim2tOZlyTzs0EDodQBKc0/ut/Nh1uec8PhwWOzesZvXTg85UV3Hi76vlu5xuUcxEHIvBBK3QQOd8326XqZvT6/iTJHXv0b7J0myKEaVi+6vLLoZNUeootAMqlDPy1c42TVHvCzsQlJ5meDBkKpA+79kLPs0YrzLjhzePgTzlk3rns/dLXuHMRByLwQSt0E5r5m576nepm9Pr+Jsmve/M5q9uI7D3fuJ6kpQl0e6GzMVHuILgLJpA79tHCNk1V7wM/GJiSZnw0aCKVuJL17Ou+CG1lUkxrXne95E4uCgzgImRdCqZvA3Nfs3PdUL7PX5zdRdsm7/hg4e/Gdhzv3k9QUoS4PdDZmqj1EF4FkUrdhtYXbUW3vzEsOw88GDYRKd//x494mPnjp5+zRCucgXiiVF0Opo3Dd3Nfs3PdUL7PX5zdRpuZ131nNXnzn4c7yJLspHro80NmYqfYQXQSSSd2G1QLxq7YTXYQchp8NGgiZ7hsuurk9avPFa/5h+MCln7Wo4PzEC8XyZiCUOgrXzXLNOguhA67PDav6gn324jsPd5Yn2U3x0OWBzsZMtYfoIpBM6jasFohftZ3oImN9N77ZDSwo+D3BAcKoSx//0hfrilajOuLMm0It4oWaVl8vKm+f+aHuKcc+6/ObKNvmbf40cPbiOw93lifZTfHQ5YHOxky1h+gikEzquiF+lfnmvN/2yFsPz/5PdxnOv7D+jsnvCQ4Q4sq32Bfnig/mZlVXlBpd+nWH++HHyD02LJ+K75rlmnUWQgdcHxtWs1klZi++83BneZLdFA9dHuhszFR7iC4CyaSuG+JXmfO8j3nGHYZHXHzecKPx3cxjnn77Wd5hbfcRsBikGh73c7cfxzPyTw0f9ZPn2cqIeKH8StBByB08PhXfNcs16yyEDri+NSz3ty5EZi++83BneZLdFA9dHuhszFR7iC4CyaSuG+JXmXtdakpP+JU7j++CbrmaHEnvap7wy19rkcfbBXMIb9f5ETA2hNSofuR5X+P2pl99+JfjXFrLiBeqt75eYn2MWa5ZZyF0wF7vKWex/7yrd1Y7miS6i9/n4QJaV9Z0eaCzMVPtIboIJJO6bohfZb6aOPvcr86N6oJvvGmOkdSw0jusFt4umFuIzY/x9tddlUc884c/8Zz86wyR9OsNqWGtf5FUvFA99W2DT6XywprII69FZyF0wPWlYZWPgTuYHNFd/D4PF9C6sqbLA52NmWoP0UUgmdR1Q/yC+fkXnjn8xEsuzE2JkRrOQx53W4s83i6Yj+HdN3wE/NQnvjx8/PIvWjRuGfd8+w/ctvoFUiQ1sSe/6M6lZvFCbapvW3wqlRfWRB55LToLoZvAoeqbI6//DfaJJt5C6IC5G1Yvur6ypssDnY2Zag/RRSCZ1AG71Hefh509PPFXLigfqwQPedw59F2SL6FE513Y8RHwHf6ngOm32NMfx9lE+h4rvcM6+q13dRCsvqn4VCovrIm0c99TvRyqvl3z5ndWByte33FreuuTdNdX1nZpCAWii0AyqQOm1Pdtj7zN+PHuDl2NykGS+dlV1PMR8N2XfNoebU9qWI962nmluYmDaNW3Cz6VygtrIu3c91Qvh6pvl7zrj4EHK17fcWt665N011fWpjSE2proIp1ngWxT32OfeYfhuy+Gn6xt4IvXfGV42TM/Mrz7TVevJkgyP3tt50fAL1i04j1j8/rfn/0X+SeEvaRm9c+PflIoDiLW14fwc0sqL6yJtHPfU70cqr6ped2vLhys+M6btLc+SXd9ZW2bhrCm2kN0kc6zcH7aMP/E7+LnXzC+4znb5jZz9dhQUqO6/H3X2IxBkh3NbvcR0Htd/r7PD//xWX+Rm1kv93rIWfkPQ+d3iuIg/ArXeYSfW1J5YU2knfue6uVQ9U3J65pV4mDFd96kvfVJuusra5sawhFOVu0hukjnWTg/suX8C2+cG1XrJ36M9MX3f/jR/2+44rLyBbiDJEuzPR8B33XJp+xRwnul3L/2pI+4L983cbsLzsy/7pC/eBdnx1cUws8tqbywJoqY+57q5VD1bZu3alaJgxXfeZP21ifprq+s6fJAZ2Om2kN0kwG/YHjUqNRP/CLvvuTq4TfHd1Rf+NxXdH3kML7holvYozZHPwX0u32UPn7+x2d9dHjPm/u/10oNK33xPlfDUvUhPpXKC2tc5nURZyF0EzhUfdvkbTarxMGK1x1hTW99ku76ypouD3Q2Zqo9RDcZ8LOH6Sd+P/GSu2z1RfofvO5vhlc//y/HRvX3NrOhvnAY6Y/pnL3hI+D74aeAfrePUsN67QuuGN7yn//GZjaTvnh/8ou+dvWTQvFCyecEqPoQn0rlhTUu87qIsxC6CRyqvt68tFklDla87ghrev0k3fWVNV0e6GzMVHuIbjLF5aGPP3d47DPuaFEfrxmb1Otf+nGLEp31wWH0/RRw/AgIht67zvSWV35yeO0Lr7Coj/STwoc/8VxX21Q21XfESW9Yc78JmL0+v6mJbFaJgxU/5XAF89RX1nR5oLMxU+0huslcOzzgUbfJzaqX9A7mN595+fCu9BO/qfXZYXR9BDz6HgwMvXedKf2k8Nef/JGtflJ4v+89e/WrDZ3XUcUW9R3hUwkdN3fMc80WTveGtbFZJQ5W/JTDFcxTX1nT5YHOxky1h+gm8rB/0d+orr7yy8NLn3H5cNl74Sd+E+u7+/1u3vER8DP2yABD711nSt9zpZ8UbvPFe/p73jPXg4bVy+ncsPTfwQ4crPipFxphnvrK2qEaVkuX/qxf73dU6ab/9z/6ofVP/Hatb9O7qkT+CBgdIPQrdaZVw/pod8NK32H1/NEcyRb1HbE0LMBZ7JY3v7Pa1SQye/FLw2oSdekjXS/pDwSn5kbzVkUQnbHpF0HT722tPwJGBwj9Sp2p1N3HVeO7xzVLw1pzOjas9cfAXUxazF789axh9YI70q8bXH3l31mkSe/A0k8L008Np9SHS3cf31Vtekf3gfEjoLcL5hAyXfop31NfnH4BtOvbi/wdWWrgzq/7Ogo6CP0K99trw5rA6daw3N9nNdWEMXvxS8MqQDLc8apf+Zg96iP91HD1hXzbT9V39Kj/I2C0C+YQRt23P+62w6N/8nyL+3jtC8tPN51f93XUXx/DpxI6bu7ovVd6OZ0a1uo/UTuaqC2zF999ofUxT31lTZcHOhsz1R5pUoBkR48ue+/nhpc+47KtPhKmZvX9z0y/6lD7ZapyvK7nIyD+Nry3C+YQHj189NPPz/+acy/pp4YvesqfDx953+dtZkXI1Mnm+lZw96VhAc5iu7zl/fQOJhmxZfbipzSsY6+vrM3TsDohDeslT7+s+yNhIv25wae99K7DjW/WvCQa9a0mej4Cvv11f2uPCt4umFuYfJ/64guGez9k8+9vHZG+fE9/IJp9CV89DUJPfQmpA5aGBTiL/rz+w/9EkzViy+zFLw2r0GhYV1z2heFXL/7QcEX42w0U6SdnFz//QvcPRuj60t+wsPkj4PvfHn5lwfB2Pkq1POGX77TVHxVaNaqjnxZWxa7hKx5VH4ZSBywNC3AWfXnrbyonmByq+KVhAY2Glb5wf+n4Dutdb1r99cE9rBrWBd0Na9NHwNQ48js8chh+dhWlv7kh/R3w2zSq9OcI0y+OpudcaOfchlZ9ayCUOsAfg9Bxc0f3vdKr67ynZqnPWWzOWzerxJYmiUMUnziZh1vWdHmgszEj9wgg2dGjdPOmL90vecWVNrOZ8pPC8vGrVV/PR8B3H/1dWAlyGDib/vmuHxs/+vX+xC+R/vxg+nOER/g07Zzb4B2CH4RSB/TWN8s1C3Tr9EW7Zpb6nIXOy6+ILUyO2HfxR1wnG9ZUIBn6venlfz3pJ4Xf86PlL+tz9Y1B10fA8NcXs8NIs+mvUH40+UcqGOnPDaY/Pxjxado5t8E7BD8IpQ7ora/3mu3ldL6n9G+wd5og+yx+Cvutr6zp1x50Nm5C27X90sfB9D3WNj8pTH8NMmtYm5rV+iNgpHEY333x7fKvJ/SSfuL360++fHiP+7uxPL0NoRfvEPwglDqgt77ea1biLPpMTlrDyu+sdjWJ7Kv4qey3vrKmX3vQ2bgJbdf2S1+8p58U9n7xnhpb/kPOob6ej4CrfYRwGOn3sHqbaGqCL3vWn9sX6QnvhfQ2hF68Q/CDUOqA3vp6r1mJs+gzOUkNa/0xcBeTFvsofhf2W19Z06+9XGyi7SCvjYnUsNIX7z0NK310TPoVxeXu9+/7CNhbX/o9rNe84K8s4qwa1epXE7w3z9TbEBzihZJ5IZQ6oLe+3mtW4iz6TE5Kw3LfWU01YRx38buy3/rKmn7t5SIAfjY2gWSoS1+8/+oTP5Q/GjJe/fyP1X9Tgrls8xGwt77U3FTDSh/5fu1Jlw9fhJ/4eW+eqbchOMQLJfNCKHVAb32916zEWfSZnISGVX3BPsVEcZzFz8F+6ytr+rWXiwD42dgEkkUd+0lh+gjHPsalX1fo+wi4fX3p4+DRH81B0pfor4Gf+KGh9+aZOu83j9gk80IodYBPJXTcvB9n0Wdy6IbV/GngtiabOK7i52K/9ZW1STdPBfjZ2ASSRd3RTwqPvjNK76ZSzOq7x/35v5p8RHlHtn196d3VBy4tP0V87Ri/+ZWfGB8FBwj9Cs/Ue+ZOJjbJvBBKHeBTCR0378dZ9JkcsmE1m1ViG5MejqP4OdlvfWWt9+bRgJ+NTSBZ1KWPg+mL9/e/49Njo/qozdb1pX/Wa9M/6YUfAVdsX99Rw/q1J18m/zUcDP0Kz9R75k4mNsm8EEod4FMJnVjrBix6/Q7VsNzfuhDpNel+kn4TZe68vey3vrLWe/M4qj3gZ2MTSBZ16Yv03/7Xfz6sfgscdCDs+d2q/BGwKoLndViyVMPLf/6j+Yv3hN8THCCUugk4B/FCybwQSh3gUwmdWEPmuWYLh2hYq3dWO5okup+k30SZPe8BDjeh6ytrneV5qj3gZ2MTSKbTgs4e3v2ijo+AR38WsDLvzEsOw88GDYRSNwHnIF4omRdCqQN8KqETa8g812xh3/dU+Ri4g8kR3U/Sb6LMnnfPh3uErq+sdZbnqfaAn41NIJlOW1bTl+o9PwW8Cj8CVuadeclh+NmggVDqJuAcxAsl80IodYBPxXW9nM73lP8N9okm3kLogLnz9nJdaVhOVu0BPxubQDKps9Xuj4Ajzq8y78xLDsPPBg2EUjcB5yBeKJkXQqkDfCqu62Wea7awr3sqv7Pa1STjLIQOmDtvL0vDAiCZ1I2rPT8F/JO3l39F2flV5p15yWH42aCBUOom4BzECyXzQih1gE/Fdb3Mc80W9nFPrT8G7mKyxlkIHTB33l5OesPqxe2otpcJ6QxnwXTpp4Cb3lmlX1dY/RSQ+FXmm/NmyGvlZ4MGQqmjcJ1bEdeRzAuh1AE+Fdf1Ms81Wzjue8r96sJUE4ezEDpglrwTOL0bVtG5HdV2oovAWbR0XV+sv6O8q6J5K3Oddw15rfxs0EAodRSucyviOpJ5IZQ6wKfiul7muWYLx3lPuWaVmGJS4SyEDpgl7wSWhgXAWUTdPbr+LGD7j+YknF9VBM/rIK+Vnw0aCKU3he9yK+I68itBB6HUAT4V1zmEbJ5rtnBc91TVrBLbmjRxFkIHzJJ3AiezYfVSPJxbZU10ETgL1KV/tVn9wefUqPzf0nkEyVsVQXQR8lr52aCBUHoDvQ3Byzp10Q9CqQN663MI2dzX7HHcU81mldjGhOIshA6YJe8EloYFwFkcPXrbf/1k/oPPz33cB4f/+yVXVI0Lv1ivIXmrIoguQl4rPxs0EEpvoLcheFmnLvpBKHVA5yXrEXvmvmbnvqdos0r0msz+JP0mSq9fL0vDAuAsUJe+QMfGlf4QdJpL76z08ZG81R6ii5BkfjZopGEbn4YbeFmnTtQndYA+88Khrtk57ynZrBIHe5J+E2WSn2BpWACcRUuXmlT6Q9CpaR19BNTHR/yqPUQXIcn8bNBIwzY+DTfwsk6dqE/qAH3mhUNds3PdUxubVeJgT9JvokzyEywNC4CzkDr004Y2Br9qD9FFSDI/GzTSsI1Pww28rFMn6pO6CRzqmp3jnjrjpN+YvXl76c570s9Fysqik1V7iC4CyaQO/bShjcGv2kN0EZLMz0qHLnwa7udlnbroB6HUTeBw12ynzpuvye+srhcNa0rek34uUlYWnazaQ3QRSCZ16KcNbQx+1R6ii5BkflY6dOHTcD8v69RFPwilbgKHu2Y7dd48s/4YuDSsNoc6l150eWXRyao9RBeBZFKHftrQxuBX7SG6CEnmZ6UDwHU+jdDZmBEH4VeCDkKpm8Dc1+xx31PuO6ulYbU5mQ2rCHV5oLMxU+0huggkkzr004Y2Br9qD9FFSDI/Kx0ArvNphM7GjDgIvxJ0EErdBOa+Zo/znqq+YF8aVpulYQGQTOrQTxvaGPyqPUQXIcnkHgrf5dMInY0ZcRB+JegglDoK1819zR7XPdX8aeDSsNrs9Vy6KR66PNDZmKn2EF0Ekkkd+mlDG4NftYfoIiSZ3AN4Hd/l0widjRlxEH4l6CCUOgrXzXLNOguhA7a5p5rNKrE0rDZLwwIgmdShnza0MfhVe4guQpLJPYDX8V0+jdDZmBEH4VeCDkLuoFB5+8zlNesshA7ovados0qcVg1rKlPy7vNcuikeujzQ2Zip9hBdBJJJHfppQxuDX7WH6CKdrxXD7+ZePo3Q2ZgRtfmVoIOQO3j66+szl9essxA6oOeeks0qcV1pWLPn3ee5dFM8dHmgszFT7SG6CCSTOvTThjYGv2oP0UU6XysHbPG7uZdPI3Q2ZkRtfiXoIOQOnv76+sz3fU9tbFaJpWG1WRoWAMmkDv20oY3Br9pDdJHO18oBW/xu7uXTCJ2NGVGbXwk6vo3SXx+siTz7vKf838EuOOkNq5e58x6qYWldWdPlgc7GTLWH6CKQTOrQTxvaGPyqPUQX6XytHLDF7+ZePo3Q2ZgRtfmVoOPbKP31wZrII69FZyF0ALun8jurXU0ih3qSvcydd2lYACSTOvTThjYGv2oP0UU6XysHbPG7uZdPI3Q2ZkRtfiXo+DZKf32wJvLIa9FZCB3QuqfWHwN3MWlxqCfZy9x55z6XXnR9ZU2XBzobM9UeootAMqlDP21oY/Cr9hBdpOu1ChoI/Qr38mmEzsaMqM2vcF0v/fXBmkh73PfUqR/5x//t2uGURSOnMBCcOtWp8+YUmddZtHW/8baL7FGbJz/wUnvk2TVvZK5z+Q9vva89msbTHvxue5QoCVh5L3zLve1RH09/yB/lUT5bSPb8S77JHvXxrIe9zx4h8DxszIzB8954Twvm4af/2fvtUXiGEPqVoAP8mQudjRlxHfmVVfRv33DXPDJ+7hEftkc1/fXBGpd5XcRZCB1wdE+t3lnN0PUYh+rKvcyd91DvsDQlQWd53Ui7uZPh87AxM3caRzCH0K/wIvwxCJ2NGXF2foXrPMLPJ7axpveaPa57qvw0cAeTTRzqSTr2mPf60bDAz8Ym8yQDOvPuiPcOmSCUOsAfg9DZmBFn51e4ziP8fGIba3qv2eO4p/yvLkw06eFQT9Kxx7xLwwImJNNbOvPuiPcOmSCUOsA/J6GzMSMOgq8ohJ9PbGNN7zU79z3lm1VigsnSsNosDWs3dH3Hlxfx3iEThFIH9DcEQBwEX/F4nfDziW2s6b1m57yn6maV2NIkcdIb1sHyznwuvej6ylpneRsAPxvnQtc3d7Y2PkvICaHUAf0NARAHwVc8Xif8fGIba/Z9T7WbVWILkyOWhtVm0rnMgPYra53leao94GfjbvTWN0+2TfgsISeEUgf0NwRg0gvl8Q4ir09sY80+7yn9G+ydJsihGlYvc+c91nOZAe23Y65qe5mY51mAnzScJ9smfJaQE0KpA/obAtB5HVXANu8g8vrENtbs65469S//8VvzynH9bsQm5vrdjZe87f4WtHnSA95hj1bMlfeIuc/l1/7bt9qjNj/+oHfmcZ76ypouD3Q2Zqo9RBeBZFKHftrQxuBX7Tk1PO+N97DHbX7qO/6EJvOzQQOh1AE+jdDZmAm1/cIb7maP2vzswz+0egDbvIPI6xPbWHPc99T6Y+CuXS+yvMNq03suvcxTX1nT5YHOxky1h+gikEzq0E8b2hj8qj3SpECS+dmggVDqAJ9G6GzM6IPgwDbvIPL6xDbWHPc95b6zmufCL+y1YU1glrzOoq++pWEBkEzq0E8b2hj8tDmHJPOzQQOh1AE+jdDZmNEHwYFt3kHk9YltrDnOe6r6gn2eC7+wNKw2S8MCIJnUoZ82tDH4aXMOSeZngwZCqQN8GqGzMaMPAgg6CP0K9+uvj5o7tr1mmz8NnOfCLywNq83SsABIJnXopw1tDH7anEOS+dmggVDqAJ9G6GzM6IMAgg5Cv8L9+uuj5o5trtkzmHaeC7+wNKw2S8MCIJnUoZ82tDH4aXMOSeZngwZCqQN8GqGzcTvCLgj9isjrloSOmzt6r9nVOyuinefCLywNq82khnXs9ZU1XR7obMxUe4guAsmkDv20oY2b/Dohyfxs0EAodYBPI3Q2bkLmhVDqgP76qLmj55otHwOJdp4Lv3CohjVJNzWvs+jM23kujmOvr6zp8kBnY6baQ3QRSCZ16KcNbdzkV9B27VU/GzQQSh3g0widjZuQeSGUOqC/Pmru2HTN+u+siHaeC7+wNKw2S8MCIJnUoZ82tHGTX0HbtVf9bNBAKHWAT8N1vci8EEod0FvfHPdU/RvsRDvPhV+Yu2H10l1fZ96Tfi7z1FfWdHmgszFT7SG6CCSTOvTThjb2o+3aq342aCCUOsCn4bpeZF4IpQ7orW/Xaza/s6oWidE8F35hrw1rSn1+E+Wkn8s89ZU1XR7obMxUe4guAsmkDv20oY2b6MxLkvnZoIFQ6gCfhut6kXkhlDqgt75drtn1x8BqkRjNc+EXloa1G/utr6z1NgQnq/YQXQSSSR36aUMbN9GZlyTzs0EDodQBPg3X9SLzQih1QG99U69Z951VdaESo3ku/MLSsHZjv/WVtd6G4GTVHqKLQDKpQz8t7KQzL0nmZ4MGQqkDfBqu60XmhVDqgN76plyz/gv2kepCJUbzXPiFpWHtxn7rK2v6ZQOdjZlqD9FFIJnUoZ8WdtKZlyTzs0EDodQBPg3XOcRByLwQSh3QW9+212zVrBLVhUqM5rnwC0vD2o391lfW9MsGOhsz1R6ii0AyqUM/LWxT7enMS5L52aCBUOoAn4brHOIgZF4IpQ7orW+ba3ZsVm1FdaESo3ku/MLSsHZjv/WVNf2ygc7GTLWH6CKQTOrQTwvbVHs685JkfjZoIJQ6YNpzEn42rgg6CKUO8KmEjps77J1VW1FdqMRongu/MKlhTWVKfX4TZe5z6WW/9ZU1/bKBzsZMtYfoIpBM6tBPC9tUezrzkmR+NmgglDqg9zk5mdgk80IodYBPJXTcfA18DGwrqguVGM1z4Rfmbliz1+c3UebO28t+6ytr+mUDnY2Zag/RRSCZ1KGfFq5xsmoP+NnYhCTzs0EDodQB056T8LNxRdBBKHWATyV03DwTvrNqG1UXKsk3z4VfWBrWbuy3vrKmXzbQ2Zip9hBdBJJJHfpp4Ronq/aAn41NSDI/GzQQSt0EnIM4CJkXQqkDfCqh4+bDGXW9baPqQm3Lah0CS/rCL/Q2rF5mr89vohzqXPZbX1nT5YHOxky1h+gikEzqNqy2cDuq7Z15yWH42aCBUOom4BzECyXzQih1gE8ldMQ8v7Oq620bVRdqW1brEFjSF35haVhtloYFQDKp27BaIH7VdqKLkMPws0EDodRNwDmIF0rmhVDqAJ9K6Brm64+Bdb1to+pCbctqHQJL+sIvXN8aVi9LwwIgmdRtWC0Qv2o70UXIYfjZoIFQ6ibgHMQLJfNCKHWATyV0wdx9Z1XX2zaqLtS2rNYhsKQv/MLSsNosDQuAZFLXDfGrzDvzksPws0EDodRNwDmIF0rmhVDqAJ9K6GAtfMEeTRJto+pCJfnmufALUxvWHe9yU3vkmb0+v4nSm7eXpWEBkEzquiF+lXlnXnIYfjZoIIy68y64kT1WtHMm3Ip4oWJeB4RSB/hUQmdrVbNK1PW2jaoLleSb58IvTGlYP/Nb9xqe+9r7Do/98QuqxjV7fX4Tpdevl6VhAZBM6rohfpV5Z15yGH42aCC83digHvHE2w3P+k93GZ764jvb7CZ4RW5FvFB+JegglDrApxK68f/GZtUW1PUSXZwn+ea58AtTGtatbnfm8ODHnN9sXLPX5zdRev16WRoWAMmkrhviV5l35iWH4WdLdN6Fqwb17LFB/diLLxgu+r5bDbc854a22guvyK2IF4rVl4FQ6gCfiuvsnVVbUNdLdHGe5Jvnwi9MaVhHtBrXHe5yE1ttMKU+v4nS69fL0rAASCZ13RC/yrwzLzmMo9ncoC4+d3j2y1cN6v6TGlRMwyvysk5d9INQ6oCe+uBjYFtQ10t0cb4tq3UILOkLv7BLwzoCG9cvvvY+w2N+/M5j42p8xzWlPr+J0uvXy9KwAEgmdcCh6kucPzao7754/Ij38ruODerCsUHdelKDivg0vCIv69RFPwilDthUX/jOqm1U10t0cb4tq3UILOkLv5BuzA/9j09btBulcX1zu3FNqc9vovT69bI0LACSSR2wz/rOv+DM3KCeDQ3q7BkaVOIjf/x5ezTWoItd42WduugHodQBqr4z6m1to7peoovzbVmtQ2BJX/iFV/37y4YvfO7vLZoH2rgm1Od0YsskP8HSsIDOs0COs77VO6jzhme/4m7Dj/3G183aoI744jX/MPzuS6+0aIV/TlWxa7ysUxf9IJQ6gNV36oe+9c05OpVDpJ5JnKqmiS7Ot2W1DoElqTNufd6Nhu/5kTsN3/yAWw83vtlX2ez8XPXXXxr+6G1/O1z6+58Y/vLD1+S5nvoSTie2vPi/388etXnKP/nDPHbnrV+4Jr31ybzOQuUta7o80NmYqfYQXWRM9vxLvsmCNs986HvH/wU/bWhjyFvtOZUb1Lc89Ozh7ve/xeyNCUlN6gOXfmZ4yyv/Zrj6yi/brMc/J/4EvaxTF/0glDog1rduVol6W9uorpfo4nxbVusQWNIXfiHdmN/8wFuv/n+PjeuvPlzebivc8yBPqbdZJbY5lx566kvM87qVNV0e6GzMVHuILvD8N3+zPWqzalYJ8FOGLO8YlAZ11l4a1Pvf8dnhg5d+1mYTvHD/nITOxow4CL8SdBBKHYCpTv3QfcdmRU0SbaO6XqKL821ZrUNgSV/4Bbwx99m43vu2q9w7LoZ7Ho2ntLFZPXBsVjuei2JTfUfM87qVNV0e6GzMVHuIDuhvVgnwY4aZsnj71KAeNjaoi8YGde4xN6h3jA1qbE4fGJsUPmFfKi/cPyehszEjDsKvBB2EUgccpVo1q/wo/2+m3tY2quslujjfltU6BJb0hV9o3ZgnqXG55xFK7WpWiZnOpYWqD5nndStrujzQ2Zip9hCdsV2zSoBfy3Dk/AtvPNxnDw3q6k98efjIe68ZG9RnVg0qPkMI/QopfMQ/J6GzMSNeKL8SdBBKHZBSlWaVoCaJtlFdL9HF+bas1iGwpC/8groxT0Ljcs8DHnY3q8TM54Kw+iLzvG5lTZcHOhsz1R6iG9m+WSXAzx6WBnWLsUF99WryGEgNKr2DevclnxquuOyLec4/p/AMIZQ6wJ+50NmYES+UXwk6CKUOGJvVJWOzau+st7WN6nqJLs63ZbUOgSV94Rd6bsy73uus4V4PvE1uXumngMdFq3G552EPt2pWiWM6l0SrvhbzvG5lTZcHOhsz1Z62blqzSqQvyccG9R1nD/fYR4N6e2pQVw9XXP4lm/X4pxuePIRSB/gzFzobM+KF8itBB6HUGdas8sPVkKAmCWJUTRNdnG/Lah0CS/rCL2xzY6Y/gnO/7zp3r43LfTk/lrp1s0oc87msEVvmed3Kmi4PdDZmqj21bttmtWpQt9pvg7J3UGvIYfjZoIFQ6gCfRuhszIgXyq8EHYRSNwLNKtHe2dhmo6eul+jifFtW6xBY0hd+YcqNece7WuMaPyruo3H94e9/Mr/jevHbJjSrxJ7ORVnP87qVNV0e6GzMVHu8blOzesbYrG6/xwb1fmhQVekIOQw/GzQQSh3g0widjRnxQvmVoINQ6UKzSrR3+m2JeiZR10t0cb4tq3UILOkLv7DLjbl+x7WHxrXJnzarxJ7PpcU8r1tZ0+WBzsZMtadMvGBDs7r6yr873gZ15dig3vHp8A6KPI8IOQw/GzQQSh3g0widjRnxQvmVoIOQ6U794NiswraR9k6pA+p6iS7Ot2W1DoElfeEX5rgx99W4GE9+4KX6+brSO5/vDOeCzFNfWdPlgc7GTLVnNbGpWR0H6wb1JmhQpL5EtYSQw/CzQQOh1AE+jdDZmBEvlF8JOghbutysSoi0d0odUNdLdHG+Lat1CCzpC78w5415iMaVmlXiJJ9LYp76ypouD3Q2Zqo9p/bWrNI7tPe/4zPDu7BBjWyq74hqCSGH4WeDBkKpA3waobMxI14ovxJ0EEbdulklavv2TqkD6nqJLs63ZbUOgSV94ReO48ZMf3bwft91zrE3rqNmlTgdzoXiLFTesqbLA52NmbDnBW++lz2aH9+gvmCzR/TVR3URchh+NmgglDrApxE6GzPihfIrQQchrrhmlajt2zulDqjrJbo435bVOgSW9IVfOM4b8zgbFzarxOl0LhXOQuUta7o80NmYgWDuZpUa1J+kBvXGVYPatb4VRBchyfxs0EAodYBPI3Q2ZsRB+JWgg/DoYdWsErV9Y+eI1AF1vUQX59uyWofAkr7wC/u4MeduXLFZJU7Hc1njLFTesqbLA52NGQvmaFalQV0F76Dmqa9AdBGSzM8GDYRSB/g0QmdjRhyEXwk6CNPDZrNK1PZhpyF1QF0v0cX5tqzWIbCkL/zCPm/MO6Rfh/jO3RpXq1klTudz8RYqb1nT5YHOxswYTG1W7QYV2b0+D9FFSDI/GzQQSh3g0widjRlxEH4l6CA89YP3edO1fU8ygTttHJE6oE5DdHG+Lat1CCzpC79wiBszveO66DvPHb7pAbfqblzpVxt+9rHvsajmunAuCV1fWdPlgc7GxHP+y927fzUhN6i3f3p4Z2pQl5MvySt2q682J7oISeZngwZCqQN8GqGzMSMOwq8EnYWrZpUftY3qWZhpPzSIXzVNdHG+Lat1CCzpC79wyBszf1Qc33Ftalwv+1d/ln+BVFv35+3hutaw7nH/s4b/9d9cYFGNa1DxHRQkk2l3qC9T7SG6CEnmZ4MGQqkDfBqhszEjDsKvBN0YlmaV6HqSCZhpPzSIXzVNdHG+Lat1CCzpC79wEm7MVuN63x9cNVz6e58Y3ve2q3OcmTmv4rrYsO77z2493OOis3KMDeqv0pfkeZYAyaRuh/oy1R6ii5BkfjZoIJQ6wKcROhsz4iD8Sohcs0p0PckEzLQfGsSvmia6ON+W1ToElvSFXziZN2bhYHlP5LmUNV0e6GzMVHuILgLJpA79tKGNwa/aQ3QRkszPBg2EUgf4NEJnY0YchF8pUf13sJO/a7mehZn2Q4P4VdNEF+fbslqHwJL+u8ELJ/PvLi8cLO+JPJeypssDnY2Zag/RRSCZ1KGfNrQx+FV7iC5CkvnZoIFQ6gCfRuhszIiD8Cslyv+6TbWt60kmYKb90CB+1TTRxfm2rNYhsKQv/MLSsNosDQuAZFKHftrQxuBX7SG6CEnmZ4MGQqkDfBqhszEjDsKvrKL1P8VVbet6kgmYaT80iF81TXRxvi2rdQgs6Qu/sDSsNkvDAiCZ1KGfNrQx+FV7iC5CkvnZoIFQ6gCfRuhszIiD8Cv5n48vVNu6nmQCZtoPDeJXTRNdnG/Lah0CS/rCLywNq83SsABIJnXopw1tDH7VHqKLkGR+NmgglDrApxE6GzPiIHAl/COnDfuuJ5mAmfZDg/hV00QX59uyWofAkr7wC0vDarM0LACSSR36aUMbg1+1h+giJJmfDRoIpQ7waYTOxow4iKOVqlklqm1dTzIBM+2HBvGrpokuzrdltQ6BJX3hF5aG1WZpWAAkkzr004Y2Br9qD9FFSDI/GzQQSh3g0widjRlxEGllbFZtQTXb9SQTMNN+aBC/apro4nxbVusQWNIXfmFpWG2WhgVAMqlDP21oY/Cr9hBdhCTzs0EDodQBPo3Q2ZgRB2HvrNqCarbrSSZgpv3QIH7VNNHF+bas1iGwpC/8wtKw2iwNC4BkUod+2tDG4FftIboISeZngwZCqQN8GqGzMUNqg4+BbUE12/UkEzDTfmgQv2qa6OJ8W1brEFjSF35haVhtloYFQDKpQz9taGPwq/YQXYQk87NBA6HUAT6N0NmYadQWvrNqG1WzXU8yATPthwbxq6aJLs63ZbUOgSV94ReWhtVmaVgAJJM69NOGNga/ag/RRUgyPxs0EEod4NMInY2ZUNsZda1to1rWqcOZ9kOD+FXTRBfn27Jah8CSvvALS8NqszQsAJJJHfppQxuDX7WH6CIkmZ8NGgilDvBphM7GDGzK76zqWttGtaxThzPthwbxq6aJLs63ZbUOgSV94ReWhtVmaVgAJJM69NOGNga/ag/RRUgyPxs0EEod4NMInY0Z27T+GFjX2jaqZZ06nGk/NIhfNU10cb4tq3UILOkLv7A0rDZLwwIgmdShnza0MfhVe4guQpL52aCBUOoAn0bobMyMm9x3VnWtbaNa1qnDmfZDg/hV00QX59uyWofAkr7wC0vDarM0LACSSR36aUMbg1+1h+giJJmfDRoIpQ7waYTOxkT4gj2aJNpGtaxThzPthwbxq6aJLs63ZbUOgSV94ReWhtVmaVgAJJM69NOGNga/ag/RRUgyPxs0EEod4NMInY1Vs0rUtbaNalmnDmfaDw3iV00TXZxvy2odAkv6wi8sDavN0rAASCZ16KcNbQx+1R6ii5BkfjZoIJQ6wKcRuvH/x2bVFtS1Ep2Na7qeZAJm2g8N4ldNE12cb8tqHQJL+sIvLA2rzdKwAEgmdeinDW0MftUeoouQZH42aCCUOsCn4Tp7Z9UW1LUSnY1rup5kAmbaDw3iV00TXZxvy2odAkv6wi8sDavN0rAASCZ16KcNbQx+1R6ii5BkfjZoIJQ6wKdp6+BjYFtQ10p0Nq7pepIJmGk/NIhfNU10cb4tq3UILOkLv7A0rDZLwwIgmdShnza0MfhVe4guQpL52aCBUOoAn6bWhe+s2kZ1rURn45quJ5mAmfZDg/hV00QX59uyWofAkr7wC0vDarM0LACSSR36aUMbg1+1h+giJJmfDRoIpQ7wabyu/jvYiVFdK9HZuKbrSSZgpv3QIH7VNNHF+bas1iGwpC/8wtKw2iwNC4BkUod+2tDG4FftIboISeZngwZCqQN8mhLkd1b1trZRXSvR2bim60kmYKb90CB+1TTRxfm2rNYhsKQv/MLSsNosDQuAZFKHftrQxuBX7SG6CEnmZ4MGQqkDfJpVsP4YWG9rG9W1Ep2Na7qeZAJm2g8N4ldNE12cb8tqHQJL+sIvLA2rzdKwAEgmdeinDW0MftUeoouQZH42aCCUOsCnSb/BTk0SbaO6VqKzcU3Xk0zATPuhQfyqaaKL821ZrUNgSV/4haVhtVkaFgDJpA79tKGNwa/aQ3QRkszPBg2EUgdgmtU7K2qSaBvVtRKdjWu6nmQCZtoPDeJXTRNdnG/Lah0CS/rCLywNq83SsABIJnXopw1tDH7VHqKLkGR+NmgglDrgKE35aSA1SbSN6lqJzsY1XU8yATPthwbxq6aJLs63ZbUOgSV94ReWhtVmaVgAJJM69NOGNga/ag/RRUgyPxs0EEodkNKMzaq9s97WNqprJTob13Q9yQTMtB8axK+aJro435bVOgSW9IVfWBpWm6VhAZBM6tBPG9oY/Ko9RBchyfxs0EAodYC9s2rvrLe1jepaic7GNV1PMgEz7YcG8aumiS7Ot2W1DoElfeEXlobVZmlYACSTOvTThjYGv2oP0UVIMj8bNBBKnVE+BpKd9ba2UV0r0dm4putJJmCm/dAgftU00cX5tqzWIbCkL/zC0rDaLA0LgGRSh37a0MbgV+0hughJ5meDBkKpG4FmlWjvrLfVM4m6VqKzcU3Xk0zATPuhQfyqaaKL821ZrUNgSV/4haVhtVkaFgDJpA79tKGNwa/aQ3QRkszPBg2ESqd/g52aJOqZRF0r0dm4putJJmCm/dAgftU00cX5tqzWIbCkL/zC0rDaLA0LgGRSh37a0MbgV+0hughJ5meDBkKmy++swraR9k6pA+paic7GNV1PMgEz7YcG8aumiS7Ot2W1DoElfeEXlobVZmlYACSTOvTThjYGv2oP0UVIMj8bNBC2dOuPgWHbSHun1AF1rURn45quJ5mAmfZDg/hV00QX59uyWofAkr7wC0vDarM0LACSSR36aUMbg1+1h+giJJmfDRoIo859Z1Vbt3dKHVDXSnQ2rul6kgmYaT80iF81TXRxvi2rdQgs6Qu/sDSsNkvDAiCZ1KGfNrQx+FV7iC5CkvnZoIEQV8IX7NW2kfZOqQPqWonOxjVdTzIBM+2HBvGrpokuzrdltQ6BJX3hF5aG1WZpWAAkkzr004Y2Br9qD9FFSDI/GzQQHj2smlWitm7sHJE6oK6V6Gxc0/UkEzDTfmgQv2qa6OJ8W1brEFjSF35haVhtloYFQDKpQz9taGPwq/YQXYQk87NBA2F6eEafSSLsNKQOqNMQnY1rTlx9Yb4tq3UILOkLv7A0rDZLwwIgmdShnza0MfhVe4guQpL52aCBcPXOqsskATPthwbxq6aJzsY1J66+MN+W1ToElvSFX1gaVpulYQGQTOrQTxvaGPyqPUQXIcn8bNBYWD4GdpkkYKb90CB+1TTR2bjmxNUX5tuyWofAkr7wC0vDarM0LACSSR36aUMbg1+1h+giJJmfDZox9N9ZdZkkYKb90CB+1TTR2bjmxNUX5tuyWofAkr7wC0vDarM0LACSSR36aUMbg1+1h+giJJmf9VH9BXuXSQJm2g8N4ldNE52Na05cfWG+Lat1CCzpC7+wNKw2S8MCIJnUoZ82tDH4VXuILkKS+dkSNX8a2GeSgJn2Q4P4VdNEZ+OaE1dfmG/Lah0CS/rCLywNq83SsABIJnXopw1tDH7VHqKLkGR+dhW1m1WiyyQBM+2HBvGrponOxjUnrr4w35bVOgSW9IVfWBpWm6VhAZBM6tBPG9oY/Ko9RBchyfzsta0/yAx0mSRgpv3QIH7VNNHZuObE1Rfm27Jah8CSvvALS8NqszQsAJJJHfppQxuDX7WH6CIkGc7md1a7mqyAmfZDg/hV00Rn45oTV1+Yb8tqHQJL+sIvLA2rzdKwAEgmdeinDW0MftUeoouQZEez64+Bu5gUYKb90CB+1TTR2bjmxNUX5tuyWofAkr7wC0vDarM0LACSSR36aUMbg1+1h+giJFmaHZvV7iYemGk/NIhfNU10Nq45cfWF+bas1iGwpC/8wtKw2iwNC4BkUod+2tDG4FftIboISWbvrHYzqWdhpv3QIH7VNNHZuObE1Rfm27Jah8CSvvALS8NqszQsAJJJHfppQxuDX7WH6CKNZPDTwOkmiXoWZtoPDeJXTROdjWtOXH1hvi2rdQgs6Qu/sDSsNkvDAiCZ1KGfNrQx+FV7iC4SkkGzSkwzOaKehZn2Q4P4VdNEZ+OaE1dfmG/Lah0CS/rCLywNq83SsABIJnXopw1tDH7VHqKLQDL3z8ev2N4EqWdhpv3QIH7VNNHZuObE1Rfm27Jah8CSvvALS8NqszQsAJJJHfppQxuDX7WH6CKWbPXOakeTSD0LM+2HBvGrponOxjUnrr4w35bVOgSW9IVfWBpWm6VhAZBM6tBPG9oY/Ko9RBe59trh/wfpLZd1elaciQAAAABJRU5ErkJggg==;" vertex="1" parent="cB-VQLEL9NJTstsM0TsG-18">
          <mxGeometry x="15.050000000000011" y="45" width="29.9" height="30" as="geometry" />
        </mxCell>
        <mxCell id="cB-VQLEL9NJTstsM0TsG-47" value="AWS Aurora DB Cluster" style="text;html=1;strokeColor=none;fillColor=none;align=center;verticalAlign=middle;whiteSpace=wrap;rounded=0;" vertex="1" parent="1">
          <mxGeometry x="720" y="316" width="60" height="30" as="geometry" />
        </mxCell>
        <mxCell id="cB-VQLEL9NJTstsM0TsG-80" value="" style="endArrow=classic;html=1;rounded=0;exitX=1;exitY=0.5;exitDx=0;exitDy=0;fillColor=#dae8fc;strokeColor=#6c8ebf;entryX=0;entryY=0.5;entryDx=0;entryDy=0;" edge="1" parent="1" source="cB-VQLEL9NJTstsM0TsG-7" target="cB-VQLEL9NJTstsM0TsG-16">
          <mxGeometry width="50" height="50" relative="1" as="geometry">
            <mxPoint x="430" y="470" as="sourcePoint" />
            <mxPoint x="380" y="300" as="targetPoint" />
          </mxGeometry>
        </mxCell>
        <mxCell id="cB-VQLEL9NJTstsM0TsG-81" value="" style="endArrow=classic;html=1;rounded=0;exitX=1;exitY=0;exitDx=0;exitDy=0;fillColor=#d5e8d4;strokeColor=#82b366;entryX=0;entryY=1;entryDx=0;entryDy=0;" edge="1" parent="1" source="cB-VQLEL9NJTstsM0TsG-6" target="cB-VQLEL9NJTstsM0TsG-16">
          <mxGeometry width="50" height="50" relative="1" as="geometry">
            <mxPoint x="300" y="400" as="sourcePoint" />
            <mxPoint x="390" y="330" as="targetPoint" />
          </mxGeometry>
        </mxCell>
        <mxCell id="cB-VQLEL9NJTstsM0TsG-85" value="" style="endArrow=classic;html=1;rounded=0;dashed=1;entryX=0;entryY=0.5;entryDx=0;entryDy=0;" edge="1" parent="1" target="cB-VQLEL9NJTstsM0TsG-77">
          <mxGeometry width="50" height="50" relative="1" as="geometry">
            <mxPoint x="290" y="390" as="sourcePoint" />
            <mxPoint x="570" y="370" as="targetPoint" />
          </mxGeometry>
        </mxCell>
        <mxCell id="cB-VQLEL9NJTstsM0TsG-86" value="Failover call" style="edgeLabel;html=1;align=center;verticalAlign=middle;resizable=0;points=[];" vertex="1" connectable="0" parent="cB-VQLEL9NJTstsM0TsG-85">
          <mxGeometry x="-0.3823" relative="1" as="geometry">
            <mxPoint x="14" y="18" as="offset" />
          </mxGeometry>
        </mxCell>
        <mxCell id="cB-VQLEL9NJTstsM0TsG-88" value="" style="group" vertex="1" connectable="0" parent="1">
          <mxGeometry x="70" y="749" width="223.68" height="180" as="geometry" />
        </mxCell>
        <mxCell id="cB-VQLEL9NJTstsM0TsG-89" value="Region 1 Customer" style="shape=umlActor;verticalLabelPosition=bottom;verticalAlign=top;html=1;outlineConnect=0;fillColor=#dae8fc;strokeColor=#6c8ebf;" vertex="1" parent="cB-VQLEL9NJTstsM0TsG-88">
          <mxGeometry width="30" height="60" as="geometry" />
        </mxCell>
        <mxCell id="cB-VQLEL9NJTstsM0TsG-90" value="Region 2 Customer" style="shape=umlActor;verticalLabelPosition=bottom;verticalAlign=top;html=1;outlineConnect=0;fillColor=#d5e8d4;strokeColor=#82b366;" vertex="1" parent="cB-VQLEL9NJTstsM0TsG-88">
          <mxGeometry y="120" width="30" height="60" as="geometry" />
        </mxCell>
        <mxCell id="cB-VQLEL9NJTstsM0TsG-91" value="" style="group" vertex="1" connectable="0" parent="cB-VQLEL9NJTstsM0TsG-88">
          <mxGeometry x="100" y="60" width="123.68000000000002" height="60" as="geometry" />
        </mxCell>
        <mxCell id="cB-VQLEL9NJTstsM0TsG-92" value="AWS &lt;br&gt;Route 53" style="rounded=0;whiteSpace=wrap;html=1;" vertex="1" parent="cB-VQLEL9NJTstsM0TsG-91">
          <mxGeometry width="120" height="60" as="geometry" />
        </mxCell>
        <mxCell id="cB-VQLEL9NJTstsM0TsG-93" value="" style="shape=image;verticalLabelPosition=bottom;labelBackgroundColor=default;verticalAlign=top;aspect=fixed;imageAspect=0;image=https://d2908q01vomqb2.cloudfront.net/da4b9237bacccdf19c0760cab7aec4a8359010b0/2020/08/12/Screen-Shot-2020-08-12-at-9.51.17-AM.png;" vertex="1" parent="cB-VQLEL9NJTstsM0TsG-91">
          <mxGeometry x="89.23000000000002" y="28.75" width="30.77" height="31.25" as="geometry" />
        </mxCell>
        <mxCell id="cB-VQLEL9NJTstsM0TsG-94" value="" style="endArrow=classic;html=1;rounded=0;entryX=0.584;entryY=-0.013;entryDx=0;entryDy=0;entryPerimeter=0;fillColor=#dae8fc;strokeColor=#6c8ebf;" edge="1" parent="cB-VQLEL9NJTstsM0TsG-88" target="cB-VQLEL9NJTstsM0TsG-92">
          <mxGeometry width="50" height="50" relative="1" as="geometry">
            <mxPoint x="30" y="30" as="sourcePoint" />
            <mxPoint x="80" y="-20" as="targetPoint" />
            <Array as="points">
              <mxPoint x="170" y="30" />
            </Array>
          </mxGeometry>
        </mxCell>
        <mxCell id="cB-VQLEL9NJTstsM0TsG-95" value="" style="endArrow=classic;html=1;rounded=0;entryX=0.583;entryY=1.012;entryDx=0;entryDy=0;entryPerimeter=0;fillColor=#d5e8d4;strokeColor=#82b366;" edge="1" parent="cB-VQLEL9NJTstsM0TsG-88" target="cB-VQLEL9NJTstsM0TsG-92">
          <mxGeometry width="50" height="50" relative="1" as="geometry">
            <mxPoint x="30" y="152" as="sourcePoint" />
            <mxPoint x="170" y="180" as="targetPoint" />
            <Array as="points">
              <mxPoint x="170" y="152" />
            </Array>
          </mxGeometry>
        </mxCell>
        <mxCell id="cB-VQLEL9NJTstsM0TsG-96" value="" style="group" vertex="1" connectable="0" parent="1">
          <mxGeometry x="384" y="669" width="516" height="500" as="geometry" />
        </mxCell>
        <mxCell id="cB-VQLEL9NJTstsM0TsG-97" value="" style="group" vertex="1" connectable="0" parent="cB-VQLEL9NJTstsM0TsG-96">
          <mxGeometry x="31" width="486" height="500" as="geometry" />
        </mxCell>
        <mxCell id="cB-VQLEL9NJTstsM0TsG-98" value="" style="rounded=0;whiteSpace=wrap;html=1;" vertex="1" parent="cB-VQLEL9NJTstsM0TsG-97">
          <mxGeometry width="390" height="170" as="geometry" />
        </mxCell>
        <mxCell id="cB-VQLEL9NJTstsM0TsG-99" value="Region 1" style="text;html=1;strokeColor=none;fillColor=none;align=center;verticalAlign=middle;whiteSpace=wrap;rounded=0;" vertex="1" parent="cB-VQLEL9NJTstsM0TsG-97">
          <mxGeometry width="60" height="30" as="geometry" />
        </mxCell>
        <mxCell id="cB-VQLEL9NJTstsM0TsG-100" value="" style="group" vertex="1" connectable="0" parent="cB-VQLEL9NJTstsM0TsG-97">
          <mxGeometry x="61" y="30" width="426" height="470" as="geometry" />
        </mxCell>
        <mxCell id="cB-VQLEL9NJTstsM0TsG-101" value="Service 1" style="ellipse;whiteSpace=wrap;html=1;" vertex="1" parent="cB-VQLEL9NJTstsM0TsG-100">
          <mxGeometry width="70" height="30" as="geometry" />
        </mxCell>
        <mxCell id="cB-VQLEL9NJTstsM0TsG-102" value="Service 2" style="ellipse;whiteSpace=wrap;html=1;" vertex="1" parent="cB-VQLEL9NJTstsM0TsG-100">
          <mxGeometry y="40" width="70" height="30" as="geometry" />
        </mxCell>
        <mxCell id="cB-VQLEL9NJTstsM0TsG-103" value="Service N" style="ellipse;whiteSpace=wrap;html=1;" vertex="1" parent="cB-VQLEL9NJTstsM0TsG-100">
          <mxGeometry y="90" width="70" height="30" as="geometry" />
        </mxCell>
        <mxCell id="cB-VQLEL9NJTstsM0TsG-104" value="&lt;p style=&quot;line-height: 30%;&quot;&gt;.&lt;br&gt;.&lt;br&gt;.&lt;br&gt;&lt;/p&gt;" style="text;html=1;strokeColor=none;fillColor=none;align=center;verticalAlign=middle;whiteSpace=wrap;rounded=0;" vertex="1" parent="cB-VQLEL9NJTstsM0TsG-100">
          <mxGeometry x="27" y="66" width="16" height="20" as="geometry" />
        </mxCell>
        <mxCell id="cB-VQLEL9NJTstsM0TsG-105" value="" style="shape=image;verticalLabelPosition=bottom;labelBackgroundColor=default;verticalAlign=top;aspect=fixed;imageAspect=0;image=https://www.ovhcloud.com/sites/default/files/styles/text_media_horizontal/public/2021-04/K8S-logo.png;" vertex="1" parent="cB-VQLEL9NJTstsM0TsG-100">
          <mxGeometry x="-13" y="2" width="26" height="26" as="geometry" />
        </mxCell>
        <mxCell id="cB-VQLEL9NJTstsM0TsG-106" value="" style="shape=cylinder3;whiteSpace=wrap;html=1;boundedLbl=1;backgroundOutline=1;size=4.714285714285722;" vertex="1" parent="cB-VQLEL9NJTstsM0TsG-100">
          <mxGeometry x="234" y="25" width="24" height="30" as="geometry" />
        </mxCell>
        <mxCell id="cB-VQLEL9NJTstsM0TsG-107" value="..." style="text;html=1;strokeColor=none;fillColor=none;align=center;verticalAlign=middle;whiteSpace=wrap;rounded=0;" vertex="1" parent="cB-VQLEL9NJTstsM0TsG-100">
          <mxGeometry x="252" y="25" width="30" height="20" as="geometry" />
        </mxCell>
        <mxCell id="cB-VQLEL9NJTstsM0TsG-108" value="" style="shape=image;verticalLabelPosition=bottom;labelBackgroundColor=default;verticalAlign=top;aspect=fixed;imageAspect=0;image=https://seeklogo.com/images/A/aws-aurora-logo-DDA150F538-seeklogo.com.png;" vertex="1" parent="cB-VQLEL9NJTstsM0TsG-100">
          <mxGeometry x="212" y="65" width="30" height="30" as="geometry" />
        </mxCell>
        <mxCell id="cB-VQLEL9NJTstsM0TsG-109" value="Scenario 2 - Region 2 is primary" style="text;html=1;strokeColor=none;fillColor=none;align=center;verticalAlign=middle;whiteSpace=wrap;rounded=0;fontSize=15;fontStyle=1" vertex="1" parent="cB-VQLEL9NJTstsM0TsG-100">
          <mxGeometry x="-212" y="360" width="300" height="30" as="geometry" />
        </mxCell>
        <mxCell id="cB-VQLEL9NJTstsM0TsG-110" value="" style="group" vertex="1" connectable="0" parent="cB-VQLEL9NJTstsM0TsG-97">
          <mxGeometry x="150" y="30" width="90" height="120" as="geometry" />
        </mxCell>
        <mxCell id="cB-VQLEL9NJTstsM0TsG-111" value="" style="group" vertex="1" connectable="0" parent="cB-VQLEL9NJTstsM0TsG-110">
          <mxGeometry x="20" width="70" height="120" as="geometry" />
        </mxCell>
        <mxCell id="cB-VQLEL9NJTstsM0TsG-112" value="Lambda 1" style="ellipse;whiteSpace=wrap;html=1;" vertex="1" parent="cB-VQLEL9NJTstsM0TsG-111">
          <mxGeometry width="70" height="30" as="geometry" />
        </mxCell>
        <mxCell id="cB-VQLEL9NJTstsM0TsG-113" value="Lambda 2" style="ellipse;whiteSpace=wrap;html=1;" vertex="1" parent="cB-VQLEL9NJTstsM0TsG-111">
          <mxGeometry y="40" width="70" height="30" as="geometry" />
        </mxCell>
        <mxCell id="cB-VQLEL9NJTstsM0TsG-114" value="Lambda N" style="ellipse;whiteSpace=wrap;html=1;" vertex="1" parent="cB-VQLEL9NJTstsM0TsG-111">
          <mxGeometry y="90" width="70" height="30" as="geometry" />
        </mxCell>
        <mxCell id="cB-VQLEL9NJTstsM0TsG-115" value="&lt;p style=&quot;line-height: 30%;&quot;&gt;.&lt;br&gt;.&lt;br&gt;.&lt;br&gt;&lt;/p&gt;" style="text;html=1;strokeColor=none;fillColor=none;align=center;verticalAlign=middle;whiteSpace=wrap;rounded=0;" vertex="1" parent="cB-VQLEL9NJTstsM0TsG-111">
          <mxGeometry x="27" y="66" width="16" height="20" as="geometry" />
        </mxCell>
        <mxCell id="cB-VQLEL9NJTstsM0TsG-116" value="" style="shape=image;verticalLabelPosition=bottom;labelBackgroundColor=default;verticalAlign=top;aspect=fixed;imageAspect=0;image=https://upload.wikimedia.org/wikipedia/commons/thumb/5/5c/Amazon_Lambda_architecture_logo.svg/1200px-Amazon_Lambda_architecture_logo.svg.png;" vertex="1" parent="cB-VQLEL9NJTstsM0TsG-110">
          <mxGeometry y="3" width="24" height="24" as="geometry" />
        </mxCell>
        <mxCell id="cB-VQLEL9NJTstsM0TsG-117" value="" style="shape=image;verticalLabelPosition=bottom;labelBackgroundColor=default;verticalAlign=top;aspect=fixed;imageAspect=0;image=https://upload.wikimedia.org/wikipedia/commons/thumb/5/5c/Amazon_Lambda_architecture_logo.svg/1200px-Amazon_Lambda_architecture_logo.svg.png;" vertex="1" parent="cB-VQLEL9NJTstsM0TsG-110">
          <mxGeometry y="43" width="24" height="24" as="geometry" />
        </mxCell>
        <mxCell id="cB-VQLEL9NJTstsM0TsG-118" value="" style="shape=image;verticalLabelPosition=bottom;labelBackgroundColor=default;verticalAlign=top;aspect=fixed;imageAspect=0;image=https://upload.wikimedia.org/wikipedia/commons/thumb/5/5c/Amazon_Lambda_architecture_logo.svg/1200px-Amazon_Lambda_architecture_logo.svg.png;" vertex="1" parent="cB-VQLEL9NJTstsM0TsG-110">
          <mxGeometry y="94" width="24" height="24" as="geometry" />
        </mxCell>
        <mxCell id="cB-VQLEL9NJTstsM0TsG-119" value="" style="shape=image;verticalLabelPosition=bottom;labelBackgroundColor=default;verticalAlign=top;aspect=fixed;imageAspect=0;image=https://www.ovhcloud.com/sites/default/files/styles/text_media_horizontal/public/2021-04/K8S-logo.png;" vertex="1" parent="cB-VQLEL9NJTstsM0TsG-97">
          <mxGeometry x="46" y="72" width="26" height="26" as="geometry" />
        </mxCell>
        <mxCell id="cB-VQLEL9NJTstsM0TsG-120" value="" style="shape=image;verticalLabelPosition=bottom;labelBackgroundColor=default;verticalAlign=top;aspect=fixed;imageAspect=0;image=https://www.ovhcloud.com/sites/default/files/styles/text_media_horizontal/public/2021-04/K8S-logo.png;" vertex="1" parent="cB-VQLEL9NJTstsM0TsG-97">
          <mxGeometry x="46" y="124" width="26" height="26" as="geometry" />
        </mxCell>
        <mxCell id="cB-VQLEL9NJTstsM0TsG-121" value="" style="shape=cylinder3;whiteSpace=wrap;html=1;boundedLbl=1;backgroundOutline=1;size=4.714285714285722;" vertex="1" parent="cB-VQLEL9NJTstsM0TsG-97">
          <mxGeometry x="264" y="55" width="24" height="30" as="geometry" />
        </mxCell>
        <mxCell id="cB-VQLEL9NJTstsM0TsG-122" value="" style="shape=cylinder3;whiteSpace=wrap;html=1;boundedLbl=1;backgroundOutline=1;size=4.714285714285722;" vertex="1" parent="cB-VQLEL9NJTstsM0TsG-97">
          <mxGeometry x="338" y="55" width="24" height="30" as="geometry" />
        </mxCell>
        <mxCell id="cB-VQLEL9NJTstsM0TsG-123" value="" style="rounded=0;whiteSpace=wrap;html=1;" vertex="1" parent="cB-VQLEL9NJTstsM0TsG-97">
          <mxGeometry y="200" width="390" height="170" as="geometry" />
        </mxCell>
        <mxCell id="cB-VQLEL9NJTstsM0TsG-124" value="Region 2" style="text;html=1;strokeColor=none;fillColor=none;align=center;verticalAlign=middle;whiteSpace=wrap;rounded=0;" vertex="1" parent="cB-VQLEL9NJTstsM0TsG-97">
          <mxGeometry y="200" width="60" height="30" as="geometry" />
        </mxCell>
        <mxCell id="cB-VQLEL9NJTstsM0TsG-125" value="Service 1" style="ellipse;whiteSpace=wrap;html=1;" vertex="1" parent="cB-VQLEL9NJTstsM0TsG-97">
          <mxGeometry x="61" y="230" width="70" height="30" as="geometry" />
        </mxCell>
        <mxCell id="cB-VQLEL9NJTstsM0TsG-126" value="Service 2" style="ellipse;whiteSpace=wrap;html=1;" vertex="1" parent="cB-VQLEL9NJTstsM0TsG-97">
          <mxGeometry x="61" y="270" width="70" height="30" as="geometry" />
        </mxCell>
        <mxCell id="cB-VQLEL9NJTstsM0TsG-127" value="Service N" style="ellipse;whiteSpace=wrap;html=1;" vertex="1" parent="cB-VQLEL9NJTstsM0TsG-97">
          <mxGeometry x="61" y="320" width="70" height="30" as="geometry" />
        </mxCell>
        <mxCell id="cB-VQLEL9NJTstsM0TsG-128" value="&lt;p style=&quot;line-height: 30%;&quot;&gt;.&lt;br&gt;.&lt;br&gt;.&lt;br&gt;&lt;/p&gt;" style="text;html=1;strokeColor=none;fillColor=none;align=center;verticalAlign=middle;whiteSpace=wrap;rounded=0;" vertex="1" parent="cB-VQLEL9NJTstsM0TsG-97">
          <mxGeometry x="88" y="296" width="16" height="20" as="geometry" />
        </mxCell>
        <mxCell id="cB-VQLEL9NJTstsM0TsG-129" value="" style="shape=image;verticalLabelPosition=bottom;labelBackgroundColor=default;verticalAlign=top;aspect=fixed;imageAspect=0;image=https://www.ovhcloud.com/sites/default/files/styles/text_media_horizontal/public/2021-04/K8S-logo.png;" vertex="1" parent="cB-VQLEL9NJTstsM0TsG-97">
          <mxGeometry x="48" y="232" width="26" height="26" as="geometry" />
        </mxCell>
        <mxCell id="cB-VQLEL9NJTstsM0TsG-130" value="" style="shape=cylinder3;whiteSpace=wrap;html=1;boundedLbl=1;backgroundOutline=1;size=4.714285714285722;" vertex="1" parent="cB-VQLEL9NJTstsM0TsG-97">
          <mxGeometry x="295" y="255" width="24" height="30" as="geometry" />
        </mxCell>
        <mxCell id="cB-VQLEL9NJTstsM0TsG-131" value="..." style="text;html=1;strokeColor=none;fillColor=none;align=center;verticalAlign=middle;whiteSpace=wrap;rounded=0;" vertex="1" parent="cB-VQLEL9NJTstsM0TsG-97">
          <mxGeometry x="313" y="255" width="30" height="20" as="geometry" />
        </mxCell>
        <mxCell id="cB-VQLEL9NJTstsM0TsG-132" value="" style="shape=image;verticalLabelPosition=bottom;labelBackgroundColor=default;verticalAlign=top;aspect=fixed;imageAspect=0;image=https://seeklogo.com/images/A/aws-aurora-logo-DDA150F538-seeklogo.com.png;" vertex="1" parent="cB-VQLEL9NJTstsM0TsG-97">
          <mxGeometry x="273" y="295" width="30" height="30" as="geometry" />
        </mxCell>
        <mxCell id="cB-VQLEL9NJTstsM0TsG-133" value="" style="group" vertex="1" connectable="0" parent="cB-VQLEL9NJTstsM0TsG-97">
          <mxGeometry x="150" y="230" width="90" height="120" as="geometry" />
        </mxCell>
        <mxCell id="cB-VQLEL9NJTstsM0TsG-134" value="" style="group" vertex="1" connectable="0" parent="cB-VQLEL9NJTstsM0TsG-133">
          <mxGeometry x="20" width="70" height="120" as="geometry" />
        </mxCell>
        <mxCell id="cB-VQLEL9NJTstsM0TsG-135" value="Lambda 1" style="ellipse;whiteSpace=wrap;html=1;" vertex="1" parent="cB-VQLEL9NJTstsM0TsG-134">
          <mxGeometry width="70" height="30" as="geometry" />
        </mxCell>
        <mxCell id="cB-VQLEL9NJTstsM0TsG-136" value="Lambda 2" style="ellipse;whiteSpace=wrap;html=1;" vertex="1" parent="cB-VQLEL9NJTstsM0TsG-134">
          <mxGeometry y="40" width="70" height="30" as="geometry" />
        </mxCell>
        <mxCell id="cB-VQLEL9NJTstsM0TsG-137" value="Lambda N" style="ellipse;whiteSpace=wrap;html=1;" vertex="1" parent="cB-VQLEL9NJTstsM0TsG-134">
          <mxGeometry y="90" width="70" height="30" as="geometry" />
        </mxCell>
        <mxCell id="cB-VQLEL9NJTstsM0TsG-138" value="&lt;p style=&quot;line-height: 30%;&quot;&gt;.&lt;br&gt;.&lt;br&gt;.&lt;br&gt;&lt;/p&gt;" style="text;html=1;strokeColor=none;fillColor=none;align=center;verticalAlign=middle;whiteSpace=wrap;rounded=0;" vertex="1" parent="cB-VQLEL9NJTstsM0TsG-134">
          <mxGeometry x="27" y="66" width="16" height="20" as="geometry" />
        </mxCell>
        <mxCell id="cB-VQLEL9NJTstsM0TsG-139" value="" style="shape=image;verticalLabelPosition=bottom;labelBackgroundColor=default;verticalAlign=top;aspect=fixed;imageAspect=0;image=https://upload.wikimedia.org/wikipedia/commons/thumb/5/5c/Amazon_Lambda_architecture_logo.svg/1200px-Amazon_Lambda_architecture_logo.svg.png;" vertex="1" parent="cB-VQLEL9NJTstsM0TsG-133">
          <mxGeometry y="3" width="24" height="24" as="geometry" />
        </mxCell>
        <mxCell id="cB-VQLEL9NJTstsM0TsG-140" value="" style="shape=image;verticalLabelPosition=bottom;labelBackgroundColor=default;verticalAlign=top;aspect=fixed;imageAspect=0;image=https://upload.wikimedia.org/wikipedia/commons/thumb/5/5c/Amazon_Lambda_architecture_logo.svg/1200px-Amazon_Lambda_architecture_logo.svg.png;" vertex="1" parent="cB-VQLEL9NJTstsM0TsG-133">
          <mxGeometry y="43" width="24" height="24" as="geometry" />
        </mxCell>
        <mxCell id="cB-VQLEL9NJTstsM0TsG-141" value="" style="shape=image;verticalLabelPosition=bottom;labelBackgroundColor=default;verticalAlign=top;aspect=fixed;imageAspect=0;image=https://upload.wikimedia.org/wikipedia/commons/thumb/5/5c/Amazon_Lambda_architecture_logo.svg/1200px-Amazon_Lambda_architecture_logo.svg.png;" vertex="1" parent="cB-VQLEL9NJTstsM0TsG-133">
          <mxGeometry y="94" width="24" height="24" as="geometry" />
        </mxCell>
        <mxCell id="cB-VQLEL9NJTstsM0TsG-142" value="" style="shape=image;verticalLabelPosition=bottom;labelBackgroundColor=default;verticalAlign=top;aspect=fixed;imageAspect=0;image=https://www.ovhcloud.com/sites/default/files/styles/text_media_horizontal/public/2021-04/K8S-logo.png;" vertex="1" parent="cB-VQLEL9NJTstsM0TsG-97">
          <mxGeometry x="46" y="272" width="26" height="26" as="geometry" />
        </mxCell>
        <mxCell id="cB-VQLEL9NJTstsM0TsG-143" value="" style="shape=image;verticalLabelPosition=bottom;labelBackgroundColor=default;verticalAlign=top;aspect=fixed;imageAspect=0;image=https://www.ovhcloud.com/sites/default/files/styles/text_media_horizontal/public/2021-04/K8S-logo.png;" vertex="1" parent="cB-VQLEL9NJTstsM0TsG-97">
          <mxGeometry x="46" y="324" width="26" height="26" as="geometry" />
        </mxCell>
        <mxCell id="cB-VQLEL9NJTstsM0TsG-144" value="" style="shape=cylinder3;whiteSpace=wrap;html=1;boundedLbl=1;backgroundOutline=1;size=4.714285714285722;" vertex="1" parent="cB-VQLEL9NJTstsM0TsG-97">
          <mxGeometry x="264" y="255" width="24" height="30" as="geometry" />
        </mxCell>
        <mxCell id="cB-VQLEL9NJTstsM0TsG-145" value="" style="shape=cylinder3;whiteSpace=wrap;html=1;boundedLbl=1;backgroundOutline=1;size=4.714285714285722;" vertex="1" parent="cB-VQLEL9NJTstsM0TsG-97">
          <mxGeometry x="338" y="255" width="24" height="30" as="geometry" />
        </mxCell>
        <mxCell id="cB-VQLEL9NJTstsM0TsG-146" value="" style="group" vertex="1" connectable="0" parent="cB-VQLEL9NJTstsM0TsG-97">
          <mxGeometry x="-31" y="250" width="60" height="75" as="geometry" />
        </mxCell>
        <mxCell id="cB-VQLEL9NJTstsM0TsG-147" value="AWS API&lt;br&gt;Gateway" style="ellipse;whiteSpace=wrap;html=1;aspect=fixed;" vertex="1" parent="cB-VQLEL9NJTstsM0TsG-146">
          <mxGeometry width="60" height="60" as="geometry" />
        </mxCell>
        <mxCell id="cB-VQLEL9NJTstsM0TsG-148" value="" style="shape=image;verticalLabelPosition=bottom;labelBackgroundColor=default;verticalAlign=top;aspect=fixed;imageAspect=0;image=data:image/png,iVBORw0KGgoAAAANSUhEUgAAASsAAAEsCAYAAACboZUMAAAAAXNSR0IArs4c6QAAAARnQU1BAACxjwv8YQUAAAAJcEhZcwAADsMAAA7DAcdvqGQAAFsfSURBVHhe7b0L1HVXVaa5/yCGewiXhAQQSQQsARUEuwhCFQhYCl6gAHu0UNqWAyIXFblpiVZbpZQoYJWCINU9tICq0Vy6cDSiAwKDGoUQu7mUoIBCJyhoMKAJt3ARMb3XOvM7651zrfc96+yzv3O+P9mPQ9aZa73rnfOss/fMOef7/v8/de655147LCwsLJxwTj37YX987XDqlIUePxs0EEod4NMInY0ZUlvCrwQdhFIH9NdHzR1OF3EWQgecEmeBHKw+v4kye959nUuY5vX5eV5e0NmY4UGIgJCI6qIfN7RxhYt4ECJAvE7SwcIz8v9e235z5WeDBkKpA3waobMxQ2pL+JWgg1DqgP76qLnD6SLOQuiAa8VZIAerz2+izJ53X+cSpnl9fp6XF3Q2ZngQIiAkorroxw1tXOEiHoQIEK+TdLBw1awSxKjHJCF1gE8jdDZmdnySCakD+uuj5g55wzkLoQOWhtVmaVhGSER10Y8b2rjCRTwIESBeJ+kwhqVZJYjRJpMjpA7waYTOxswOT/IIqQP666PmDnnDOQuhA5aG1WZpWEZIRHXRjxvauMJFPAgRIF4n5eCbVYIYKRMMpQ7waYTOxszEJ4mh1AH99VFzh7zhnIXQAUvDarM0LCMkorroxw1tXOEiHoQIEK8Tc6ibVYIYMZMMhFIH+DRCZ2NmwpPMQCh1QH991NwhbzhnIXTA0rDaLA3LCImoLvpxQxtXuIgHIQLE69RyaDerBDFqmayBUOoAn0bobMxs+STXQCh1QH991NwhbzhnIXTA0rDaLA3LCImoLvpxQxtXuIgHIQLE6xQdzuDSEWIUTRwQSh3g0widjZktnqQDQqkD+uuj5g55wzkLoQOWhtVmaVhGSER10Y8b2rjCRTwIESBeJ1zJ76y4dIQY+dmggVDqAJ9G6GzMdD7Jyg9CqQP666PmDnnDOQuhA5aG1WZpWEZIRHXRjxvauMJFPAgRIF6no5X1x0AuHSFGfjZoIJQ6wKcROhszHU9yRdBBKHVAf33U3CFvOGchdMDSsNosDcsIiagu+nFDG1e4iAchAsTrlFbGZlUEXDpCjPxs0EAodYBPI3Q2ZjY8yULQQSh1QH991NwhbzhnIXTA0rDaLA3LCImoLvpxQxtXuIgHIQLE62TvrIqAS0eIkZ8NGgilDvBphM7GjHiSfiXoIJQ6oL8+au6QN5yzEDpgaVhtloZlhERUF/24oY0rXMSDEAEkEfw0sAioSYIY+dmggVDqAJ9G6GzM8NPUeSGUOqC/PmrukDecsxA6YGlYbZaGZYREVBf9uKGNK1zEgxABjUTQrBJFQE0SpGI/GzQQSh3g0widjRl+mjovhFIH9NdHzR3yhnMWQgcsDavN0rCMkIjqoh83tHGFi3gQIiAkOqNWlglqkiAV+9mggVDqAJ9G6GzM8NPUeSGUOqC/PmrukDecsxA6YGlYbZaGZYREVBf9uKGNK1zEgxABkGj1zqpSlglqkiAV+9mggVDqAJ9G6GzM8NPUeSGUOqC/PmrukDecsxA6YGlYbZaGZYREVBf9uKGNK1zEgxABlqh8DKyUZYKaJEjFfjZoIJQ6wKcROhsz/DR1XgilDuivj5o75A3nLIQOWBpWm6VhGSER1UU/bmjjChfxIETAmMj/BnulLBPUJEEq9rNBA6HUAT6N0NmY4aep80IodUB/fdTcIW84ZyF0wNKw2iwNywiJqC76cUMbV7iIByEq5HdWYt9ImWAmGVKxnw0aCKUO8GmEzsYMP02dF0KpA/rro+YOecM5C6EDlobVZmlYRkhEddGPG9q4wkU8CNGK9cdAsW+kTLRM1pCK/WzQQCh1gE8jdDZm+GnqvBBKHdBfHzV3yBvOWQgdsDSsNkvDMkIiqot+3NDGFS7iQYhysypTYt8I0UVIxX42aCCUOsCnETobM/w0dV4IpQ7or4+aO+QN5yyEDlgaVpulYRkhEdVFP25o4woX8cBF9s6qTIl9I0QXIRX72aCBUOoAn0bobMzw09R5IZQ6oL8+au6QN5yzEDpgaVhtloZlhERUF/24oY0rXMSDdVR+GggCsW+E6CKkYj8bNBBKHeDTCJ2NGX6aOi+EUgf010fNHfKGcxZCBywNq83SsIyQiOqiHze0cYWLeJAjaFaJIhD7RoguQir2s0EDodQBPo3Q2Zjhp6nzQih1QH991NwhbzhnIXTA0rDaLA3LCImoLvpxQxtXuIgHsVklikDsGyG6CKnYzwYNhFIH+DRCZ2OGn6bOC6HUAf31UXOHvOGchdABS8NqszQsIySiuujHDW1c4SISNJpVogi4SYLoIqRiPxs0EEod4NMInY0Zfpo6L4RSB/TXR80d8oZzFkIHLA2rzdKwjJCI6qIfN7RxhYsaAWlWiaLmJgmii5CK/WzQQCh1gE8jdDZm+GnqvBBKHdBfHzV3yBvOWQgdsDSsNkvDMkIiqot+3NDGFS4KwRn6NSiL3CRBdBGSzM8GDYRSB/g0QmdjRhyEXwk6CKUO6K+PmjvkDecshA5YGlabpWEZIRHVRT9uaOMKF0GQ31np16AsMpMVRBchyfxs0EAodYBPI3Q2ZsRB+JWgg1DqgP76qLlD3nDOQuiApWG1WRqWERJRXfTjhjaucJEF64+B+jUoiy2TAtFFSDI/GzQQSh3g0widjRlxEH4l6CCUOqC/PmrukDecsxA6YGlYbZaGZYREVBf9uKGNK1w0BmOzKlP6NQCdjZlqD9FFSDI/GzQQSh3g0widjRlxEH4l6CCUOqC/PmrukDecsxA6YGlYbZaGZYREVBf9uKGNKzCyd1ZlSr8GoLMxU+0hughJ5meDBkKpA3waobMxIw7CrwQdhFIH9NdHzR3yhnMWQgcsDavN0rCMkIjqoh83tHHFUQQ/DSwC/RqAzsZMtYfoIiSZnw0aCKUO8GmEzsaMOAi/EnQQSh3QXx81d8gbzlkIHbA0rDZLwzJCIqqLftzQxhUpgmaVKAL9GoDOxky1h+giJJmfDRoIpQ7waYTOxow4CL8SdBBKHdBfHzV3yBvOWQgdsDSsNkvDMkIiqot+3NDGFaFZJYpAvwagszFT7SG6CEnmZ4MGQqkDfBqhszEjDsKvBB2EUgf010fNHfKGcxZCBywNq83SsIyQiOqiHze0sdmsEkWgXwPQ2Zip9hBdhCTzs0EDodQBPo3Q2ZgRB+FXgg5CqQP666PmDnnDOQuhA5aG1WZpWEZIRHXRjxvm/yXNKlF26tcAdDZmqj1EFyHJ/GzQQCh1gE8jdDZmxEH4laCDUOqA/vqouUPecM5C6IClYbVZGpYRElFd9OOG4e9gryir+jUAnY2Zag/RRUgyPxs0EEod4NMInY0ZcRB+JegglDqgvz5q7pA3nLMQOmBpWG2WhmWERFQX/Ygwv7PiJomyql8D0NmYqfYQXYQk87NBA6HUAT6N0NmYEQfhV4IOQqkD+uuj5g55wzkLoQOWhtVmaVhGSER10a8hXH8M5CaJsqpfA9DZmKn2EF2EJPOzQQOh1AE+jdDZmBEH4VeCDkKpA/rro+YOecM5C6EDlobVZmlYRkhEddEvCM/AGW6SAJ0UEr9qD9FFSDI/GzQQSh3g0widjRlxEH4l6CCUOqC/PmrukDecsxA6YGlYbZaGZYREVBf9IFy9s4IZbpIAnRQSv2oP0UVIMj8bNBBKHeDTCJ2NGXEQfiXoIJQ6oL8+au6QN5yzEDpgaVhtloZlhERUF/0sLD8NBCNukgCdFBK/ag/RRUgyPxs0EEod4NMInY0ZcRB+JegglDqgvz5q7pA3nLMQOmBpWG2WhmWERFQX/cbQ/+oCGHGTBOikkPhVe4guQpL52aCBUOoAn0bobMyIg/ArQQeh1AH99VFzh7zhnIXQAUvDarM0LCMkorqw4ptVAoy4SQJ0Ukj8qj1EFyHJ/GzQQCh1gE8jdDZmxEH4laCDUOqA/vqouUPecM5C6IClYbVZGpYRElEdrNTNKgFG3CQBOikkftUeoouQZH42aCCUOsCnETobM+Ig/ErQQSh1QH991NwhbzhnIXTA0rDaLA3LCImozlbazSoBRtwkATopJH7VHqKLkGR+NmgglDrApxE6GzPiIPxK0EEodUB/fdTcIW84ZyF0wNKw2iwNywiJqG5c0b/BDkZSB6v6NSB+1R6ii5BkfjZoIJQ6wKcROhsz4iD8StBBKHVAf33U3CFvOGchdMDSsNosDcsIiZguv7OiJgkwkjpY1a8B8av2EF2EJPOzQQOh1AE+jdDZmBEH4VeCDkKpA/rro+YOecM5C6EDlobVZmlYRkjU0q0/BlKTBBhJHazq14D4VXuILkKS+dmggVDqAJ9G6GzMiIPwK0EHodQB/fVRc4e84ZyF0AFLw2qzNCwjJIq6sVmVKWqSACOpQz9taGPwq/YQXYQk87NBA6HUAT6N0NmYEQfhV4IOQqkD+uuj5g55wzkLoQOWhtVmaVhGSISRvbMqU9QkAUZSh37a0MbgV+0hughJ5meDBkKpA3waobMxIw7CrwQdhFIH9NdHzR3yhnMWQgcsDavN0rCMkOgogp8GFgE1SYCR1KGfNrQx+FV7iC5CkvnZoIFQ6gCfRuhszIiD8CtBB6HUAf31UXOHvOGchdABS8NqszQsIyRKETSrRBFQkwQYSR36aUMbg1+1h+giJJmfDRoIpQ7waYTOxow4CL9Sohvd9IzhRjcpLxXTRfrrgzUu87qIsxA6YGlYbZaGZYREp37ywe+5djhl0ZoyUS0hpzp16KcNbQx+1R6ii5BkfjZoIJQ6wKcROhsz4iCOVu71kLOGB//ArYdbnnPDHH/qE18efu9lnxw++Iefy7F3EH4+sY01p3CNy7wu4iyEDjilL4o1c9d3t//pJsNDf/iWw1m3/aocf/qTfz+88/WfG9731muGL17zD3kucZ0/lzDN6/PzvLygszHDgxABlmjVrPKj/L9AmaAmCahY6tBPG9oY/Ko9RBchyfxs0EAodYBPI3Q2Zhq1pXdR9x6b1EXfd/a6SUX+yy9csTSshCxBLo6N6sbDo599W5vwfOnz/zD8v2PTeufvfnbdtK7z5xKmeX1+npcXdDZmeBAiYExUmlWiUpYJapKAiqUO/bShjcGv2kN0EZLMzwYNhFIH+DRCZ2PGNqUmddH33Wq46HvPzo8V6R3WC374IxbFTCKvT2xjzc4XfsJZCB2wz4b1lJedv35HxYhN6zp/LmGa1+fneXlBZ2OGByEq+N9grz48lolqCYHPllKHftrQxuBX7SG6CEnmZ4MGQqkDfBqhszGRvot68A/cZnjGb104PPh/ufXGRpXI77jAxGcSed2S0HFzh/wOxlkIHbDP77A2NarEmeNr84Dvv8Xw5N88bxzPGs68KdxGE/Pi0ok7lzDN6/PzvLygszHDgxAV8p0h9o2UCWaSgYqlDv20oY3Br9pDdBGSzM8GDYRSB/g0XHfmTW+walK/3d+kKo6xvp0v/ISzEDpgr1+6d4JN69vGcf1aTc3rSu+rb2lY8NNAsW+kTLRM1kDFUod+2tDG4FftIboISeZngwZCqQN8Gq+70dikvn1sUs9MTWocJzUpZOb6kJ0v/ISzEDrgJDasxFHTetJv3i6P+bWbmteV3lff9b1hudMW+0aILgIVSx36aUMbg1+1h+giJJmfDRoIpQ7waa4dzj73hsPDn3jufE0KmaE+xs4XfsJZCB1wUhtWIjWt9A7raa84f3jEU28lP1KetucSpnl9fp6XF3Q2ZnjgIrtjypTYN0J0EahY6tBPG9oY/Ko9RBchyfxs0EAodUBKk5rUP//J8/N3Uj1fnvczT30FoePmDnnDOQuhA05ywzring+6yfCkl95ueMRTxqZ1TrtpnbbnEqZ5fX6elxd0NmZ4sI7gzikCsW+E6CJQsdShnza0MfhVe4guQpL52aCBUOpGUpN69NNTk/q6/KsIx8P0+o7wxyB03NwhbzhnIXTA6dCwErlpvWRsWumdVqNpnbbnEqZ5fX6elxd0NmZ4kKPwn/kiEPtGiC4CFUsd+mlDG4NftYfoIiSZnw0aCFu6oyb1zN8+ziaFbFdfC38MQsfNHfKGcxZCB5wuDStxz3/Km9Zpey5hmtfn53l5QWdjhgexWSWKQOwbIboIVCx16KcNbQx+1R6ii5BkfjZoIDx6uGpS583SpNLvUW1i2/pWBB3gj0HouLlD3nDOQuiAuW/MTaTfZt8F1rRO+rnQvGGa1+fneXlBZ2OGBOQLlCLgJgmii0DFUod+2tDG4FftIboISeZng8bC8y64kb2TusvYpG65mpzIxy//0vB//erHh1/5octsRtNTX0LqAH8MQsfNHfKGcxZCB+yzYb3oCVcMr3/R387WtB797FsPX3P3M/PcST8XmjdM8/r8PC8v6GzMNIJTT3vwu6kV/i6p+IXTEaKLwK+6Sh36aUMbg1+1h+giJJmfXUUXfONNh4c8/rbDne95kxzvwkf++PPDW/7z3wwfed/nbWYYfvH3vt4etXnOw//MHrXrWwOh1AH+GISOmzvkb2o7C6ED5viN7ue87k72qM0vPvKjqwfjvm988E2Hb3rQzdbNZhc++v4vDW971WfyeBLPBaF5wzSvz8/z8oLOxgwEp37iQe++Vj/HsshMVhBdBJJJHfppQxuDX7WH6CIk2dHsqkmdM2OT+uTYpL5gM4VtmlXCVx2eA4RSB/hjEDpu7pA3nLMQOmDXG7O7WSVs353ucaPhgd9/1qxN62Pv/zubaeBK73y+O55LhOYN07w+P8/LCzobMxbkZpUfUJNEWWyZFIguAsmkDv20oY3Br9pDdJFGstSkHprfSd3UZqaTm9QrxyY1jgWfc9tmlfAO4TlAKHWAPwah4+YOecM5C6EDdrkxt2pWCbD42rFppT9+M1fT+oNXfTaPTVzpnc93h3NpQfOGaV6fn+flBZ2NmTFYN6uEfo5lMZp4iC4CyaQO/bShjcGv2kN0EUt29HHvghmb1OXwcc8/pxJMaVYJ/5zCM4RQ6gBWX2TnCz/hLIQOmHpjbt2sEqG+O93jzP00rZC3h+tiwxqb1bvGZlWm9HMEnY2Zag/RRSCZ1KGfNrQx+FV7iA64+0W3GO7/qFvP0qQ+cOlnh3f8zlWuSSH+Oa2Cqc0q4Z9TeIYQSh3Qqq/Fzhd+wlkIHTDlxnzO70xoVolGfXM3rT9+6+fz/zsaeTdxXWtY1qzyw9Uwop8j6GzMVHuILgLJpA79tKGNwa/a09Z9y8POzt9JnU3+LqlteM+bP5XfSV195dGvIlRFrPHP6dTmZvVdfxo3OfxK0EEodUCsj7HzhZ9wFkIHbHtjTm5WCVLfuXe+4fCtj7j5cM8H7f4fuE9/8ivjO63P+KZF8iquSw2r/Rvs5WED0NmYqfYQXQSSSR36aUMbg1+1x+tSk3r2K+42PObpt9+5Ub3nkk8Nv/xDHx5e84IrhqvWjSpRFbHGPyeuc4iD8CtBB6HUAb317fzj8YSzEDpg0o/vBVPqu/IjXx5e/+tXDS+++ONjk7nGZqdx1m1vMDz8KWcPP/rS2+Xfjs+QvIrr0q818N9gpyYJ0NmYqfYQXQSSSR36aUMbg1+159rhPmOT+qk5m9QPrprU1X9dmpRPywvvvK48YpPMC6HUAT6V0HFzh7zhnIXQASehYSU+/Ym/P76mJfIyrisNS/8GOzVJgM7GTLWH6CKQTOrQTxvaGPwsWDWpr5+xSX1obFJ/BR/5RiCxL9VHSOd1FZ6T8LNxRdBBKHWATyV03NwhbzhnIXRA743Zyy71HVvT+qfl12bmPhfnJ7bQvGGa1+fneXllYfNvsFOTBOhszFR7iC4CyaQO/bShjeVRblIvT03qDjs3qXePTep5Y5N6tWtSoSAI/UrQAZ3XlXcQm2ReCKUO8KmEjps75A3nLIQOOEkNK3EsTesl5ePh3Ofi/MQWmjdM8/r8PC9vtQBfsLcoX3Lp7+lAZ2Om2kN0EUgmdegnhDe+2VcN3/bI2wwPeFT6GzlvYLPT+OI1Xxn+4HVXDW//nb8dvvC5r9jsCl9CKAhCqTOe+/v/yB61+Zn0BbvhHMRByLwQSh3gUwkdN3fIL42dhdAB6svln/2dr7VHbX7hkX9hjwpz1Zf+mqD7PuLmw7d+983y3421C+nviX/n714zvOsNnxu+dI24lYHT9Uv3M3RXLmu6KYPOxky1h+gikEzq0K8hvPHNbjA89PHnDj/9iruN4zk7NarUpN78yk8Mz/sXHxre/Iorq0aV8CWEgiCUugk4B/FCybwQSh3gUwkdN3fIa9FZCB1w0t5hHZH+8Ym3verTw4uf+PH8E7/UcKaS/yLAx958fKd17nD/cTyz4+9LO13fYeVnpg+3rOnnCDobM9UeootAMqlDP3tYmtTX53G+JvWJ0qTIYfjZoIFQ6ibgHMQLJfNCKHWATyV03Nwhr0VnIXTASW1YidS0/vvYtH7jiX89Y9M6J4+bmtbp2LDWz0gfblnTzxF0NmaqPUQXgWRSZ6vH0aR+KTYphByGnw0aCKVuAs5BvFAyL4RSB/hUQsfNHfJadBZCB0xqWHus7wvjtZb+nOBcTSu9w+ppWqdbwzoD1/XhljX9HEFnY6baQ3QRSKZ06e+TetpL7zJjk/qz4RJrUr31IX42aCCUugk4B/FCybwQSh3gUwkdN3fIa9FZCB1w0htW0q0+HlrTevU8TeuHn3/b4axz+P1wOjWsVduFCX24ZU0/R9DZmKn2EF0EkjHd//ysO44N66st2p7007zXPP8vh3/9qA+MTeroO6nt60P8bNBAKHUUrnMr4oWSeSGUOsCnEjpu7pDXorMQOuB0aFiJ3LT+z88ML3z8FcMbXnR1/m32qdzCfnqoOF0aVnmPCOv6cMuafo6gszFT7SG6CCRr6S74xpvZo+1ITerVY5P6pcf/6fCuN109S32Inw0aCKWOwnVuRbxQMi+EUgf4VELHzR3yWnQWQgfs7cZMOItped/31muG37j44zs1rTt+w+b/iJ8ODct/oIV1fbhlTT9H0NmYqfYQXQSSSV0HV1/5d2OT+tjw76xJOb/KvDMvOQw/GzQQSm8K3+VWxAvlV4IOQqkDfCqh4+YOeS06C6EDTreGlZijaW3ipDes+ts3WNeHW9b0cwSdjZlqD9FFIJnUEWKTonkr88685DD8bNBAKL0Bn4bv8rJOXfSDUOqA/vqouUNei85C6CZwqPpY3qlNqzuvuEaQnc8lTPP6ynz7RwWwTz/JsqafI+hszFR7iC4CyaQOqJsUQvwq88685DD8bNBAKL2B/oYAiBfKrwQdhFIH9NdHzR3yWnQWQjeBQ9Wn8mLT+sSf4x+W53TnFdcIsvO5hGle32q+3awSsE8/ybKmnyPobMxUe4guAsmkznju4/50eOcbY5NCiF9l3pmXHIafDRpp2Ka/IQDihfIrQQeh1AH99VFzh7wWnYXQTeBQ9W3Km5rW//H0Ky3aTHdecY0gO59LmOb1XbvhN9hhST/JsqafI+hszFR7iC7SeaDISajPzwaNNGzj03ADL+vUifqkDuivj5o75rlmt+dQ9fXmlUzJq2+WNTufS5hmuvzOShYPS/pJljX9HEFnY6baQ3SRzgN1ftrQxpC32kN0EZLMzwaNNGzj03ADL+vUifqkDuivj5o75rlmt+dQ9fXmlUzJq2+WNTufS5hu6dYfA2XxsKSfZFnTzxF0NmaqPUQX6TxQ56cNbQx5qz1EFyHJ/Kx06MKn4X5e1qmLfhBKHdBfHzV3zHPNbs+h6uvNK5mSV98sa3Y+lzAdde47K1k8LOknWdb0cwSdjZlqD9FNBvykIclb7SG6CEnmZ6VDF/0NARAH4VeCDkKpA/rro+aOea7Z7TlUfb15JVPy6ptlzc7nEqZRV33BLouHJf0ky5p+jqCzMVPtIbrJgJ80JHmrPUQXIcn8rHQAuK6/IQDiIPxK0EEodUB/fdTcMc81uz2Hqq83r2RKXn2zrNn5XML0ka7500BZPCzpJ1nW9HMEnY2Zag/RTQb8pCHJW+0hughJ5melA8B1/Q0BEAfhV4IOQqkD+uuj5o55rtnC3m7MhLOYN69kSt59nUuYTrpms0rI4l0dQgdr+jmCzsZMtYfoJgN+0pDkrfYQXYQkk3sofJdPI3Q2ZsRB+JWgg1DqgP76qLljnmu2cFo1rKlMybuvcwnT7m9diMjiYUk/ybKmnyPobMxUe4huMuAnDUneag/RRUgyuQfwOr7LpxE6GzPiIPxK0EEodUB/fdTc0XvN9nJdaViz593XucD06p3VFJMELOknWdb0cwSdjZlqD9EJtA78pJDkrfYQXYQkk3sAr+O7fBqhszEjDsKvBB2EUgf010fNHb3XbC9Lw2qz74ZVPgZOMUnAkn6SZU0/R9DZmKn2EJ1A68BPCkneag/RRTpfcIbfzb18GqGzMSNq8ytBB6HUAf31UXNH7zXby0lvWL3MnXefDcv/BvsUk4SzEDpY088RdDZmqj3SpIneAXmlEHQ2Zqo9RBfpfMEdsMXv5l4+jdDZmBG1+ZWgg1DqgP76qLlDX4vbszSsNvs6l/zOaleTjLMQOljTzxF0NmaqPdKkAMn0DtBJIfGr9hBdpPMFd8AWv5t7+TRCZ2NG1OZXgg5CqQP666PmDn0tbs/SsNrs41zWHwN3MVnjLIQO1vRzBJ2NmWqPNClAMr0DdFJI/Ko9RBfpfMEdsMXv5l4+jdDZmBG1+ZWgg1DqgP76qLlDX4vbszSsNsd9Lu5XF6aaOJyF0MGafo6gszEj9wggmbYAnRQSv2oP0UU6X3AHbPG7uZdPI3Q2ZkRtfiXoIJQ6oL8+au7Q1+L2LA2rzXGei2tWiSkmFc5C6GBNP0fQ2ZiRewSQTFuATgqJX7WH6CJdL3jQQOhXuJdPI3Q2ZkRtfiXoIJQ6oL8+au7Q1+L2nFYNa495j+tcTj31n/w/TdnO/xprwlkIHazpfywWdDZmxuAFb76XBW2e8ZA/skcAJJNpZ6jPQ3TAL73xHvZoGj/9nR8I3izTuDIu/eLv6X8BOvKch/+ZPapp5f23b7hrHnv5uUd82B6t6iu0n8fPv/7r7NE8/Pz3Xj5maueK7O1fOE44ixL8q/96R3vU5t896i9XD2bOq5j7XKp3Vkds2/WaOAuhgzXdlEFnY0buEUAybQE6KSR+1R6imxnvzTN1/ofQIzb15u3Fp9rdrxd9zRaWd1ht5j4X2qwSvSbzPMmypp8j6GzcCUim/UAnhcSv2kN0M+O9Z84kDmLuvD7VzM9DcKgbc557qnCwvDOei2xWif0+ybI2qSEItF2vH+i0oY3Br9pDdHMAht575kziIOZ+Tj7V3O4BsD/EjZmY554qHCzvTOeysVkl9vsky9qkhiDQdr1+oNOGNga/ag/RzQEYeu/dMzkHcRC7Z/L4VHO7B8B+3zfmEb33VC9z593nuZxxMv9rUNZ0eXKxibaDvDa2AZ02tDH4VXuIbg7A0Hvvnsk5iIOYlkn4+cQ2HhNgv88bE+m9p3qZO+++ziW/s7p+NCzws7EJJNPOoNOGNga/ag/RzQEYeu/dMzmHzuuoH+7nU82dNwD2+7oxI733VC9z593Huaw/Bi4NC4Bk2hl02tDG4FftkSZbErwg9Cu753QOnddRP9xv9lQKyLWPG7NFb95eZsnrLPrqm3oup57ywD90O0/C74zUlDVW3gvfcm971ObpD/kf9igBfjY2gWRS11HfCuJX7Tk1PG/D71n91Hf8CU3mZ4MGQqkDfBqhszEjDsKvBB2EUgf011fW/rfXX2iP2vz891xujwJgr6/Zwj7uqZ953dfYozbPfdTH7FHNLnnXOAuhA7Y9l+oL9tP7HVYv4GdjE0im04JOG9oY/Ko90qRAkvnZoIFQ6gCfRuhszIiD8CtBB6HUAf318bVuwKLXb3mH1Wbbc2n+NPA62bCqPeBnYxNIptOCThvaGPy0OYck87NBA6HUAT6N0NmYEQfhV4IOQqkD+uvja8g812xhaVhttjkX+qsLS8MCIJlOCzptaGPw0+YckszPBg2EUgf4NEJnY0YchF8JOgilDuivj68h81yzhaVhtek9F9qsEkvDAiCZTgs6bWhj8NPmHJLMzwYNhFIH+DRCZ2NGHIRfCToIpQ7ora+XQ92Ys9xTwCTd1LzOojNvx7nIZpW4rjQsJ6v2gJ+NTSCZ1KGfNrQx+GlzDknmZ4MGQqkDfBqhszEjDsKvBB2EUgf01tfLIW7MxCz3FDBJNzWvs+jMu+FcNjarxNKwAEgmdeinDW3c5NcJSeZngwZCqQN8GqGzMSMOwq8EHYRSB/TW18u+b8wjeu+pXrrr68y7z3Pxfwe74KQ3rF7cjmp7mZDOcBZSh37a0MZNfgVt1171s0EDodQBPo3Q2ZgRB+FXgg5CqQN66+tlnmu2sNeGNaU+v4myr3PJ76x2NYns90mqNaTo3I5qO9FF4CykDv20oY2b/Ararr3qZ4MGQqkDfBqhszEjDsKvBB2EUgf01tfLPNdsYWlYbVrnsv4YuItJi/0+SbWGFJ3bUW0nugichdShnza0sR9t1171s0EDodQBPo3Q2ZgRB+FXgg5CqQN663MI2TzXbGFpWG3iubh/kXmqCeNQT1JTPJxbZU10ETgLqUM/bWjjJjrzkmR+NmgglDrApxE6GzPiIPxK0EEodUBvfQ4hm/uaXRpWGzyX1TurHU0Uh3qSmuLh3CproovAWUgd+mlDGzfRmZck87NBA6HUAT6N0NmYEQfhV4IOQqkD9JkTxJ65r9mlYbU5Opfy08AdTDZxqCepKR7OrbImugichdShnxZ20pmXJPOzQQOh1AE+jdDZmBEH4VeCDkKpA3rP/FDX7NKw2qRz8b+6MNGkh0M9SU3xcG6VNdFF4CykDv20sJPOvCSZnw0aCKUO8GmEzsaMOAi/EnQQSh3Qe+aHumYn3VNTmVKf30SZ+1x8s0pMMFkaFgBnIXXop4Vtqj2deUkyPxs0EEod4NMInY0ZcRB+JegglLoJHOqanbthzV6f30SZM2/drBJbmiROesPS5ZVFJ6v2EF0Ekkkd+mlhm2pPZ16SzM8GDYRSBxylOfvcGw7P/O0Lh2//gdvkxxHnIA5C5oVQ6iZwuGu2U9frp3RT6vObKHPlbTerxBYmRywNC4BkUod+Wtim2tOZlyTzs0EDodQBKc0/ut/Nh1uec8PhwWOzesZvXTg85UV3Hi76vlu5xuUcxEHIvBBK3QQOd8326XqZvT6/iTJHXv0b7J0myKEaVi+6vLLoZNUeootAMqlDPy1c42TVHvCzsQlJ5meDBkKpA+79kLPs0YrzLjhzePgTzlk3rns/dLXuHMRByLwQSt0E5r5m576nepm9Pr+Jsmve/M5q9uI7D3fuJ6kpQl0e6GzMVHuILgLJpA79tHCNk1V7wM/GJiSZnw0aCKVuJL17Ou+CG1lUkxrXne95E4uCgzgImRdCqZvA3Nfs3PdUL7PX5zdRdsm7/hg4e/Gdhzv3k9QUoS4PdDZmqj1EF4FkUrdhtYXbUW3vzEsOw88GDYRKd//x494mPnjp5+zRCucgXiiVF0Opo3Dd3Nfs3PdUL7PX5zdRpuZ131nNXnzn4c7yJLspHro80NmYqfYQXQSSSd2G1QLxq7YTXYQchp8NGgiZ7hsuurk9avPFa/5h+MCln7Wo4PzEC8XyZiCUOgrXzXLNOguhA67PDav6gn324jsPd5Yn2U3x0OWBzsZMtYfoIpBM6jasFohftZ3oImN9N77ZDSwo+D3BAcKoSx//0hfrilajOuLMm0It4oWaVl8vKm+f+aHuKcc+6/ObKNvmbf40cPbiOw93lifZTfHQ5YHOxky1h+gikEzquiF+lfnmvN/2yFsPz/5PdxnOv7D+jsnvCQ4Q4sq32Bfnig/mZlVXlBpd+nWH++HHyD02LJ+K75rlmnUWQgdcHxtWs1klZi++83BneZLdFA9dHuhszFR7iC4CyaSuG+JXmfO8j3nGHYZHXHzecKPx3cxjnn77Wd5hbfcRsBikGh73c7cfxzPyTw0f9ZPn2cqIeKH8StBByB08PhXfNcs16yyEDri+NSz3ty5EZi++83BneZLdFA9dHuhszFR7iC4CyaSuG+JXmXtdakpP+JU7j++CbrmaHEnvap7wy19rkcfbBXMIb9f5ETA2hNSofuR5X+P2pl99+JfjXFrLiBeqt75eYn2MWa5ZZyF0wF7vKWex/7yrd1Y7miS6i9/n4QJaV9Z0eaCzMVPtIboIJJO6bohfZb6aOPvcr86N6oJvvGmOkdSw0jusFt4umFuIzY/x9tddlUc884c/8Zz86wyR9OsNqWGtf5FUvFA99W2DT6XywprII69FZyF0wPWlYZWPgTuYHNFd/D4PF9C6sqbLA52NmWoP0UUgmdR1Q/yC+fkXnjn8xEsuzE2JkRrOQx53W4s83i6Yj+HdN3wE/NQnvjx8/PIvWjRuGfd8+w/ctvoFUiQ1sSe/6M6lZvFCbapvW3wqlRfWRB55LToLoZvAoeqbI6//DfaJJt5C6IC5G1Yvur6ypssDnY2Zag/RRSCZ1AG71Hefh509PPFXLigfqwQPedw59F2SL6FE513Y8RHwHf6ngOm32NMfx9lE+h4rvcM6+q13dRCsvqn4VCovrIm0c99TvRyqvl3z5ndWByte33FreuuTdNdX1nZpCAWii0AyqQOm1Pdtj7zN+PHuDl2NykGS+dlV1PMR8N2XfNoebU9qWI962nmluYmDaNW3Cz6VygtrIu3c91Qvh6pvl7zrj4EHK17fcWt665N011fWpjSE2proIp1ngWxT32OfeYfhuy+Gn6xt4IvXfGV42TM/Mrz7TVevJkgyP3tt50fAL1i04j1j8/rfn/0X+SeEvaRm9c+PflIoDiLW14fwc0sqL6yJtHPfU70cqr6ped2vLhys+M6btLc+SXd9ZW2bhrCm2kN0kc6zcH7aMP/E7+LnXzC+4znb5jZz9dhQUqO6/H3X2IxBkh3NbvcR0Htd/r7PD//xWX+Rm1kv93rIWfkPQ+d3iuIg/ArXeYSfW1J5YU2knfue6uVQ9U3J65pV4mDFd96kvfVJuusra5sawhFOVu0hukjnWTg/suX8C2+cG1XrJ36M9MX3f/jR/2+44rLyBbiDJEuzPR8B33XJp+xRwnul3L/2pI+4L983cbsLzsy/7pC/eBdnx1cUws8tqbywJoqY+57q5VD1bZu3alaJgxXfeZP21ifprq+s6fJAZ2Om2kN0kwG/YHjUqNRP/CLvvuTq4TfHd1Rf+NxXdH3kML7holvYozZHPwX0u32UPn7+x2d9dHjPm/u/10oNK33xPlfDUvUhPpXKC2tc5nURZyF0EzhUfdvkbTarxMGK1x1hTW99ku76ypouD3Q2Zqo9RDcZ8LOH6Sd+P/GSu2z1RfofvO5vhlc//y/HRvX3NrOhvnAY6Y/pnL3hI+D74aeAfrePUsN67QuuGN7yn//GZjaTvnh/8ou+dvWTQvFCyecEqPoQn0rlhTUu87qIsxC6CRyqvt68tFklDla87ghrev0k3fWVNV0e6GzMVHuIbjLF5aGPP3d47DPuaFEfrxmb1Otf+nGLEp31wWH0/RRw/AgIht67zvSWV35yeO0Lr7Coj/STwoc/8VxX21Q21XfESW9Yc78JmL0+v6mJbFaJgxU/5XAF89RX1nR5oLMxU+0huslcOzzgUbfJzaqX9A7mN595+fCu9BO/qfXZYXR9BDz6HgwMvXedKf2k8Nef/JGtflJ4v+89e/WrDZ3XUcUW9R3hUwkdN3fMc80WTveGtbFZJQ5W/JTDFcxTX1nT5YHOxky1h+gm8rB/0d+orr7yy8NLn3H5cNl74Sd+E+u7+/1u3vER8DP2yABD711nSt9zpZ8UbvPFe/p73jPXg4bVy+ncsPTfwQ4crPipFxphnvrK2qEaVkuX/qxf73dU6ab/9z/6ofVP/Hatb9O7qkT+CBgdIPQrdaZVw/pod8NK32H1/NEcyRb1HbE0LMBZ7JY3v7Pa1SQye/FLw2oSdekjXS/pDwSn5kbzVkUQnbHpF0HT722tPwJGBwj9Sp2p1N3HVeO7xzVLw1pzOjas9cfAXUxazF789axh9YI70q8bXH3l31mkSe/A0k8L008Np9SHS3cf31Vtekf3gfEjoLcL5hAyXfop31NfnH4BtOvbi/wdWWrgzq/7Ogo6CP0K99trw5rA6daw3N9nNdWEMXvxS8MqQDLc8apf+Zg96iP91HD1hXzbT9V39Kj/I2C0C+YQRt23P+62w6N/8nyL+3jtC8tPN51f93XUXx/DpxI6bu7ovVd6OZ0a1uo/UTuaqC2zF999ofUxT31lTZcHOhsz1R5pUoBkR48ue+/nhpc+47KtPhKmZvX9z0y/6lD7ZapyvK7nIyD+Nry3C+YQHj189NPPz/+acy/pp4YvesqfDx953+dtZkXI1Mnm+lZw96VhAc5iu7zl/fQOJhmxZfbipzSsY6+vrM3TsDohDeslT7+s+yNhIv25wae99K7DjW/WvCQa9a0mej4Cvv11f2uPCt4umFuYfJ/64guGez9k8+9vHZG+fE9/IJp9CV89DUJPfQmpA5aGBTiL/rz+w/9EkzViy+zFLw2r0GhYV1z2heFXL/7QcEX42w0U6SdnFz//QvcPRuj60t+wsPkj4PvfHn5lwfB2Pkq1POGX77TVHxVaNaqjnxZWxa7hKx5VH4ZSBywNC3AWfXnrbyonmByq+KVhAY2Glb5wf+n4Dutdb1r99cE9rBrWBd0Na9NHwNQ48js8chh+dhWlv7kh/R3w2zSq9OcI0y+OpudcaOfchlZ9ayCUOsAfg9Bxc0f3vdKr67ynZqnPWWzOWzerxJYmiUMUnziZh1vWdHmgszEj9wgg2dGjdPOmL90vecWVNrOZ8pPC8vGrVV/PR8B3H/1dWAlyGDib/vmuHxs/+vX+xC+R/vxg+nOER/g07Zzb4B2CH4RSB/TWN8s1C3Tr9EW7Zpb6nIXOy6+ILUyO2HfxR1wnG9ZUIBn6venlfz3pJ4Xf86PlL+tz9Y1B10fA8NcXs8NIs+mvUH40+UcqGOnPDaY/Pxjxado5t8E7BD8IpQ7ora/3mu3ldL6n9G+wd5og+yx+Cvutr6zp1x50Nm5C27X90sfB9D3WNj8pTH8NMmtYm5rV+iNgpHEY333x7fKvJ/SSfuL360++fHiP+7uxPL0NoRfvEPwglDqgt77ea1biLPpMTlrDyu+sdjWJ7Kv4qey3vrKmX3vQ2bgJbdf2S1+8p58U9n7xnhpb/kPOob6ej4CrfYRwGOn3sHqbaGqCL3vWn9sX6QnvhfQ2hF68Q/CDUOqA3vp6r1mJs+gzOUkNa/0xcBeTFvsofhf2W19Z06+9XGyi7SCvjYnUsNIX7z0NK310TPoVxeXu9+/7CNhbX/o9rNe84K8s4qwa1epXE7w3z9TbEBzihZJ5IZQ6oLe+3mtW4iz6TE5Kw3LfWU01YRx38buy3/rKmn7t5SIAfjY2gWSoS1+8/+oTP5Q/GjJe/fyP1X9Tgrls8xGwt77U3FTDSh/5fu1Jlw9fhJ/4eW+eqbchOMQLJfNCKHVAb32916zEWfSZnISGVX3BPsVEcZzFz8F+6ytr+rWXiwD42dgEkkUd+0lh+gjHPsalX1fo+wi4fX3p4+DRH81B0pfor4Gf+KGh9+aZOu83j9gk80IodYBPJXTcvB9n0Wdy6IbV/GngtiabOK7i52K/9ZW1STdPBfjZ2ASSRd3RTwqPvjNK76ZSzOq7x/35v5p8RHlHtn196d3VBy4tP0V87Ri/+ZWfGB8FBwj9Cs/Ue+ZOJjbJvBBKHeBTCR0378dZ9JkcsmE1m1ViG5MejqP4OdlvfWWt9+bRgJ+NTSBZ1KWPg+mL9/e/49Njo/qozdb1pX/Wa9M/6YUfAVdsX99Rw/q1J18m/zUcDP0Kz9R75k4mNsm8EEod4FMJnVjrBix6/Q7VsNzfuhDpNel+kn4TZe68vey3vrLWe/M4qj3gZ2MTSBZ16Yv03/7Xfz6sfgscdCDs+d2q/BGwKoLndViyVMPLf/6j+Yv3hN8THCCUugk4B/FCybwQSh3gUwmdWEPmuWYLh2hYq3dWO5okup+k30SZPe8BDjeh6ytrneV5qj3gZ2MTSKbTgs4e3v2ijo+AR38WsDLvzEsOw88GDYRSNwHnIF4omRdCqQN8KqETa8g812xh3/dU+Ri4g8kR3U/Sb6LMnnfPh3uErq+sdZbnqfaAn41NIJlOW1bTl+o9PwW8Cj8CVuadeclh+NmggVDqJuAcxAsl80IodYBPxXW9nM73lP8N9okm3kLogLnz9nJdaVhOVu0BPxubQDKps9Xuj4Ajzq8y78xLDsPPBg2EUjcB5yBeKJkXQqkDfCqu62Wea7awr3sqv7Pa1STjLIQOmDtvL0vDAiCZ1I2rPT8F/JO3l39F2flV5p15yWH42aCBUOom4BzECyXzQih1gE/Fdb3Mc80W9nFPrT8G7mKyxlkIHTB33l5OesPqxe2otpcJ6QxnwXTpp4Cb3lmlX1dY/RSQ+FXmm/NmyGvlZ4MGQqmjcJ1bEdeRzAuh1AE+Fdf1Ms81Wzjue8r96sJUE4ezEDpglrwTOL0bVtG5HdV2oovAWbR0XV+sv6O8q6J5K3Oddw15rfxs0EAodRSucyviOpJ5IZQ6wKfiul7muWYLx3lPuWaVmGJS4SyEDpgl7wSWhgXAWUTdPbr+LGD7j+YknF9VBM/rIK+Vnw0aCKU3he9yK+I68itBB6HUAT4V1zmEbJ5rtnBc91TVrBLbmjRxFkIHzJJ3AiezYfVSPJxbZU10ETgL1KV/tVn9wefUqPzf0nkEyVsVQXQR8lr52aCBUHoDvQ3Byzp10Q9CqQN663MI2dzX7HHcU81mldjGhOIshA6YJe8EloYFwFkcPXrbf/1k/oPPz33cB4f/+yVXVI0Lv1ivIXmrIoguQl4rPxs0EEpvoLcheFmnLvpBKHVA5yXrEXvmvmbnvqdos0r0msz+JP0mSq9fL0vDAuAsUJe+QMfGlf4QdJpL76z08ZG81R6ii5BkfjZopGEbn4YbeFmnTtQndYA+88Khrtk57ynZrBIHe5J+E2WSn2BpWACcRUuXmlT6Q9CpaR19BNTHR/yqPUQXIcn8bNBIwzY+DTfwsk6dqE/qAH3mhUNds3PdUxubVeJgT9JvokzyEywNC4CzkDr004Y2Br9qD9FFSDI/GzTSsI1Pww28rFMn6pO6CRzqmp3jnjrjpN+YvXl76c570s9Fysqik1V7iC4CyaQO/bShjcGv2kN0EZLMz0qHLnwa7udlnbroB6HUTeBw12ynzpuvye+srhcNa0rek34uUlYWnazaQ3QRSCZ16KcNbQx+1R6ii5BkflY6dOHTcD8v69RFPwilbgKHu2Y7dd48s/4YuDSsNoc6l150eWXRyao9RBeBZFKHftrQxuBX7SG6CEnmZ6UDwHU+jdDZmBEH4VeCDkKpm8Dc1+xx31PuO6ulYbU5mQ2rCHV5oLMxU+0huggkkzr004Y2Br9qD9FFSDI/Kx0ArvNphM7GjDgIvxJ0EErdBOa+Zo/znqq+YF8aVpulYQGQTOrQTxvaGPyqPUQXIcnkHgrf5dMInY0ZcRB+JegglDoK1819zR7XPdX8aeDSsNrs9Vy6KR66PNDZmKn2EF0Ekkkd+mlDG4NftYfoIiSZ3AN4Hd/l0widjRlxEH4l6CCUOgrXzXLNOguhA7a5p5rNKrE0rDZLwwIgmdShnza0MfhVe4guQpLJPYDX8V0+jdDZmBEH4VeCDkLuoFB5+8zlNesshA7ovados0qcVg1rKlPy7vNcuikeujzQ2Zip9hBdBJJJHfppQxuDX7WH6CKdrxXD7+ZePo3Q2ZgRtfmVoIOQO3j66+szl9essxA6oOeeks0qcV1pWLPn3ee5dFM8dHmgszFT7SG6CCSTOvTThjYGv2oP0UU6XysHbPG7uZdPI3Q2ZkRtfiXoIOQOnv76+sz3fU9tbFaJpWG1WRoWAMmkDv20oY3Br9pDdJHO18oBW/xu7uXTCJ2NGVGbXwk6vo3SXx+siTz7vKf838EuOOkNq5e58x6qYWldWdPlgc7GTLWH6CKQTOrQTxvaGPyqPUQX6XytHLDF7+ZePo3Q2ZgRtfmVoOPbKP31wZrII69FZyF0ALun8jurXU0ih3qSvcydd2lYACSTOvTThjYGv2oP0UU6XysHbPG7uZdPI3Q2ZkRtfiXo+DZKf32wJvLIa9FZCB3QuqfWHwN3MWlxqCfZy9x55z6XXnR9ZU2XBzobM9UeootAMqlDP21oY/Cr9hBdpOu1ChoI/Qr38mmEzsaMqM2vcF0v/fXBmkh73PfUqR/5x//t2uGURSOnMBCcOtWp8+YUmddZtHW/8baL7FGbJz/wUnvk2TVvZK5z+Q9vva89msbTHvxue5QoCVh5L3zLve1RH09/yB/lUT5bSPb8S77JHvXxrIe9zx4h8DxszIzB8954Twvm4af/2fvtUXiGEPqVoAP8mQudjRlxHfmVVfRv33DXPDJ+7hEftkc1/fXBGpd5XcRZCB1wdE+t3lnN0PUYh+rKvcyd91DvsDQlQWd53Ui7uZPh87AxM3caRzCH0K/wIvwxCJ2NGXF2foXrPMLPJ7axpveaPa57qvw0cAeTTRzqSTr2mPf60bDAz8Ym8yQDOvPuiPcOmSCUOsAfg9DZmBFn51e4ziP8fGIba3qv2eO4p/yvLkw06eFQT9Kxx7xLwwImJNNbOvPuiPcOmSCUOsA/J6GzMSMOgq8ohJ9PbGNN7zU79z3lm1VigsnSsNosDWs3dH3Hlxfx3iEThFIH9DcEQBwEX/F4nfDziW2s6b1m57yn6maV2NIkcdIb1sHyznwuvej6ylpneRsAPxvnQtc3d7Y2PkvICaHUAf0NARAHwVc8Xif8fGIba/Z9T7WbVWILkyOWhtVm0rnMgPYra53leao94GfjbvTWN0+2TfgsISeEUgf0NwRg0gvl8Q4ir09sY80+7yn9G+ydJsihGlYvc+c91nOZAe23Y65qe5mY51mAnzScJ9smfJaQE0KpA/obAtB5HVXANu8g8vrENtbs65469S//8VvzynH9bsQm5vrdjZe87f4WtHnSA95hj1bMlfeIuc/l1/7bt9qjNj/+oHfmcZ76ypouD3Q2Zqo9RBeBZFKHftrQxuBX7Tk1PO+N97DHbX7qO/6EJvOzQQOh1AE+jdDZmAm1/cIb7maP2vzswz+0egDbvIPI6xPbWHPc99T6Y+CuXS+yvMNq03suvcxTX1nT5YHOxky1h+gikEzq0E8b2hj8qj3SpECS+dmggVDqAJ9G6GzM6IPgwDbvIPL6xDbWHPc95b6zmufCL+y1YU1glrzOoq++pWEBkEzq0E8b2hj8tDmHJPOzQQOh1AE+jdDZmNEHwYFt3kHk9YltrDnOe6r6gn2eC7+wNKw2S8MCIJnUoZ82tDH4aXMOSeZngwZCqQN8GqGzMaMPAgg6CP0K9+uvj5o7tr1mmz8NnOfCLywNq83SsABIJnXopw1tDH7anEOS+dmggVDqAJ9G6GzM6IMAgg5Cv8L9+uuj5o5trtkzmHaeC7+wNKw2S8MCIJnUoZ82tDH4aXMOSeZngwZCqQN8GqGzcTvCLgj9isjrloSOmzt6r9nVOyuinefCLywNq82khnXs9ZU1XR7obMxUe4guAsmkDv20oY2b/Dohyfxs0EAodYBPI3Q2bkLmhVDqgP76qLmj55otHwOJdp4Lv3CohjVJNzWvs+jM23kujmOvr6zp8kBnY6baQ3QRSCZ16KcNbdzkV9B27VU/GzQQSh3g0widjZuQeSGUOqC/Pmru2HTN+u+siHaeC7+wNKw2S8MCIJnUoZ82tHGTX0HbtVf9bNBAKHWAT8N1vci8EEod0FvfHPdU/RvsRDvPhV+Yu2H10l1fZ96Tfi7z1FfWdHmgszFT7SG6CCSTOvTThjb2o+3aq342aCCUOsCn4bpeZF4IpQ7orW/Xaza/s6oWidE8F35hrw1rSn1+E+Wkn8s89ZU1XR7obMxUe4guAsmkDv20oY2b6MxLkvnZoIFQ6gCfhut6kXkhlDqgt75drtn1x8BqkRjNc+EXloa1G/utr6z1NgQnq/YQXQSSSR36aUMbN9GZlyTzs0EDodQBPg3X9SLzQih1QG99U69Z951VdaESo3ku/MLSsHZjv/WVtd6G4GTVHqKLQDKpQz8t7KQzL0nmZ4MGQqkDfBqu60XmhVDqgN76plyz/gv2kepCJUbzXPiFpWHtxn7rK2v6ZQOdjZlqD9FFIJnUoZ8WdtKZlyTzs0EDodQBPg3XOcRByLwQSh3QW9+212zVrBLVhUqM5rnwC0vD2o391lfW9MsGOhsz1R6ii0AyqUM/LWxT7enMS5L52aCBUOoAn4brHOIgZF4IpQ7orW+ba3ZsVm1FdaESo3ku/MLSsHZjv/WVNf2ygc7GTLWH6CKQTOrQTwvbVHs685JkfjZoIJQ6YNpzEn42rgg6CKUO8KmEjps77J1VW1FdqMRongu/MKlhTWVKfX4TZe5z6WW/9ZU1/bKBzsZMtYfoIpBM6tBPC9tUezrzkmR+NmgglDqg9zk5mdgk80IodYBPJXTcfA18DGwrqguVGM1z4Rfmbliz1+c3UebO28t+6ytr+mUDnY2Zag/RRSCZ1KGfFq5xsmoP+NnYhCTzs0EDodQB056T8LNxRdBBKHWATyV03DwTvrNqG1UXKsk3z4VfWBrWbuy3vrKmXzbQ2Zip9hBdBJJJHfpp4Ronq/aAn41NSDI/GzQQSt0EnIM4CJkXQqkDfCqh4+bDGXW9baPqQm3Lah0CS/rCL/Q2rF5mr89vohzqXPZbX1nT5YHOxky1h+gikEzqNqy2cDuq7Z15yWH42aCBUOom4BzECyXzQih1gE8ldMQ8v7Oq620bVRdqW1brEFjSF35haVhtloYFQDKp27BaIH7VdqKLkMPws0EDodRNwDmIF0rmhVDqAJ9K6Brm64+Bdb1to+pCbctqHQJL+sIvXN8aVi9LwwIgmdRtWC0Qv2o70UXIYfjZoIFQ6ibgHMQLJfNCKHWATyV0wdx9Z1XX2zaqLtS2rNYhsKQv/MLSsNosDQuAZFLXDfGrzDvzksPws0EDodRNwDmIF0rmhVDqAJ9K6GAtfMEeTRJto+pCJfnmufALUxvWHe9yU3vkmb0+v4nSm7eXpWEBkEzquiF+lXlnXnIYfjZoIIy68y64kT1WtHMm3Ip4oWJeB4RSB/hUQmdrVbNK1PW2jaoLleSb58IvTGlYP/Nb9xqe+9r7Do/98QuqxjV7fX4Tpdevl6VhAZBM6rohfpV5Z15yGH42aCC83digHvHE2w3P+k93GZ764jvb7CZ4RW5FvFB+JegglDrApxK68f/GZtUW1PUSXZwn+ea58AtTGtatbnfm8ODHnN9sXLPX5zdRev16WRoWAMmkrhviV5l35iWH4WdLdN6Fqwb17LFB/diLLxgu+r5bDbc854a22guvyK2IF4rVl4FQ6gCfiuvsnVVbUNdLdHGe5Jvnwi9MaVhHtBrXHe5yE1ttMKU+v4nS69fL0rAASCZ13RC/yrwzLzmMo9ncoC4+d3j2y1cN6v6TGlRMwyvysk5d9INQ6oCe+uBjYFtQ10t0cb4tq3UILOkLv7BLwzoCG9cvvvY+w2N+/M5j42p8xzWlPr+J0uvXy9KwAEgmdcCh6kucPzao7754/Ij38ruODerCsUHdelKDivg0vCIv69RFPwilDthUX/jOqm1U10t0cb4tq3UILOkLv5BuzA/9j09btBulcX1zu3FNqc9vovT69bI0LACSSR2wz/rOv+DM3KCeDQ3q7BkaVOIjf/x5ezTWoItd42WduugHodQBqr4z6m1to7peoovzbVmtQ2BJX/iFV/37y4YvfO7vLZoH2rgm1Od0YsskP8HSsIDOs0COs77VO6jzhme/4m7Dj/3G183aoI744jX/MPzuS6+0aIV/TlWxa7ysUxf9IJQ6gNV36oe+9c05OpVDpJ5JnKqmiS7Ot2W1DoElqTNufd6Nhu/5kTsN3/yAWw83vtlX2ez8XPXXXxr+6G1/O1z6+58Y/vLD1+S5nvoSTie2vPi/388etXnKP/nDPHbnrV+4Jr31ybzOQuUta7o80NmYqfYQXWRM9vxLvsmCNs986HvH/wU/bWhjyFvtOZUb1Lc89Ozh7ve/xeyNCUlN6gOXfmZ4yyv/Zrj6yi/brMc/J/4EvaxTF/0glDog1rduVol6W9uorpfo4nxbVusQWNIXfiHdmN/8wFuv/n+PjeuvPlzebivc8yBPqbdZJbY5lx566kvM87qVNV0e6GzMVHuILvD8N3+zPWqzalYJ8FOGLO8YlAZ11l4a1Pvf8dnhg5d+1mYTvHD/nITOxow4CL8SdBBKHYCpTv3QfcdmRU0SbaO6XqKL821ZrUNgSV/4Bbwx99m43vu2q9w7LoZ7Ho2ntLFZPXBsVjuei2JTfUfM87qVNV0e6GzMVHuIDuhvVgnwY4aZsnj71KAeNjaoi8YGde4xN6h3jA1qbE4fGJsUPmFfKi/cPyehszEjDsKvBB2EUgccpVo1q/wo/2+m3tY2quslujjfltU6BJb0hV9o3ZgnqXG55xFK7WpWiZnOpYWqD5nndStrujzQ2Zip9hCdsV2zSoBfy3Dk/AtvPNxnDw3q6k98efjIe68ZG9RnVg0qPkMI/QopfMQ/J6GzMSNeKL8SdBBKHZBSlWaVoCaJtlFdL9HF+bas1iGwpC/8groxT0Ljcs8DHnY3q8TM54Kw+iLzvG5lTZcHOhsz1R6iG9m+WSXAzx6WBnWLsUF99WryGEgNKr2DevclnxquuOyLec4/p/AMIZQ6wJ+50NmYES+UXwk6CKUOGJvVJWOzau+st7WN6nqJLs63ZbUOgSV94Rd6bsy73uus4V4PvE1uXumngMdFq3G552EPt2pWiWM6l0SrvhbzvG5lTZcHOhsz1Z62blqzSqQvyccG9R1nD/fYR4N6e2pQVw9XXP4lm/X4pxuePIRSB/gzFzobM+KF8itBB6HUGdas8sPVkKAmCWJUTRNdnG/Lah0CS/rCL2xzY6Y/gnO/7zp3r43LfTk/lrp1s0oc87msEVvmed3Kmi4PdDZmqj21bttmtWpQt9pvg7J3UGvIYfjZoIFQ6gCfRuhszIgXyq8EHYRSNwLNKtHe2dhmo6eul+jifFtW6xBY0hd+YcqNece7WuMaPyruo3H94e9/Mr/jevHbJjSrxJ7ORVnP87qVNV0e6GzMVHu8blOzesbYrG6/xwb1fmhQVekIOQw/GzQQSh3g0widjRnxQvmVoINQ6UKzSrR3+m2JeiZR10t0cb4tq3UILOkLv7DLjbl+x7WHxrXJnzarxJ7PpcU8r1tZ0+WBzsZMtadMvGBDs7r6yr873gZ15dig3vHp8A6KPI8IOQw/GzQQSh3g0widjRnxQvmVoIOQ6U794NiswraR9k6pA+p6iS7Ot2W1DoElfeEX5rgx99W4GE9+4KX6+brSO5/vDOeCzFNfWdPlgc7GTLVnNbGpWR0H6wb1JmhQpL5EtYSQw/CzQQOh1AE+jdDZmBEvlF8JOghbutysSoi0d0odUNdLdHG+Lat1CCzpC78w5415iMaVmlXiJJ9LYp76ypouD3Q2Zqo9p/bWrNI7tPe/4zPDu7BBjWyq74hqCSGH4WeDBkKpA3waobMxI14ovxJ0EEbdulklavv2TqkD6nqJLs63ZbUOgSV94ReO48ZMf3bwft91zrE3rqNmlTgdzoXiLFTesqbLA52NmbDnBW++lz2aH9+gvmCzR/TVR3URchh+NmgglDrApxE6GzPihfIrQQchrrhmlajt2zulDqjrJbo435bVOgSW9IVfOM4b8zgbFzarxOl0LhXOQuUta7o80NmYgWDuZpUa1J+kBvXGVYPatb4VRBchyfxs0EAodYBPI3Q2ZsRB+JWgg/DoYdWsErV9Y+eI1AF1vUQX59uyWofAkr7wC/u4MeduXLFZJU7Hc1njLFTesqbLA52NGQvmaFalQV0F76Dmqa9AdBGSzM8GDYRSB/g0QmdjRhyEXwk6CNPDZrNK1PZhpyF1QF0v0cX5tqzWIbCkL/zCPm/MO6Rfh/jO3RpXq1klTudz8RYqb1nT5YHOxswYTG1W7QYV2b0+D9FFSDI/GzQQSh3g0widjRlxEH4l6CA89YP3edO1fU8ygTttHJE6oE5DdHG+Lat1CCzpC79wiBszveO66DvPHb7pAbfqblzpVxt+9rHvsajmunAuCV1fWdPlgc7GxHP+y927fzUhN6i3f3p4Z2pQl5MvySt2q682J7oISeZngwZCqQN8GqGzMSMOwq8EnYWrZpUftY3qWZhpPzSIXzVNdHG+Lat1CCzpC79wyBszf1Qc33Ftalwv+1d/ln+BVFv35+3hutaw7nH/s4b/9d9cYFGNa1DxHRQkk2l3qC9T7SG6CEnmZ4MGQqkDfBqhszEjDsKvBN0YlmaV6HqSCZhpPzSIXzVNdHG+Lat1CCzpC79wEm7MVuN63x9cNVz6e58Y3ve2q3OcmTmv4rrYsO77z2493OOis3KMDeqv0pfkeZYAyaRuh/oy1R6ii5BkfjZoIJQ6wKcROhsz4iD8Sohcs0p0PckEzLQfGsSvmia6ON+W1ToElvSFXziZN2bhYHlP5LmUNV0e6GzMVHuILgLJpA79tKGNwa/aQ3QRkszPBg2EUgf4NEJnY0YchF8pUf13sJO/a7mehZn2Q4P4VdNEF+fbslqHwJL+u8ELJ/PvLi8cLO+JPJeypssDnY2Zag/RRSCZ1KGfNrQx+FV7iC5CkvnZoIFQ6gCfRuhszIiD8Cslyv+6TbWt60kmYKb90CB+1TTRxfm2rNYhsKQv/MLSsNosDQuAZFKHftrQxuBX7SG6CEnmZ4MGQqkDfBqhszEjDsKvrKL1P8VVbet6kgmYaT80iF81TXRxvi2rdQgs6Qu/sDSsNkvDAiCZ1KGfNrQx+FV7iC5CkvnZoIFQ6gCfRuhszIiD8Cv5n48vVNu6nmQCZtoPDeJXTRNdnG/Lah0CS/rCLywNq83SsABIJnXopw1tDH7VHqKLkGR+NmgglDrApxE6GzPiIHAl/COnDfuuJ5mAmfZDg/hV00QX59uyWofAkr7wC0vDarM0LACSSR36aUMbg1+1h+giJJmfDRoIpQ7waYTOxow4iKOVqlklqm1dTzIBM+2HBvGrpokuzrdltQ6BJX3hF5aG1WZpWAAkkzr004Y2Br9qD9FFSDI/GzQQSh3g0widjRlxEGllbFZtQTXb9SQTMNN+aBC/apro4nxbVusQWNIXfmFpWG2WhgVAMqlDP21oY/Cr9hBdhCTzs0EDodQBPo3Q2ZgRB2HvrNqCarbrSSZgpv3QIH7VNNHF+bas1iGwpC/8wtKw2iwNC4BkUod+2tDG4FftIboISeZngwZCqQN8GqGzMUNqg4+BbUE12/UkEzDTfmgQv2qa6OJ8W1brEFjSF35haVhtloYFQDKpQz9taGPwq/YQXYQk87NBA6HUAT6N0NmYadQWvrNqG1WzXU8yATPthwbxq6aJLs63ZbUOgSV94ReWhtVmaVgAJJM69NOGNga/ag/RRUgyPxs0EEod4NMInY2ZUNsZda1to1rWqcOZ9kOD+FXTRBfn27Jah8CSvvALS8NqszQsAJJJHfppQxuDX7WH6CIkmZ8NGgilDvBphM7GDGzK76zqWttGtaxThzPthwbxq6aJLs63ZbUOgSV94ReWhtVmaVgAJJM69NOGNga/ag/RRUgyPxs0EEod4NMInY0Z27T+GFjX2jaqZZ06nGk/NIhfNU10cb4tq3UILOkLv7A0rDZLwwIgmdShnza0MfhVe4guQpL52aCBUOoAn0bobMyMm9x3VnWtbaNa1qnDmfZDg/hV00QX59uyWofAkr7wC0vDarM0LACSSR36aUMbg1+1h+giJJmfDRoIpQ7waYTOxkT4gj2aJNpGtaxThzPthwbxq6aJLs63ZbUOgSV94ReWhtVmaVgAJJM69NOGNga/ag/RRUgyPxs0EEod4NMInY1Vs0rUtbaNalmnDmfaDw3iV00TXZxvy2odAkv6wi8sDavN0rAASCZ16KcNbQx+1R6ii5BkfjZoIJQ6wKcRuvH/x2bVFtS1Ep2Na7qeZAJm2g8N4ldNE12cb8tqHQJL+sIvLA2rzdKwAEgmdeinDW0MftUeoouQZH42aCCUOsCn4Tp7Z9UW1LUSnY1rup5kAmbaDw3iV00TXZxvy2odAkv6wi8sDavN0rAASCZ16KcNbQx+1R6ii5BkfjZoIJQ6wKdp6+BjYFtQ10p0Nq7pepIJmGk/NIhfNU10cb4tq3UILOkLv7A0rDZLwwIgmdShnza0MfhVe4guQpL52aCBUOoAn6bWhe+s2kZ1rURn45quJ5mAmfZDg/hV00QX59uyWofAkr7wC0vDarM0LACSSR36aUMbg1+1h+giJJmfDRoIpQ7wabyu/jvYiVFdK9HZuKbrSSZgpv3QIH7VNNHF+bas1iGwpC/8wtKw2iwNC4BkUod+2tDG4FftIboISeZngwZCqQN8mhLkd1b1trZRXSvR2bim60kmYKb90CB+1TTRxfm2rNYhsKQv/MLSsNosDQuAZFKHftrQxuBX7SG6CEnmZ4MGQqkDfJpVsP4YWG9rG9W1Ep2Na7qeZAJm2g8N4ldNE12cb8tqHQJL+sIvLA2rzdKwAEgmdeinDW0MftUeoouQZH42aCCUOsCnSb/BTk0SbaO6VqKzcU3Xk0zATPuhQfyqaaKL821ZrUNgSV/4haVhtVkaFgDJpA79tKGNwa/aQ3QRkszPBg2EUgdgmtU7K2qSaBvVtRKdjWu6nmQCZtoPDeJXTRNdnG/Lah0CS/rCLywNq83SsABIJnXopw1tDH7VHqKLkGR+NmgglDrgKE35aSA1SbSN6lqJzsY1XU8yATPthwbxq6aJLs63ZbUOgSV94ReWhtVmaVgAJJM69NOGNga/ag/RRUgyPxs0EEodkNKMzaq9s97WNqprJTob13Q9yQTMtB8axK+aJro435bVOgSW9IVfWBpWm6VhAZBM6tBPG9oY/Ko9RBchyfxs0EAodYC9s2rvrLe1jepaic7GNV1PMgEz7YcG8aumiS7Ot2W1DoElfeEXlobVZmlYACSTOvTThjYGv2oP0UVIMj8bNBBKnVE+BpKd9ba2UV0r0dm4putJJmCm/dAgftU00cX5tqzWIbCkL/zC0rDaLA0LgGRSh37a0MbgV+0hughJ5meDBkKpG4FmlWjvrLfVM4m6VqKzcU3Xk0zATPuhQfyqaaKL821ZrUNgSV/4haVhtVkaFgDJpA79tKGNwa/aQ3QRkszPBg2ESqd/g52aJOqZRF0r0dm4putJJmCm/dAgftU00cX5tqzWIbCkL/zC0rDaLA0LgGRSh37a0MbgV+0hughJ5meDBkKmy++swraR9k6pA+paic7GNV1PMgEz7YcG8aumiS7Ot2W1DoElfeEXlobVZmlYACSTOvTThjYGv2oP0UVIMj8bNBC2dOuPgWHbSHun1AF1rURn45quJ5mAmfZDg/hV00QX59uyWofAkr7wC0vDarM0LACSSR36aUMbg1+1h+giJJmfDRoIo859Z1Vbt3dKHVDXSnQ2rul6kgmYaT80iF81TXRxvi2rdQgs6Qu/sDSsNkvDAiCZ1KGfNrQx+FV7iC5CkvnZoIEQV8IX7NW2kfZOqQPqWonOxjVdTzIBM+2HBvGrpokuzrdltQ6BJX3hF5aG1WZpWAAkkzr004Y2Br9qD9FFSDI/GzQQHj2smlWitm7sHJE6oK6V6Gxc0/UkEzDTfmgQv2qa6OJ8W1brEFjSF35haVhtloYFQDKpQz9taGPwq/YQXYQk87NBA2F6eEafSSLsNKQOqNMQnY1rTlx9Yb4tq3UILOkLv7A0rDZLwwIgmdShnza0MfhVe4guQpL52aCBcPXOqsskATPthwbxq6aJzsY1J66+MN+W1ToElvSFX1gaVpulYQGQTOrQTxvaGPyqPUQXIcn8bNBYWD4GdpkkYKb90CB+1TTR2bjmxNUX5tuyWofAkr7wC0vDarM0LACSSR36aUMbg1+1h+giJJmfDZox9N9ZdZkkYKb90CB+1TTR2bjmxNUX5tuyWofAkr7wC0vDarM0LACSSR36aUMbg1+1h+giJJmf9VH9BXuXSQJm2g8N4ldNE52Na05cfWG+Lat1CCzpC7+wNKw2S8MCIJnUoZ82tDH4VXuILkKS+dkSNX8a2GeSgJn2Q4P4VdNEZ+OaE1dfmG/Lah0CS/rCLywNq83SsABIJnXopw1tDH7VHqKLkGR+dhW1m1WiyyQBM+2HBvGrponOxjUnrr4w35bVOgSW9IVfWBpWm6VhAZBM6tBPG9oY/Ko9RBchyfzsta0/yAx0mSRgpv3QIH7VNNHZuObE1Rfm27Jah8CSvvALS8NqszQsAJJJHfppQxuDX7WH6CIkGc7md1a7mqyAmfZDg/hV00Rn45oTV1+Yb8tqHQJL+sIvLA2rzdKwAEgmdeinDW0MftUeoouQZEez64+Bu5gUYKb90CB+1TTR2bjmxNUX5tuyWofAkr7wC0vDarM0LACSSR36aUMbg1+1h+giJFmaHZvV7iYemGk/NIhfNU10Nq45cfWF+bas1iGwpC/8wtKw2iwNC4BkUod+2tDG4FftIboISWbvrHYzqWdhpv3QIH7VNNHZuObE1Rfm27Jah8CSvvALS8NqszQsAJJJHfppQxuDX7WH6CKNZPDTwOkmiXoWZtoPDeJXTROdjWtOXH1hvi2rdQgs6Qu/sDSsNkvDAiCZ1KGfNrQx+FV7iC4SkkGzSkwzOaKehZn2Q4P4VdNEZ+OaE1dfmG/Lah0CS/rCLywNq83SsABIJnXopw1tDH7VHqKLQDL3z8ev2N4EqWdhpv3QIH7VNNHZuObE1Rfm27Jah8CSvvALS8NqszQsAJJJHfppQxuDX7WH6CKWbPXOakeTSD0LM+2HBvGrponOxjUnrr4w35bVOgSW9IVfWBpWm6VhAZBM6tBPG9oY/Ko9RBe59trh/wfpLZd1elaciQAAAABJRU5ErkJggg==;" vertex="1" parent="cB-VQLEL9NJTstsM0TsG-146">
          <mxGeometry x="15.050000000000011" y="45" width="29.9" height="30" as="geometry" />
        </mxCell>
        <mxCell id="cB-VQLEL9NJTstsM0TsG-149" value="AWS Aurora DB Cluster" style="text;html=1;strokeColor=none;fillColor=none;align=center;verticalAlign=middle;whiteSpace=wrap;rounded=0;" vertex="1" parent="cB-VQLEL9NJTstsM0TsG-97">
          <mxGeometry x="305" y="296" width="60" height="30" as="geometry" />
        </mxCell>
        <mxCell id="cB-VQLEL9NJTstsM0TsG-150" value="" style="group" vertex="1" connectable="0" parent="cB-VQLEL9NJTstsM0TsG-96">
          <mxGeometry y="50" width="60" height="75" as="geometry" />
        </mxCell>
        <mxCell id="cB-VQLEL9NJTstsM0TsG-151" value="AWS API&lt;br&gt;Gateway" style="ellipse;whiteSpace=wrap;html=1;aspect=fixed;" vertex="1" parent="cB-VQLEL9NJTstsM0TsG-150">
          <mxGeometry width="60" height="60" as="geometry" />
        </mxCell>
        <mxCell id="cB-VQLEL9NJTstsM0TsG-152" value="" style="shape=image;verticalLabelPosition=bottom;labelBackgroundColor=default;verticalAlign=top;aspect=fixed;imageAspect=0;image=data:image/png,iVBORw0KGgoAAAANSUhEUgAAASsAAAEsCAYAAACboZUMAAAAAXNSR0IArs4c6QAAAARnQU1BAACxjwv8YQUAAAAJcEhZcwAADsMAAA7DAcdvqGQAAFsfSURBVHhe7b0L1HVXVaa5/yCGewiXhAQQSQQsARUEuwhCFQhYCl6gAHu0UNqWAyIXFblpiVZbpZQoYJWCINU9tICq0Vy6cDSiAwKDGoUQu7mUoIBCJyhoMKAJt3ARMb3XOvM7651zrfc96+yzv3O+P9mPQ9aZa73rnfOss/fMOef7/v8/de655147LCwsLJxwTj37YX987XDqlIUePxs0EEod4NMInY0ZUlvCrwQdhFIH9NdHzR1OF3EWQgecEmeBHKw+v4kye959nUuY5vX5eV5e0NmY4UGIgJCI6qIfN7RxhYt4ECJAvE7SwcIz8v9e235z5WeDBkKpA3waobMxQ2pL+JWgg1DqgP76qLnD6SLOQuiAa8VZIAerz2+izJ53X+cSpnl9fp6XF3Q2ZngQIiAkorroxw1tXOEiHoQIEK+TdLBw1awSxKjHJCF1gE8jdDZmdnySCakD+uuj5g55wzkLoQOWhtVmaVhGSER10Y8b2rjCRTwIESBeJ+kwhqVZJYjRJpMjpA7waYTOxswOT/IIqQP666PmDnnDOQuhA5aG1WZpWEZIRHXRjxvauMJFPAgRIF4n5eCbVYIYKRMMpQ7waYTOxszEJ4mh1AH99VFzh7zhnIXQAUvDarM0LCMkorroxw1tXOEiHoQIEK8Tc6ibVYIYMZMMhFIH+DRCZ2NmwpPMQCh1QH991NwhbzhnIXTA0rDaLA3LCImoLvpxQxtXuIgHIQLE69RyaDerBDFqmayBUOoAn0bobMxs+STXQCh1QH991NwhbzhnIXTA0rDaLA3LCImoLvpxQxtXuIgHIQLE6xQdzuDSEWIUTRwQSh3g0widjZktnqQDQqkD+uuj5g55wzkLoQOWhtVmaVhGSER10Y8b2rjCRTwIESBeJ1zJ76y4dIQY+dmggVDqAJ9G6GzMdD7Jyg9CqQP666PmDnnDOQuhA5aG1WZpWEZIRHXRjxvauMJFPAgRIF6no5X1x0AuHSFGfjZoIJQ6wKcROhszHU9yRdBBKHVAf33U3CFvOGchdMDSsNosDcsIiagu+nFDG1e4iAchAsTrlFbGZlUEXDpCjPxs0EAodYBPI3Q2ZjY8yULQQSh1QH991NwhbzhnIXTA0rDaLA3LCImoLvpxQxtXuIgHIQLE62TvrIqAS0eIkZ8NGgilDvBphM7GjHiSfiXoIJQ6oL8+au6QN5yzEDpgaVhtloZlhERUF/24oY0rXMSDEAEkEfw0sAioSYIY+dmggVDqAJ9G6GzM8NPUeSGUOqC/PmrukDecsxA6YGlYbZaGZYREVBf9uKGNK1zEgxABjUTQrBJFQE0SpGI/GzQQSh3g0widjRl+mjovhFIH9NdHzR3yhnMWQgcsDavN0rCMkIjqoh83tHGFi3gQIiAkOqNWlglqkiAV+9mggVDqAJ9G6GzM8NPUeSGUOqC/PmrukDecsxA6YGlYbZaGZYREVBf9uKGNK1zEgxABkGj1zqpSlglqkiAV+9mggVDqAJ9G6GzM8NPUeSGUOqC/PmrukDecsxA6YGlYbZaGZYREVBf9uKGNK1zEgxABlqh8DKyUZYKaJEjFfjZoIJQ6wKcROhsz/DR1XgilDuivj5o75A3nLIQOWBpWm6VhGSER1UU/bmjjChfxIETAmMj/BnulLBPUJEEq9rNBA6HUAT6N0NmY4aep80IodUB/fdTcIW84ZyF0wNKw2iwNywiJqC76cUMbV7iIByEq5HdWYt9ImWAmGVKxnw0aCKUO8GmEzsYMP02dF0KpA/rro+YOecM5C6EDlobVZmlYRkhEddGPG9q4wkU8CNGK9cdAsW+kTLRM1pCK/WzQQCh1gE8jdDZm+GnqvBBKHdBfHzV3yBvOWQgdsDSsNkvDMkIiqot+3NDGFS7iQYhysypTYt8I0UVIxX42aCCUOsCnETobM/w0dV4IpQ7or4+aO+QN5yyEDlgaVpulYRkhEdVFP25o4woX8cBF9s6qTIl9I0QXIRX72aCBUOoAn0bobMzw09R5IZQ6oL8+au6QN5yzEDpgaVhtloZlhERUF/24oY0rXMSDdVR+GggCsW+E6CKkYj8bNBBKHeDTCJ2NGX6aOi+EUgf010fNHfKGcxZCBywNq83SsIyQiOqiHze0cYWLeJAjaFaJIhD7RoguQir2s0EDodQBPo3Q2Zjhp6nzQih1QH991NwhbzhnIXTA0rDaLA3LCImoLvpxQxtXuIgHsVklikDsGyG6CKnYzwYNhFIH+DRCZ2OGn6bOC6HUAf31UXOHvOGchdABS8NqszQsIySiuujHDW1c4SISNJpVogi4SYLoIqRiPxs0EEod4NMInY0Zfpo6L4RSB/TXR80d8oZzFkIHLA2rzdKwjJCI6qIfN7RxhYsaAWlWiaLmJgmii5CK/WzQQCh1gE8jdDZm+GnqvBBKHdBfHzV3yBvOWQgdsDSsNkvDMkIiqot+3NDGFS4KwRn6NSiL3CRBdBGSzM8GDYRSB/g0QmdjRhyEXwk6CKUO6K+PmjvkDecshA5YGlabpWEZIRHVRT9uaOMKF0GQ31np16AsMpMVRBchyfxs0EAodYBPI3Q2ZsRB+JWgg1DqgP76qLlD3nDOQuiApWG1WRqWERJRXfTjhjaucJEF64+B+jUoiy2TAtFFSDI/GzQQSh3g0widjRlxEH4l6CCUOqC/PmrukDecsxA6YGlYbZaGZYREVBf9uKGNK1w0BmOzKlP6NQCdjZlqD9FFSDI/GzQQSh3g0widjRlxEH4l6CCUOqC/PmrukDecsxA6YGlYbZaGZYREVBf9uKGNKzCyd1ZlSr8GoLMxU+0hughJ5meDBkKpA3waobMxIw7CrwQdhFIH9NdHzR3yhnMWQgcsDavN0rCMkIjqoh83tHHFUQQ/DSwC/RqAzsZMtYfoIiSZnw0aCKUO8GmEzsaMOAi/EnQQSh3QXx81d8gbzlkIHbA0rDZLwzJCIqqLftzQxhUpgmaVKAL9GoDOxky1h+giJJmfDRoIpQ7waYTOxow4CL8SdBBKHdBfHzV3yBvOWQgdsDSsNkvDMkIiqot+3NDGFaFZJYpAvwagszFT7SG6CEnmZ4MGQqkDfBqhszEjDsKvBB2EUgf010fNHfKGcxZCBywNq83SsIyQiOqiHze0sdmsEkWgXwPQ2Zip9hBdhCTzs0EDodQBPo3Q2ZgRB+FXgg5CqQP666PmDnnDOQuhA5aG1WZpWEZIRHXRjxvm/yXNKlF26tcAdDZmqj1EFyHJ/GzQQCh1gE8jdDZmxEH4laCDUOqA/vqouUPecM5C6IClYbVZGpYRElFd9OOG4e9gryir+jUAnY2Zag/RRUgyPxs0EEod4NMInY0ZcRB+JegglDqgvz5q7pA3nLMQOmBpWG2WhmWERFQX/Ygwv7PiJomyql8D0NmYqfYQXYQk87NBA6HUAT6N0NmYEQfhV4IOQqkD+uuj5g55wzkLoQOWhtVmaVhGSER10a8hXH8M5CaJsqpfA9DZmKn2EF2EJPOzQQOh1AE+jdDZmBEH4VeCDkKpA/rro+YOecM5C6EDlobVZmlYRkhEddEvCM/AGW6SAJ0UEr9qD9FFSDI/GzQQSh3g0widjRlxEH4l6CCUOqC/PmrukDecsxA6YGlYbZaGZYREVBf9IFy9s4IZbpIAnRQSv2oP0UVIMj8bNBBKHeDTCJ2NGXEQfiXoIJQ6oL8+au6QN5yzEDpgaVhtloZlhERUF/0sLD8NBCNukgCdFBK/ag/RRUgyPxs0EEod4NMInY0ZcRB+JegglDqgvz5q7pA3nLMQOmBpWG2WhmWERFQX/cbQ/+oCGHGTBOikkPhVe4guQpL52aCBUOoAn0bobMyIg/ArQQeh1AH99VFzh7zhnIXQAUvDarM0LCMkorqw4ptVAoy4SQJ0Ukj8qj1EFyHJ/GzQQCh1gE8jdDZmxEH4laCDUOqA/vqouUPecM5C6IClYbVZGpYRElEdrNTNKgFG3CQBOikkftUeoouQZH42aCCUOsCnETobM+Ig/ErQQSh1QH991NwhbzhnIXTA0rDaLA3LCImozlbazSoBRtwkATopJH7VHqKLkGR+NmgglDrApxE6GzPiIPxK0EEodUB/fdTcIW84ZyF0wNKw2iwNywiJqG5c0b/BDkZSB6v6NSB+1R6ii5BkfjZoIJQ6wKcROhsz4iD8StBBKHVAf33U3CFvOGchdMDSsNosDcsIiZguv7OiJgkwkjpY1a8B8av2EF2EJPOzQQOh1AE+jdDZmBEH4VeCDkKpA/rro+YOecM5C6EDlobVZmlYRkjU0q0/BlKTBBhJHazq14D4VXuILkKS+dmggVDqAJ9G6GzMiIPwK0EHodQB/fVRc4e84ZyF0AFLw2qzNCwjJIq6sVmVKWqSACOpQz9taGPwq/YQXYQk87NBA6HUAT6N0NmYEQfhV4IOQqkD+uuj5g55wzkLoQOWhtVmaVhGSISRvbMqU9QkAUZSh37a0MbgV+0hughJ5meDBkKpA3waobMxIw7CrwQdhFIH9NdHzR3yhnMWQgcsDavN0rCMkOgogp8GFgE1SYCR1KGfNrQx+FV7iC5CkvnZoIFQ6gCfRuhszIiD8CtBB6HUAf31UXOHvOGchdABS8NqszQsIyRKETSrRBFQkwQYSR36aUMbg1+1h+giJJmfDRoIpQ7waYTOxow4CL9Sohvd9IzhRjcpLxXTRfrrgzUu87qIsxA6YGlYbZaGZYREp37ywe+5djhl0ZoyUS0hpzp16KcNbQx+1R6ii5BkfjZoIJQ6wKcROhsz4iCOVu71kLOGB//ArYdbnnPDHH/qE18efu9lnxw++Iefy7F3EH4+sY01p3CNy7wu4iyEDjilL4o1c9d3t//pJsNDf/iWw1m3/aocf/qTfz+88/WfG9731muGL17zD3kucZ0/lzDN6/PzvLygszHDgxABlmjVrPKj/L9AmaAmCahY6tBPG9oY/Ko9RBchyfxs0EAodYBPI3Q2Zhq1pXdR9x6b1EXfd/a6SUX+yy9csTSshCxBLo6N6sbDo599W5vwfOnz/zD8v2PTeufvfnbdtK7z5xKmeX1+npcXdDZmeBAiYExUmlWiUpYJapKAiqUO/bShjcGv2kN0EZLMzwYNhFIH+DRCZ2PGNqUmddH33Wq46HvPzo8V6R3WC374IxbFTCKvT2xjzc4XfsJZCB2wz4b1lJedv35HxYhN6zp/LmGa1+fneXlBZ2OGByEq+N9grz48lolqCYHPllKHftrQxuBX7SG6CEnmZ4MGQqkDfBqhszGRvot68A/cZnjGb104PPh/ufXGRpXI77jAxGcSed2S0HFzh/wOxlkIHbDP77A2NarEmeNr84Dvv8Xw5N88bxzPGs68KdxGE/Pi0ok7lzDN6/PzvLygszHDgxAV8p0h9o2UCWaSgYqlDv20oY3Br9pDdBGSzM8GDYRSB/g0XHfmTW+walK/3d+kKo6xvp0v/ISzEDpgr1+6d4JN69vGcf1aTc3rSu+rb2lY8NNAsW+kTLRM1kDFUod+2tDG4FftIboISeZngwZCqQN8Gq+70dikvn1sUs9MTWocJzUpZOb6kJ0v/ISzEDrgJDasxFHTetJv3i6P+bWbmteV3lff9b1hudMW+0aILgIVSx36aUMbg1+1h+giJJmfDRoIpQ7waa4dzj73hsPDn3jufE0KmaE+xs4XfsJZCB1wUhtWIjWt9A7raa84f3jEU28lP1KetucSpnl9fp6XF3Q2ZnjgIrtjypTYN0J0EahY6tBPG9oY/Ko9RBchyfxs0EAodUBKk5rUP//J8/N3Uj1fnvczT30FoePmDnnDOQuhA05ywzring+6yfCkl95ueMRTxqZ1TrtpnbbnEqZ5fX6elxd0NmZ4sI7gzikCsW+E6CJQsdShnza0MfhVe4guQpL52aCBUOpGUpN69NNTk/q6/KsIx8P0+o7wxyB03NwhbzhnIXTA6dCwErlpvWRsWumdVqNpnbbnEqZ5fX6elxd0NmZ4kKPwn/kiEPtGiC4CFUsd+mlDG4NftYfoIiSZnw0aCFu6oyb1zN8+ziaFbFdfC38MQsfNHfKGcxZCB5wuDStxz3/Km9Zpey5hmtfn53l5QWdjhgexWSWKQOwbIboIVCx16KcNbQx+1R6ii5BkfjZoIDx6uGpS583SpNLvUW1i2/pWBB3gj0HouLlD3nDOQuiAuW/MTaTfZt8F1rRO+rnQvGGa1+fneXlBZ2OGBOQLlCLgJgmii0DFUod+2tDG4FftIboISeZng8bC8y64kb2TusvYpG65mpzIxy//0vB//erHh1/5octsRtNTX0LqAH8MQsfNHfKGcxZCB+yzYb3oCVcMr3/R387WtB797FsPX3P3M/PcST8XmjdM8/r8PC8v6GzMNIJTT3vwu6kV/i6p+IXTEaKLwK+6Sh36aUMbg1+1h+giJJmfXUUXfONNh4c8/rbDne95kxzvwkf++PPDW/7z3wwfed/nbWYYfvH3vt4etXnOw//MHrXrWwOh1AH+GISOmzvkb2o7C6ED5viN7ue87k72qM0vPvKjqwfjvm988E2Hb3rQzdbNZhc++v4vDW971WfyeBLPBaF5wzSvz8/z8oLOxgwEp37iQe++Vj/HsshMVhBdBJJJHfppQxuDX7WH6CIk2dHsqkmdM2OT+uTYpL5gM4VtmlXCVx2eA4RSB/hjEDpu7pA3nLMQOmDXG7O7WSVs353ucaPhgd9/1qxN62Pv/zubaeBK73y+O55LhOYN07w+P8/LCzobMxbkZpUfUJNEWWyZFIguAsmkDv20oY3Br9pDdJFGstSkHprfSd3UZqaTm9QrxyY1jgWfc9tmlfAO4TlAKHWAPwah4+YOecM5C6EDdrkxt2pWCbD42rFppT9+M1fT+oNXfTaPTVzpnc93h3NpQfOGaV6fn+flBZ2NmTFYN6uEfo5lMZp4iC4CyaQO/bShjcGv2kN0EUt29HHvghmb1OXwcc8/pxJMaVYJ/5zCM4RQ6gBWX2TnCz/hLIQOmHpjbt2sEqG+O93jzP00rZC3h+tiwxqb1bvGZlWm9HMEnY2Zag/RRSCZ1KGfNrQx+FV7iA64+0W3GO7/qFvP0qQ+cOlnh3f8zlWuSSH+Oa2Cqc0q4Z9TeIYQSh3Qqq/Fzhd+wlkIHTDlxnzO70xoVolGfXM3rT9+6+fz/zsaeTdxXWtY1qzyw9Uwop8j6GzMVHuILgLJpA79tKGNwa/a09Z9y8POzt9JnU3+LqlteM+bP5XfSV195dGvIlRFrPHP6dTmZvVdfxo3OfxK0EEodUCsj7HzhZ9wFkIHbHtjTm5WCVLfuXe+4fCtj7j5cM8H7f4fuE9/8ivjO63P+KZF8iquSw2r/Rvs5WED0NmYqfYQXQSSSR36aUMbg1+1x+tSk3r2K+42PObpt9+5Ub3nkk8Nv/xDHx5e84IrhqvWjSpRFbHGPyeuc4iD8CtBB6HUAb317fzj8YSzEDpg0o/vBVPqu/IjXx5e/+tXDS+++ONjk7nGZqdx1m1vMDz8KWcPP/rS2+Xfjs+QvIrr0q818N9gpyYJ0NmYqfYQXQSSSR36aUMbg1+159rhPmOT+qk5m9QPrprU1X9dmpRPywvvvK48YpPMC6HUAT6V0HFzh7zhnIXQASehYSU+/Ym/P76mJfIyrisNS/8GOzVJgM7GTLWH6CKQTOrQTxvaGPwsWDWpr5+xSX1obFJ/BR/5RiCxL9VHSOd1FZ6T8LNxRdBBKHWATyV03NwhbzhnIXRA743Zyy71HVvT+qfl12bmPhfnJ7bQvGGa1+fneXllYfNvsFOTBOhszFR7iC4CyaQO/bShjeVRblIvT03qDjs3qXePTep5Y5N6tWtSoSAI/UrQAZ3XlXcQm2ReCKUO8KmEjps75A3nLIQOOEkNK3EsTesl5ePh3Ofi/MQWmjdM8/r8PC9vtQBfsLcoX3Lp7+lAZ2Om2kN0EUgmdegnhDe+2VcN3/bI2wwPeFT6GzlvYLPT+OI1Xxn+4HVXDW//nb8dvvC5r9jsCl9CKAhCqTOe+/v/yB61+Zn0BbvhHMRByLwQSh3gUwkdN3fIL42dhdAB6svln/2dr7VHbX7hkX9hjwpz1Zf+mqD7PuLmw7d+983y3421C+nviX/n714zvOsNnxu+dI24lYHT9Uv3M3RXLmu6KYPOxky1h+gikEzq0K8hvPHNbjA89PHnDj/9iruN4zk7NarUpN78yk8Mz/sXHxre/Iorq0aV8CWEgiCUugk4B/FCybwQSh3gUwkdN3fIa9FZCB1w0t5hHZH+8Ym3verTw4uf+PH8E7/UcKaS/yLAx958fKd17nD/cTyz4+9LO13fYeVnpg+3rOnnCDobM9UeootAMqlDP3tYmtTX53G+JvWJ0qTIYfjZoIFQ6ibgHMQLJfNCKHWATyV03Nwhr0VnIXTASW1YidS0/vvYtH7jiX89Y9M6J4+bmtbp2LDWz0gfblnTzxF0NmaqPUQXgWRSZ6vH0aR+KTYphByGnw0aCKVuAs5BvFAyL4RSB/hUQsfNHfJadBZCB0xqWHus7wvjtZb+nOBcTSu9w+ppWqdbwzoD1/XhljX9HEFnY6baQ3QRSKZ06e+TetpL7zJjk/qz4RJrUr31IX42aCCUugk4B/FCybwQSh3gUwkdN3fIa9FZCB1w0htW0q0+HlrTevU8TeuHn3/b4axz+P1wOjWsVduFCX24ZU0/R9DZmKn2EF0EkjHd//ysO44N66st2p7007zXPP8vh3/9qA+MTeroO6nt60P8bNBAKHUUrnMr4oWSeSGUOsCnEjpu7pDXorMQOuB0aFiJ3LT+z88ML3z8FcMbXnR1/m32qdzCfnqoOF0aVnmPCOv6cMuafo6gszFT7SG6CCRr6S74xpvZo+1ITerVY5P6pcf/6fCuN109S32Inw0aCKWOwnVuRbxQMi+EUgf4VELHzR3yWnQWQgfs7cZMOItped/31muG37j44zs1rTt+w+b/iJ8ODct/oIV1fbhlTT9H0NmYqfYQXQSSSV0HV1/5d2OT+tjw76xJOb/KvDMvOQw/GzQQSm8K3+VWxAvlV4IOQqkDfCqh4+YOeS06C6EDTreGlZijaW3ipDes+ts3WNeHW9b0cwSdjZlqD9FFIJnUEWKTonkr88685DD8bNBAKL0Bn4bv8rJOXfSDUOqA/vqouUNei85C6CZwqPpY3qlNqzuvuEaQnc8lTPP6ynz7RwWwTz/JsqafI+hszFR7iC4CyaQOqJsUQvwq88685DD8bNBAKL2B/oYAiBfKrwQdhFIH9NdHzR3yWnQWQjeBQ9Wn8mLT+sSf4x+W53TnFdcIsvO5hGle32q+3awSsE8/ybKmnyPobMxUe4guAsmkznju4/50eOcbY5NCiF9l3pmXHIafDRpp2Ka/IQDihfIrQQeh1AH99VFzh7wWnYXQTeBQ9W3Km5rW//H0Ky3aTHdecY0gO59LmOb1XbvhN9hhST/JsqafI+hszFR7iC7SeaDISajPzwaNNGzj03ADL+vUifqkDuivj5o75rlmt+dQ9fXmlUzJq2+WNTufS5hmuvzOShYPS/pJljX9HEFnY6baQ3SRzgN1ftrQxpC32kN0EZLMzwaNNGzj03ADL+vUifqkDuivj5o75rlmt+dQ9fXmlUzJq2+WNTufS5hu6dYfA2XxsKSfZFnTzxF0NmaqPUQX6TxQ56cNbQx5qz1EFyHJ/Kx06MKn4X5e1qmLfhBKHdBfHzV3zHPNbs+h6uvNK5mSV98sa3Y+lzAdde47K1k8LOknWdb0cwSdjZlqD9FNBvykIclb7SG6CEnmZ6VDF/0NARAH4VeCDkKpA/rro+aOea7Z7TlUfb15JVPy6ptlzc7nEqZRV33BLouHJf0ky5p+jqCzMVPtIbrJgJ80JHmrPUQXIcn8rHQAuK6/IQDiIPxK0EEodUB/fdTcMc81uz2Hqq83r2RKXn2zrNn5XML0ka7500BZPCzpJ1nW9HMEnY2Zag/RTQb8pCHJW+0hughJ5melA8B1/Q0BEAfhV4IOQqkD+uuj5o55rtnC3m7MhLOYN69kSt59nUuYTrpms0rI4l0dQgdr+jmCzsZMtYfoJgN+0pDkrfYQXYQkk3sofJdPI3Q2ZsRB+JWgg1DqgP76qLljnmu2cFo1rKlMybuvcwnT7m9diMjiYUk/ybKmnyPobMxUe4huMuAnDUneag/RRUgyuQfwOr7LpxE6GzPiIPxK0EEodUB/fdTc0XvN9nJdaViz593XucD06p3VFJMELOknWdb0cwSdjZlqD9EJtA78pJDkrfYQXYQkk3sAr+O7fBqhszEjDsKvBB2EUgf010fNHb3XbC9Lw2qz74ZVPgZOMUnAkn6SZU0/R9DZmKn2EJ1A68BPCkneag/RRTpfcIbfzb18GqGzMSNq8ytBB6HUAf31UXNH7zXby0lvWL3MnXefDcv/BvsUk4SzEDpY088RdDZmqj3SpIneAXmlEHQ2Zqo9RBfpfMEdsMXv5l4+jdDZmBG1+ZWgg1DqgP76qLlDX4vbszSsNvs6l/zOaleTjLMQOljTzxF0NmaqPdKkAMn0DtBJIfGr9hBdpPMFd8AWv5t7+TRCZ2NG1OZXgg5CqQP666PmDn0tbs/SsNrs41zWHwN3MVnjLIQO1vRzBJ2NmWqPNClAMr0DdFJI/Ko9RBfpfMEdsMXv5l4+jdDZmBG1+ZWgg1DqgP76qLlDX4vbszSsNsd9Lu5XF6aaOJyF0MGafo6gszEj9wggmbYAnRQSv2oP0UU6X3AHbPG7uZdPI3Q2ZkRtfiXoIJQ6oL8+au7Q1+L2LA2rzXGei2tWiSkmFc5C6GBNP0fQ2ZiRewSQTFuATgqJX7WH6CJdL3jQQOhXuJdPI3Q2ZkRtfiXoIJQ6oL8+au7Q1+L2nFYNa495j+tcTj31n/w/TdnO/xprwlkIHazpfywWdDZmxuAFb76XBW2e8ZA/skcAJJNpZ6jPQ3TAL73xHvZoGj/9nR8I3izTuDIu/eLv6X8BOvKch/+ZPapp5f23b7hrHnv5uUd82B6t6iu0n8fPv/7r7NE8/Pz3Xj5maueK7O1fOE44ixL8q/96R3vU5t896i9XD2bOq5j7XKp3Vkds2/WaOAuhgzXdlEFnY0buEUAybQE6KSR+1R6imxnvzTN1/ofQIzb15u3Fp9rdrxd9zRaWd1ht5j4X2qwSvSbzPMmypp8j6GzcCUim/UAnhcSv2kN0M+O9Z84kDmLuvD7VzM9DcKgbc557qnCwvDOei2xWif0+ybI2qSEItF2vH+i0oY3Br9pDdHMAht575kziIOZ+Tj7V3O4BsD/EjZmY554qHCzvTOeysVkl9vsky9qkhiDQdr1+oNOGNga/ag/RzQEYeu/dMzkHcRC7Z/L4VHO7B8B+3zfmEb33VC9z593nuZxxMv9rUNZ0eXKxibaDvDa2AZ02tDH4VXuIbg7A0Hvvnsk5iIOYlkn4+cQ2HhNgv88bE+m9p3qZO+++ziW/s7p+NCzws7EJJNPOoNOGNga/ag/RzQEYeu/dMzmHzuuoH+7nU82dNwD2+7oxI733VC9z593Huaw/Bi4NC4Bk2hl02tDG4FftkSZbErwg9Cu753QOnddRP9xv9lQKyLWPG7NFb95eZsnrLPrqm3oup57ywD90O0/C74zUlDVW3gvfcm971ObpD/kf9igBfjY2gWRS11HfCuJX7Tk1PG/D71n91Hf8CU3mZ4MGQqkDfBqhszEjDsKvBB2EUgf011fW/rfXX2iP2vz891xujwJgr6/Zwj7uqZ953dfYozbPfdTH7FHNLnnXOAuhA7Y9l+oL9tP7HVYv4GdjE0im04JOG9oY/Ko90qRAkvnZoIFQ6gCfRuhszIiD8CtBB6HUAf318bVuwKLXb3mH1Wbbc2n+NPA62bCqPeBnYxNIptOCThvaGPy0OYck87NBA6HUAT6N0NmYEQfhV4IOQqkD+uvja8g812xhaVhttjkX+qsLS8MCIJlOCzptaGPw0+YckszPBg2EUgf4NEJnY0YchF8JOgilDuivj68h81yzhaVhtek9F9qsEkvDAiCZTgs6bWhj8NPmHJLMzwYNhFIH+DRCZ2NGHIRfCToIpQ7ora+XQ92Ys9xTwCTd1LzOojNvx7nIZpW4rjQsJ6v2gJ+NTSCZ1KGfNrQx+GlzDknmZ4MGQqkDfBqhszEjDsKvBB2EUgf01tfLIW7MxCz3FDBJNzWvs+jMu+FcNjarxNKwAEgmdeinDW3c5NcJSeZngwZCqQN8GqGzMSMOwq8EHYRSB/TW18u+b8wjeu+pXrrr68y7z3Pxfwe74KQ3rF7cjmp7mZDOcBZSh37a0MZNfgVt1171s0EDodQBPo3Q2ZgRB+FXgg5CqQN66+tlnmu2sNeGNaU+v4myr3PJ76x2NYns90mqNaTo3I5qO9FF4CykDv20oY2b/Ararr3qZ4MGQqkDfBqhszEjDsKvBB2EUgf01tfLPNdsYWlYbVrnsv4YuItJi/0+SbWGFJ3bUW0nugichdShnza0sR9t1171s0EDodQBPo3Q2ZgRB+FXgg5CqQN663MI2TzXbGFpWG3iubh/kXmqCeNQT1JTPJxbZU10ETgLqUM/bWjjJjrzkmR+NmgglDrApxE6GzPiIPxK0EEodUBvfQ4hm/uaXRpWGzyX1TurHU0Uh3qSmuLh3CproovAWUgd+mlDGzfRmZck87NBA6HUAT6N0NmYEQfhV4IOQqkD9JkTxJ65r9mlYbU5Opfy08AdTDZxqCepKR7OrbImugichdShnxZ20pmXJPOzQQOh1AE+jdDZmBEH4VeCDkKpA3rP/FDX7NKw2qRz8b+6MNGkh0M9SU3xcG6VNdFF4CykDv20sJPOvCSZnw0aCKUO8GmEzsaMOAi/EnQQSh3Qe+aHumYn3VNTmVKf30SZ+1x8s0pMMFkaFgBnIXXop4Vtqj2deUkyPxs0EEod4NMInY0ZcRB+JegglLoJHOqanbthzV6f30SZM2/drBJbmiROesPS5ZVFJ6v2EF0Ekkkd+mlhm2pPZ16SzM8GDYRSBxylOfvcGw7P/O0Lh2//gdvkxxHnIA5C5oVQ6iZwuGu2U9frp3RT6vObKHPlbTerxBYmRywNC4BkUod+Wtim2tOZlyTzs0EDodQBKc0/ut/Nh1uec8PhwWOzesZvXTg85UV3Hi76vlu5xuUcxEHIvBBK3QQOd8326XqZvT6/iTJHXv0b7J0myKEaVi+6vLLoZNUeootAMqlDPy1c42TVHvCzsQlJ5meDBkKpA+79kLPs0YrzLjhzePgTzlk3rns/dLXuHMRByLwQSt0E5r5m576nepm9Pr+Jsmve/M5q9uI7D3fuJ6kpQl0e6GzMVHuILgLJpA79tHCNk1V7wM/GJiSZnw0aCKVuJL17Ou+CG1lUkxrXne95E4uCgzgImRdCqZvA3Nfs3PdUL7PX5zdRdsm7/hg4e/Gdhzv3k9QUoS4PdDZmqj1EF4FkUrdhtYXbUW3vzEsOw88GDYRKd//x494mPnjp5+zRCucgXiiVF0Opo3Dd3Nfs3PdUL7PX5zdRpuZ131nNXnzn4c7yJLspHro80NmYqfYQXQSSSd2G1QLxq7YTXYQchp8NGgiZ7hsuurk9avPFa/5h+MCln7Wo4PzEC8XyZiCUOgrXzXLNOguhA67PDav6gn324jsPd5Yn2U3x0OWBzsZMtYfoIpBM6jasFohftZ3oImN9N77ZDSwo+D3BAcKoSx//0hfrilajOuLMm0It4oWaVl8vKm+f+aHuKcc+6/ObKNvmbf40cPbiOw93lifZTfHQ5YHOxky1h+gikEzquiF+lfnmvN/2yFsPz/5PdxnOv7D+jsnvCQ4Q4sq32Bfnig/mZlVXlBpd+nWH++HHyD02LJ+K75rlmnUWQgdcHxtWs1klZi++83BneZLdFA9dHuhszFR7iC4CyaSuG+JXmfO8j3nGHYZHXHzecKPx3cxjnn77Wd5hbfcRsBikGh73c7cfxzPyTw0f9ZPn2cqIeKH8StBByB08PhXfNcs16yyEDri+NSz3ty5EZi++83BneZLdFA9dHuhszFR7iC4CyaSuG+JXmXtdakpP+JU7j++CbrmaHEnvap7wy19rkcfbBXMIb9f5ETA2hNSofuR5X+P2pl99+JfjXFrLiBeqt75eYn2MWa5ZZyF0wF7vKWex/7yrd1Y7miS6i9/n4QJaV9Z0eaCzMVPtIboIJJO6bohfZb6aOPvcr86N6oJvvGmOkdSw0jusFt4umFuIzY/x9tddlUc884c/8Zz86wyR9OsNqWGtf5FUvFA99W2DT6XywprII69FZyF0wPWlYZWPgTuYHNFd/D4PF9C6sqbLA52NmWoP0UUgmdR1Q/yC+fkXnjn8xEsuzE2JkRrOQx53W4s83i6Yj+HdN3wE/NQnvjx8/PIvWjRuGfd8+w/ctvoFUiQ1sSe/6M6lZvFCbapvW3wqlRfWRB55LToLoZvAoeqbI6//DfaJJt5C6IC5G1Yvur6ypssDnY2Zag/RRSCZ1AG71Hefh509PPFXLigfqwQPedw59F2SL6FE513Y8RHwHf6ngOm32NMfx9lE+h4rvcM6+q13dRCsvqn4VCovrIm0c99TvRyqvl3z5ndWByte33FreuuTdNdX1nZpCAWii0AyqQOm1Pdtj7zN+PHuDl2NykGS+dlV1PMR8N2XfNoebU9qWI962nmluYmDaNW3Cz6VygtrIu3c91Qvh6pvl7zrj4EHK17fcWt665N011fWpjSE2proIp1ngWxT32OfeYfhuy+Gn6xt4IvXfGV42TM/Mrz7TVevJkgyP3tt50fAL1i04j1j8/rfn/0X+SeEvaRm9c+PflIoDiLW14fwc0sqL6yJtHPfU70cqr6ped2vLhys+M6btLc+SXd9ZW2bhrCm2kN0kc6zcH7aMP/E7+LnXzC+4znb5jZz9dhQUqO6/H3X2IxBkh3NbvcR0Htd/r7PD//xWX+Rm1kv93rIWfkPQ+d3iuIg/ArXeYSfW1J5YU2knfue6uVQ9U3J65pV4mDFd96kvfVJuusra5sawhFOVu0hukjnWTg/suX8C2+cG1XrJ36M9MX3f/jR/2+44rLyBbiDJEuzPR8B33XJp+xRwnul3L/2pI+4L983cbsLzsy/7pC/eBdnx1cUws8tqbywJoqY+57q5VD1bZu3alaJgxXfeZP21ifprq+s6fJAZ2Om2kN0kwG/YHjUqNRP/CLvvuTq4TfHd1Rf+NxXdH3kML7holvYozZHPwX0u32UPn7+x2d9dHjPm/u/10oNK33xPlfDUvUhPpXKC2tc5nURZyF0EzhUfdvkbTarxMGK1x1hTW99ku76ypouD3Q2Zqo9RDcZ8LOH6Sd+P/GSu2z1RfofvO5vhlc//y/HRvX3NrOhvnAY6Y/pnL3hI+D74aeAfrePUsN67QuuGN7yn//GZjaTvnh/8ou+dvWTQvFCyecEqPoQn0rlhTUu87qIsxC6CRyqvt68tFklDla87ghrev0k3fWVNV0e6GzMVHuIbjLF5aGPP3d47DPuaFEfrxmb1Otf+nGLEp31wWH0/RRw/AgIht67zvSWV35yeO0Lr7Coj/STwoc/8VxX21Q21XfESW9Yc78JmL0+v6mJbFaJgxU/5XAF89RX1nR5oLMxU+0huslcOzzgUbfJzaqX9A7mN595+fCu9BO/qfXZYXR9BDz6HgwMvXedKf2k8Nef/JGtflJ4v+89e/WrDZ3XUcUW9R3hUwkdN3fMc80WTveGtbFZJQ5W/JTDFcxTX1nT5YHOxky1h+gm8rB/0d+orr7yy8NLn3H5cNl74Sd+E+u7+/1u3vER8DP2yABD711nSt9zpZ8UbvPFe/p73jPXg4bVy+ncsPTfwQ4crPipFxphnvrK2qEaVkuX/qxf73dU6ab/9z/6ofVP/Hatb9O7qkT+CBgdIPQrdaZVw/pod8NK32H1/NEcyRb1HbE0LMBZ7JY3v7Pa1SQye/FLw2oSdekjXS/pDwSn5kbzVkUQnbHpF0HT722tPwJGBwj9Sp2p1N3HVeO7xzVLw1pzOjas9cfAXUxazF789axh9YI70q8bXH3l31mkSe/A0k8L008Np9SHS3cf31Vtekf3gfEjoLcL5hAyXfop31NfnH4BtOvbi/wdWWrgzq/7Ogo6CP0K99trw5rA6daw3N9nNdWEMXvxS8MqQDLc8apf+Zg96iP91HD1hXzbT9V39Kj/I2C0C+YQRt23P+62w6N/8nyL+3jtC8tPN51f93XUXx/DpxI6bu7ovVd6OZ0a1uo/UTuaqC2zF999ofUxT31lTZcHOhsz1R5pUoBkR48ue+/nhpc+47KtPhKmZvX9z0y/6lD7ZapyvK7nIyD+Nry3C+YQHj189NPPz/+acy/pp4YvesqfDx953+dtZkXI1Mnm+lZw96VhAc5iu7zl/fQOJhmxZfbipzSsY6+vrM3TsDohDeslT7+s+yNhIv25wae99K7DjW/WvCQa9a0mej4Cvv11f2uPCt4umFuYfJ/64guGez9k8+9vHZG+fE9/IJp9CV89DUJPfQmpA5aGBTiL/rz+w/9EkzViy+zFLw2r0GhYV1z2heFXL/7QcEX42w0U6SdnFz//QvcPRuj60t+wsPkj4PvfHn5lwfB2Pkq1POGX77TVHxVaNaqjnxZWxa7hKx5VH4ZSBywNC3AWfXnrbyonmByq+KVhAY2Glb5wf+n4Dutdb1r99cE9rBrWBd0Na9NHwNQ48js8chh+dhWlv7kh/R3w2zSq9OcI0y+OpudcaOfchlZ9ayCUOsAfg9Bxc0f3vdKr67ynZqnPWWzOWzerxJYmiUMUnziZh1vWdHmgszEj9wgg2dGjdPOmL90vecWVNrOZ8pPC8vGrVV/PR8B3H/1dWAlyGDib/vmuHxs/+vX+xC+R/vxg+nOER/g07Zzb4B2CH4RSB/TWN8s1C3Tr9EW7Zpb6nIXOy6+ILUyO2HfxR1wnG9ZUIBn6venlfz3pJ4Xf86PlL+tz9Y1B10fA8NcXs8NIs+mvUH40+UcqGOnPDaY/Pxjxado5t8E7BD8IpQ7ora/3mu3ldL6n9G+wd5og+yx+Cvutr6zp1x50Nm5C27X90sfB9D3WNj8pTH8NMmtYm5rV+iNgpHEY333x7fKvJ/SSfuL360++fHiP+7uxPL0NoRfvEPwglDqgt77ea1biLPpMTlrDyu+sdjWJ7Kv4qey3vrKmX3vQ2bgJbdf2S1+8p58U9n7xnhpb/kPOob6ej4CrfYRwGOn3sHqbaGqCL3vWn9sX6QnvhfQ2hF68Q/CDUOqA3vp6r1mJs+gzOUkNa/0xcBeTFvsofhf2W19Z06+9XGyi7SCvjYnUsNIX7z0NK310TPoVxeXu9+/7CNhbX/o9rNe84K8s4qwa1epXE7w3z9TbEBzihZJ5IZQ6oLe+3mtW4iz6TE5Kw3LfWU01YRx38buy3/rKmn7t5SIAfjY2gWSoS1+8/+oTP5Q/GjJe/fyP1X9Tgrls8xGwt77U3FTDSh/5fu1Jlw9fhJ/4eW+eqbchOMQLJfNCKHVAb32916zEWfSZnISGVX3BPsVEcZzFz8F+6ytr+rWXiwD42dgEkkUd+0lh+gjHPsalX1fo+wi4fX3p4+DRH81B0pfor4Gf+KGh9+aZOu83j9gk80IodYBPJXTcvB9n0Wdy6IbV/GngtiabOK7i52K/9ZW1STdPBfjZ2ASSRd3RTwqPvjNK76ZSzOq7x/35v5p8RHlHtn196d3VBy4tP0V87Ri/+ZWfGB8FBwj9Cs/Ue+ZOJjbJvBBKHeBTCR0378dZ9JkcsmE1m1ViG5MejqP4OdlvfWWt9+bRgJ+NTSBZ1KWPg+mL9/e/49Njo/qozdb1pX/Wa9M/6YUfAVdsX99Rw/q1J18m/zUcDP0Kz9R75k4mNsm8EEod4FMJnVjrBix6/Q7VsNzfuhDpNel+kn4TZe68vey3vrLWe/M4qj3gZ2MTSBZ16Yv03/7Xfz6sfgscdCDs+d2q/BGwKoLndViyVMPLf/6j+Yv3hN8THCCUugk4B/FCybwQSh3gUwmdWEPmuWYLh2hYq3dWO5okup+k30SZPe8BDjeh6ytrneV5qj3gZ2MTSKbTgs4e3v2ijo+AR38WsDLvzEsOw88GDYRSNwHnIF4omRdCqQN8KqETa8g812xh3/dU+Ri4g8kR3U/Sb6LMnnfPh3uErq+sdZbnqfaAn41NIJlOW1bTl+o9PwW8Cj8CVuadeclh+NmggVDqJuAcxAsl80IodYBPxXW9nM73lP8N9okm3kLogLnz9nJdaVhOVu0BPxubQDKps9Xuj4Ajzq8y78xLDsPPBg2EUjcB5yBeKJkXQqkDfCqu62Wea7awr3sqv7Pa1STjLIQOmDtvL0vDAiCZ1I2rPT8F/JO3l39F2flV5p15yWH42aCBUOom4BzECyXzQih1gE/Fdb3Mc80W9nFPrT8G7mKyxlkIHTB33l5OesPqxe2otpcJ6QxnwXTpp4Cb3lmlX1dY/RSQ+FXmm/NmyGvlZ4MGQqmjcJ1bEdeRzAuh1AE+Fdf1Ms81Wzjue8r96sJUE4ezEDpglrwTOL0bVtG5HdV2oovAWbR0XV+sv6O8q6J5K3Oddw15rfxs0EAodRSucyviOpJ5IZQ6wKfiul7muWYLx3lPuWaVmGJS4SyEDpgl7wSWhgXAWUTdPbr+LGD7j+YknF9VBM/rIK+Vnw0aCKU3he9yK+I68itBB6HUAT4V1zmEbJ5rtnBc91TVrBLbmjRxFkIHzJJ3AiezYfVSPJxbZU10ETgL1KV/tVn9wefUqPzf0nkEyVsVQXQR8lr52aCBUHoDvQ3Byzp10Q9CqQN663MI2dzX7HHcU81mldjGhOIshA6YJe8EloYFwFkcPXrbf/1k/oPPz33cB4f/+yVXVI0Lv1ivIXmrIoguQl4rPxs0EEpvoLcheFmnLvpBKHVA5yXrEXvmvmbnvqdos0r0msz+JP0mSq9fL0vDAuAsUJe+QMfGlf4QdJpL76z08ZG81R6ii5BkfjZopGEbn4YbeFmnTtQndYA+88Khrtk57ynZrBIHe5J+E2WSn2BpWACcRUuXmlT6Q9CpaR19BNTHR/yqPUQXIcn8bNBIwzY+DTfwsk6dqE/qAH3mhUNds3PdUxubVeJgT9JvokzyEywNC4CzkDr004Y2Br9qD9FFSDI/GzTSsI1Pww28rFMn6pO6CRzqmp3jnjrjpN+YvXl76c570s9Fysqik1V7iC4CyaQO/bShjcGv2kN0EZLMz0qHLnwa7udlnbroB6HUTeBw12ynzpuvye+srhcNa0rek34uUlYWnazaQ3QRSCZ16KcNbQx+1R6ii5BkflY6dOHTcD8v69RFPwilbgKHu2Y7dd48s/4YuDSsNoc6l150eWXRyao9RBeBZFKHftrQxuBX7SG6CEnmZ6UDwHU+jdDZmBEH4VeCDkKpm8Dc1+xx31PuO6ulYbU5mQ2rCHV5oLMxU+0huggkkzr004Y2Br9qD9FFSDI/Kx0ArvNphM7GjDgIvxJ0EErdBOa+Zo/znqq+YF8aVpulYQGQTOrQTxvaGPyqPUQXIcnkHgrf5dMInY0ZcRB+JegglDoK1819zR7XPdX8aeDSsNrs9Vy6KR66PNDZmKn2EF0Ekkkd+mlDG4NftYfoIiSZ3AN4Hd/l0widjRlxEH4l6CCUOgrXzXLNOguhA7a5p5rNKrE0rDZLwwIgmdShnza0MfhVe4guQpLJPYDX8V0+jdDZmBEH4VeCDkLuoFB5+8zlNesshA7ovados0qcVg1rKlPy7vNcuikeujzQ2Zip9hBdBJJJHfppQxuDX7WH6CKdrxXD7+ZePo3Q2ZgRtfmVoIOQO3j66+szl9essxA6oOeeks0qcV1pWLPn3ee5dFM8dHmgszFT7SG6CCSTOvTThjYGv2oP0UU6XysHbPG7uZdPI3Q2ZkRtfiXoIOQOnv76+sz3fU9tbFaJpWG1WRoWAMmkDv20oY3Br9pDdJHO18oBW/xu7uXTCJ2NGVGbXwk6vo3SXx+siTz7vKf838EuOOkNq5e58x6qYWldWdPlgc7GTLWH6CKQTOrQTxvaGPyqPUQX6XytHLDF7+ZePo3Q2ZgRtfmVoOPbKP31wZrII69FZyF0ALun8jurXU0ih3qSvcydd2lYACSTOvTThjYGv2oP0UU6XysHbPG7uZdPI3Q2ZkRtfiXo+DZKf32wJvLIa9FZCB3QuqfWHwN3MWlxqCfZy9x55z6XXnR9ZU2XBzobM9UeootAMqlDP21oY/Cr9hBdpOu1ChoI/Qr38mmEzsaMqM2vcF0v/fXBmkh73PfUqR/5x//t2uGURSOnMBCcOtWp8+YUmddZtHW/8baL7FGbJz/wUnvk2TVvZK5z+Q9vva89msbTHvxue5QoCVh5L3zLve1RH09/yB/lUT5bSPb8S77JHvXxrIe9zx4h8DxszIzB8954Twvm4af/2fvtUXiGEPqVoAP8mQudjRlxHfmVVfRv33DXPDJ+7hEftkc1/fXBGpd5XcRZCB1wdE+t3lnN0PUYh+rKvcyd91DvsDQlQWd53Ui7uZPh87AxM3caRzCH0K/wIvwxCJ2NGXF2foXrPMLPJ7axpveaPa57qvw0cAeTTRzqSTr2mPf60bDAz8Ym8yQDOvPuiPcOmSCUOsAfg9DZmBFn51e4ziP8fGIba3qv2eO4p/yvLkw06eFQT9Kxx7xLwwImJNNbOvPuiPcOmSCUOsA/J6GzMSMOgq8ohJ9PbGNN7zU79z3lm1VigsnSsNosDWs3dH3Hlxfx3iEThFIH9DcEQBwEX/F4nfDziW2s6b1m57yn6maV2NIkcdIb1sHyznwuvej6ylpneRsAPxvnQtc3d7Y2PkvICaHUAf0NARAHwVc8Xif8fGIba/Z9T7WbVWILkyOWhtVm0rnMgPYra53leao94GfjbvTWN0+2TfgsISeEUgf0NwRg0gvl8Q4ir09sY80+7yn9G+ydJsihGlYvc+c91nOZAe23Y65qe5mY51mAnzScJ9smfJaQE0KpA/obAtB5HVXANu8g8vrENtbs65469S//8VvzynH9bsQm5vrdjZe87f4WtHnSA95hj1bMlfeIuc/l1/7bt9qjNj/+oHfmcZ76ypouD3Q2Zqo9RBeBZFKHftrQxuBX7Tk1PO+N97DHbX7qO/6EJvOzQQOh1AE+jdDZmAm1/cIb7maP2vzswz+0egDbvIPI6xPbWHPc99T6Y+CuXS+yvMNq03suvcxTX1nT5YHOxky1h+gikEzq0E8b2hj8qj3SpECS+dmggVDqAJ9G6GzM6IPgwDbvIPL6xDbWHPc95b6zmufCL+y1YU1glrzOoq++pWEBkEzq0E8b2hj8tDmHJPOzQQOh1AE+jdDZmNEHwYFt3kHk9YltrDnOe6r6gn2eC7+wNKw2S8MCIJnUoZ82tDH4aXMOSeZngwZCqQN8GqGzMaMPAgg6CP0K9+uvj5o7tr1mmz8NnOfCLywNq83SsABIJnXopw1tDH7anEOS+dmggVDqAJ9G6GzM6IMAgg5Cv8L9+uuj5o5trtkzmHaeC7+wNKw2S8MCIJnUoZ82tDH4aXMOSeZngwZCqQN8GqGzcTvCLgj9isjrloSOmzt6r9nVOyuinefCLywNq82khnXs9ZU1XR7obMxUe4guAsmkDv20oY2b/Dohyfxs0EAodYBPI3Q2bkLmhVDqgP76qLmj55otHwOJdp4Lv3CohjVJNzWvs+jM23kujmOvr6zp8kBnY6baQ3QRSCZ16KcNbdzkV9B27VU/GzQQSh3g0widjZuQeSGUOqC/Pmru2HTN+u+siHaeC7+wNKw2S8MCIJnUoZ82tHGTX0HbtVf9bNBAKHWAT8N1vci8EEod0FvfHPdU/RvsRDvPhV+Yu2H10l1fZ96Tfi7z1FfWdHmgszFT7SG6CCSTOvTThjb2o+3aq342aCCUOsCn4bpeZF4IpQ7orW/Xaza/s6oWidE8F35hrw1rSn1+E+Wkn8s89ZU1XR7obMxUe4guAsmkDv20oY2b6MxLkvnZoIFQ6gCfhut6kXkhlDqgt75drtn1x8BqkRjNc+EXloa1G/utr6z1NgQnq/YQXQSSSR36aUMbN9GZlyTzs0EDodQBPg3X9SLzQih1QG99U69Z951VdaESo3ku/MLSsHZjv/WVtd6G4GTVHqKLQDKpQz8t7KQzL0nmZ4MGQqkDfBqu60XmhVDqgN76plyz/gv2kepCJUbzXPiFpWHtxn7rK2v6ZQOdjZlqD9FFIJnUoZ8WdtKZlyTzs0EDodQBPg3XOcRByLwQSh3QW9+212zVrBLVhUqM5rnwC0vD2o391lfW9MsGOhsz1R6ii0AyqUM/LWxT7enMS5L52aCBUOoAn4brHOIgZF4IpQ7orW+ba3ZsVm1FdaESo3ku/MLSsHZjv/WVNf2ygc7GTLWH6CKQTOrQTwvbVHs685JkfjZoIJQ6YNpzEn42rgg6CKUO8KmEjps77J1VW1FdqMRongu/MKlhTWVKfX4TZe5z6WW/9ZU1/bKBzsZMtYfoIpBM6tBPC9tUezrzkmR+NmgglDqg9zk5mdgk80IodYBPJXTcfA18DGwrqguVGM1z4Rfmbliz1+c3UebO28t+6ytr+mUDnY2Zag/RRSCZ1KGfFq5xsmoP+NnYhCTzs0EDodQB056T8LNxRdBBKHWATyV03DwTvrNqG1UXKsk3z4VfWBrWbuy3vrKmXzbQ2Zip9hBdBJJJHfpp4Ronq/aAn41NSDI/GzQQSt0EnIM4CJkXQqkDfCqh4+bDGXW9baPqQm3Lah0CS/rCL/Q2rF5mr89vohzqXPZbX1nT5YHOxky1h+gikEzqNqy2cDuq7Z15yWH42aCBUOom4BzECyXzQih1gE8ldMQ8v7Oq620bVRdqW1brEFjSF35haVhtloYFQDKp27BaIH7VdqKLkMPws0EDodRNwDmIF0rmhVDqAJ9K6Brm64+Bdb1to+pCbctqHQJL+sIvXN8aVi9LwwIgmdRtWC0Qv2o70UXIYfjZoIFQ6ibgHMQLJfNCKHWATyV0wdx9Z1XX2zaqLtS2rNYhsKQv/MLSsNosDQuAZFLXDfGrzDvzksPws0EDodRNwDmIF0rmhVDqAJ9K6GAtfMEeTRJto+pCJfnmufALUxvWHe9yU3vkmb0+v4nSm7eXpWEBkEzquiF+lXlnXnIYfjZoIIy68y64kT1WtHMm3Ip4oWJeB4RSB/hUQmdrVbNK1PW2jaoLleSb58IvTGlYP/Nb9xqe+9r7Do/98QuqxjV7fX4Tpdevl6VhAZBM6rohfpV5Z15yGH42aCC83digHvHE2w3P+k93GZ764jvb7CZ4RW5FvFB+JegglDrApxK68f/GZtUW1PUSXZwn+ea58AtTGtatbnfm8ODHnN9sXLPX5zdRev16WRoWAMmkrhviV5l35iWH4WdLdN6Fqwb17LFB/diLLxgu+r5bDbc854a22guvyK2IF4rVl4FQ6gCfiuvsnVVbUNdLdHGe5Jvnwi9MaVhHtBrXHe5yE1ttMKU+v4nS69fL0rAASCZ13RC/yrwzLzmMo9ncoC4+d3j2y1cN6v6TGlRMwyvysk5d9INQ6oCe+uBjYFtQ10t0cb4tq3UILOkLv7BLwzoCG9cvvvY+w2N+/M5j42p8xzWlPr+J0uvXy9KwAEgmdcCh6kucPzao7754/Ij38ruODerCsUHdelKDivg0vCIv69RFPwilDthUX/jOqm1U10t0cb4tq3UILOkLv5BuzA/9j09btBulcX1zu3FNqc9vovT69bI0LACSSR2wz/rOv+DM3KCeDQ3q7BkaVOIjf/x5ezTWoItd42WduugHodQBqr4z6m1to7peoovzbVmtQ2BJX/iFV/37y4YvfO7vLZoH2rgm1Od0YsskP8HSsIDOs0COs77VO6jzhme/4m7Dj/3G183aoI744jX/MPzuS6+0aIV/TlWxa7ysUxf9IJQ6gNV36oe+9c05OpVDpJ5JnKqmiS7Ot2W1DoElqTNufd6Nhu/5kTsN3/yAWw83vtlX2ez8XPXXXxr+6G1/O1z6+58Y/vLD1+S5nvoSTie2vPi/388etXnKP/nDPHbnrV+4Jr31ybzOQuUta7o80NmYqfYQXWRM9vxLvsmCNs986HvH/wU/bWhjyFvtOZUb1Lc89Ozh7ve/xeyNCUlN6gOXfmZ4yyv/Zrj6yi/brMc/J/4EvaxTF/0glDog1rduVol6W9uorpfo4nxbVusQWNIXfiHdmN/8wFuv/n+PjeuvPlzebivc8yBPqbdZJbY5lx566kvM87qVNV0e6GzMVHuILvD8N3+zPWqzalYJ8FOGLO8YlAZ11l4a1Pvf8dnhg5d+1mYTvHD/nITOxow4CL8SdBBKHYCpTv3QfcdmRU0SbaO6XqKL821ZrUNgSV/4Bbwx99m43vu2q9w7LoZ7Ho2ntLFZPXBsVjuei2JTfUfM87qVNV0e6GzMVHuIDuhvVgnwY4aZsnj71KAeNjaoi8YGde4xN6h3jA1qbE4fGJsUPmFfKi/cPyehszEjDsKvBB2EUgccpVo1q/wo/2+m3tY2quslujjfltU6BJb0hV9o3ZgnqXG55xFK7WpWiZnOpYWqD5nndStrujzQ2Zip9hCdsV2zSoBfy3Dk/AtvPNxnDw3q6k98efjIe68ZG9RnVg0qPkMI/QopfMQ/J6GzMSNeKL8SdBBKHZBSlWaVoCaJtlFdL9HF+bas1iGwpC/8groxT0Ljcs8DHnY3q8TM54Kw+iLzvG5lTZcHOhsz1R6iG9m+WSXAzx6WBnWLsUF99WryGEgNKr2DevclnxquuOyLec4/p/AMIZQ6wJ+50NmYES+UXwk6CKUOGJvVJWOzau+st7WN6nqJLs63ZbUOgSV94Rd6bsy73uus4V4PvE1uXumngMdFq3G552EPt2pWiWM6l0SrvhbzvG5lTZcHOhsz1Z62blqzSqQvyccG9R1nD/fYR4N6e2pQVw9XXP4lm/X4pxuePIRSB/gzFzobM+KF8itBB6HUGdas8sPVkKAmCWJUTRNdnG/Lah0CS/rCL2xzY6Y/gnO/7zp3r43LfTk/lrp1s0oc87msEVvmed3Kmi4PdDZmqj21bttmtWpQt9pvg7J3UGvIYfjZoIFQ6gCfRuhszIgXyq8EHYRSNwLNKtHe2dhmo6eul+jifFtW6xBY0hd+YcqNece7WuMaPyruo3H94e9/Mr/jevHbJjSrxJ7ORVnP87qVNV0e6GzMVHu8blOzesbYrG6/xwb1fmhQVekIOQw/GzQQSh3g0widjRnxQvmVoINQ6UKzSrR3+m2JeiZR10t0cb4tq3UILOkLv7DLjbl+x7WHxrXJnzarxJ7PpcU8r1tZ0+WBzsZMtadMvGBDs7r6yr873gZ15dig3vHp8A6KPI8IOQw/GzQQSh3g0widjRnxQvmVoIOQ6U794NiswraR9k6pA+p6iS7Ot2W1DoElfeEX5rgx99W4GE9+4KX6+brSO5/vDOeCzFNfWdPlgc7GTLVnNbGpWR0H6wb1JmhQpL5EtYSQw/CzQQOh1AE+jdDZmBEvlF8JOghbutysSoi0d0odUNdLdHG+Lat1CCzpC78w5415iMaVmlXiJJ9LYp76ypouD3Q2Zqo9p/bWrNI7tPe/4zPDu7BBjWyq74hqCSGH4WeDBkKpA3waobMxI14ovxJ0EEbdulklavv2TqkD6nqJLs63ZbUOgSV94ReO48ZMf3bwft91zrE3rqNmlTgdzoXiLFTesqbLA52NmbDnBW++lz2aH9+gvmCzR/TVR3URchh+NmgglDrApxE6GzPihfIrQQchrrhmlajt2zulDqjrJbo435bVOgSW9IVfOM4b8zgbFzarxOl0LhXOQuUta7o80NmYgWDuZpUa1J+kBvXGVYPatb4VRBchyfxs0EAodYBPI3Q2ZsRB+JWgg/DoYdWsErV9Y+eI1AF1vUQX59uyWofAkr7wC/u4MeduXLFZJU7Hc1njLFTesqbLA52NGQvmaFalQV0F76Dmqa9AdBGSzM8GDYRSB/g0QmdjRhyEXwk6CNPDZrNK1PZhpyF1QF0v0cX5tqzWIbCkL/zCPm/MO6Rfh/jO3RpXq1klTudz8RYqb1nT5YHOxswYTG1W7QYV2b0+D9FFSDI/GzQQSh3g0widjRlxEH4l6CA89YP3edO1fU8ygTttHJE6oE5DdHG+Lat1CCzpC79wiBszveO66DvPHb7pAbfqblzpVxt+9rHvsajmunAuCV1fWdPlgc7GxHP+y927fzUhN6i3f3p4Z2pQl5MvySt2q682J7oISeZngwZCqQN8GqGzMSMOwq8EnYWrZpUftY3qWZhpPzSIXzVNdHG+Lat1CCzpC79wyBszf1Qc33Ftalwv+1d/ln+BVFv35+3hutaw7nH/s4b/9d9cYFGNa1DxHRQkk2l3qC9T7SG6CEnmZ4MGQqkDfBqhszEjDsKvBN0YlmaV6HqSCZhpPzSIXzVNdHG+Lat1CCzpC79wEm7MVuN63x9cNVz6e58Y3ve2q3OcmTmv4rrYsO77z2493OOis3KMDeqv0pfkeZYAyaRuh/oy1R6ii5BkfjZoIJQ6wKcROhsz4iD8Sohcs0p0PckEzLQfGsSvmia6ON+W1ToElvSFXziZN2bhYHlP5LmUNV0e6GzMVHuILgLJpA79tKGNwa/aQ3QRkszPBg2EUgf4NEJnY0YchF8pUf13sJO/a7mehZn2Q4P4VdNEF+fbslqHwJL+u8ELJ/PvLi8cLO+JPJeypssDnY2Zag/RRSCZ1KGfNrQx+FV7iC5CkvnZoIFQ6gCfRuhszIiD8Cslyv+6TbWt60kmYKb90CB+1TTRxfm2rNYhsKQv/MLSsNosDQuAZFKHftrQxuBX7SG6CEnmZ4MGQqkDfBqhszEjDsKvrKL1P8VVbet6kgmYaT80iF81TXRxvi2rdQgs6Qu/sDSsNkvDAiCZ1KGfNrQx+FV7iC5CkvnZoIFQ6gCfRuhszIiD8Cv5n48vVNu6nmQCZtoPDeJXTRNdnG/Lah0CS/rCLywNq83SsABIJnXopw1tDH7VHqKLkGR+NmgglDrApxE6GzPiIHAl/COnDfuuJ5mAmfZDg/hV00QX59uyWofAkr7wC0vDarM0LACSSR36aUMbg1+1h+giJJmfDRoIpQ7waYTOxow4iKOVqlklqm1dTzIBM+2HBvGrpokuzrdltQ6BJX3hF5aG1WZpWAAkkzr004Y2Br9qD9FFSDI/GzQQSh3g0widjRlxEGllbFZtQTXb9SQTMNN+aBC/apro4nxbVusQWNIXfmFpWG2WhgVAMqlDP21oY/Cr9hBdhCTzs0EDodQBPo3Q2ZgRB2HvrNqCarbrSSZgpv3QIH7VNNHF+bas1iGwpC/8wtKw2iwNC4BkUod+2tDG4FftIboISeZngwZCqQN8GqGzMUNqg4+BbUE12/UkEzDTfmgQv2qa6OJ8W1brEFjSF35haVhtloYFQDKpQz9taGPwq/YQXYQk87NBA6HUAT6N0NmYadQWvrNqG1WzXU8yATPthwbxq6aJLs63ZbUOgSV94ReWhtVmaVgAJJM69NOGNga/ag/RRUgyPxs0EEod4NMInY2ZUNsZda1to1rWqcOZ9kOD+FXTRBfn27Jah8CSvvALS8NqszQsAJJJHfppQxuDX7WH6CIkmZ8NGgilDvBphM7GDGzK76zqWttGtaxThzPthwbxq6aJLs63ZbUOgSV94ReWhtVmaVgAJJM69NOGNga/ag/RRUgyPxs0EEod4NMInY0Z27T+GFjX2jaqZZ06nGk/NIhfNU10cb4tq3UILOkLv7A0rDZLwwIgmdShnza0MfhVe4guQpL52aCBUOoAn0bobMyMm9x3VnWtbaNa1qnDmfZDg/hV00QX59uyWofAkr7wC0vDarM0LACSSR36aUMbg1+1h+giJJmfDRoIpQ7waYTOxkT4gj2aJNpGtaxThzPthwbxq6aJLs63ZbUOgSV94ReWhtVmaVgAJJM69NOGNga/ag/RRUgyPxs0EEod4NMInY1Vs0rUtbaNalmnDmfaDw3iV00TXZxvy2odAkv6wi8sDavN0rAASCZ16KcNbQx+1R6ii5BkfjZoIJQ6wKcRuvH/x2bVFtS1Ep2Na7qeZAJm2g8N4ldNE12cb8tqHQJL+sIvLA2rzdKwAEgmdeinDW0MftUeoouQZH42aCCUOsCn4Tp7Z9UW1LUSnY1rup5kAmbaDw3iV00TXZxvy2odAkv6wi8sDavN0rAASCZ16KcNbQx+1R6ii5BkfjZoIJQ6wKdp6+BjYFtQ10p0Nq7pepIJmGk/NIhfNU10cb4tq3UILOkLv7A0rDZLwwIgmdShnza0MfhVe4guQpL52aCBUOoAn6bWhe+s2kZ1rURn45quJ5mAmfZDg/hV00QX59uyWofAkr7wC0vDarM0LACSSR36aUMbg1+1h+giJJmfDRoIpQ7wabyu/jvYiVFdK9HZuKbrSSZgpv3QIH7VNNHF+bas1iGwpC/8wtKw2iwNC4BkUod+2tDG4FftIboISeZngwZCqQN8mhLkd1b1trZRXSvR2bim60kmYKb90CB+1TTRxfm2rNYhsKQv/MLSsNosDQuAZFKHftrQxuBX7SG6CEnmZ4MGQqkDfJpVsP4YWG9rG9W1Ep2Na7qeZAJm2g8N4ldNE12cb8tqHQJL+sIvLA2rzdKwAEgmdeinDW0MftUeoouQZH42aCCUOsCnSb/BTk0SbaO6VqKzcU3Xk0zATPuhQfyqaaKL821ZrUNgSV/4haVhtVkaFgDJpA79tKGNwa/aQ3QRkszPBg2EUgdgmtU7K2qSaBvVtRKdjWu6nmQCZtoPDeJXTRNdnG/Lah0CS/rCLywNq83SsABIJnXopw1tDH7VHqKLkGR+NmgglDrgKE35aSA1SbSN6lqJzsY1XU8yATPthwbxq6aJLs63ZbUOgSV94ReWhtVmaVgAJJM69NOGNga/ag/RRUgyPxs0EEodkNKMzaq9s97WNqprJTob13Q9yQTMtB8axK+aJro435bVOgSW9IVfWBpWm6VhAZBM6tBPG9oY/Ko9RBchyfxs0EAodYC9s2rvrLe1jepaic7GNV1PMgEz7YcG8aumiS7Ot2W1DoElfeEXlobVZmlYACSTOvTThjYGv2oP0UVIMj8bNBBKnVE+BpKd9ba2UV0r0dm4putJJmCm/dAgftU00cX5tqzWIbCkL/zC0rDaLA0LgGRSh37a0MbgV+0hughJ5meDBkKpG4FmlWjvrLfVM4m6VqKzcU3Xk0zATPuhQfyqaaKL821ZrUNgSV/4haVhtVkaFgDJpA79tKGNwa/aQ3QRkszPBg2ESqd/g52aJOqZRF0r0dm4putJJmCm/dAgftU00cX5tqzWIbCkL/zC0rDaLA0LgGRSh37a0MbgV+0hughJ5meDBkKmy++swraR9k6pA+paic7GNV1PMgEz7YcG8aumiS7Ot2W1DoElfeEXlobVZmlYACSTOvTThjYGv2oP0UVIMj8bNBC2dOuPgWHbSHun1AF1rURn45quJ5mAmfZDg/hV00QX59uyWofAkr7wC0vDarM0LACSSR36aUMbg1+1h+giJJmfDRoIo859Z1Vbt3dKHVDXSnQ2rul6kgmYaT80iF81TXRxvi2rdQgs6Qu/sDSsNkvDAiCZ1KGfNrQx+FV7iC5CkvnZoIEQV8IX7NW2kfZOqQPqWonOxjVdTzIBM+2HBvGrpokuzrdltQ6BJX3hF5aG1WZpWAAkkzr004Y2Br9qD9FFSDI/GzQQHj2smlWitm7sHJE6oK6V6Gxc0/UkEzDTfmgQv2qa6OJ8W1brEFjSF35haVhtloYFQDKpQz9taGPwq/YQXYQk87NBA2F6eEafSSLsNKQOqNMQnY1rTlx9Yb4tq3UILOkLv7A0rDZLwwIgmdShnza0MfhVe4guQpL52aCBcPXOqsskATPthwbxq6aJzsY1J66+MN+W1ToElvSFX1gaVpulYQGQTOrQTxvaGPyqPUQXIcn8bNBYWD4GdpkkYKb90CB+1TTR2bjmxNUX5tuyWofAkr7wC0vDarM0LACSSR36aUMbg1+1h+giJJmfDZox9N9ZdZkkYKb90CB+1TTR2bjmxNUX5tuyWofAkr7wC0vDarM0LACSSR36aUMbg1+1h+giJJmf9VH9BXuXSQJm2g8N4ldNE52Na05cfWG+Lat1CCzpC7+wNKw2S8MCIJnUoZ82tDH4VXuILkKS+dkSNX8a2GeSgJn2Q4P4VdNEZ+OaE1dfmG/Lah0CS/rCLywNq83SsABIJnXopw1tDH7VHqKLkGR+dhW1m1WiyyQBM+2HBvGrponOxjUnrr4w35bVOgSW9IVfWBpWm6VhAZBM6tBPG9oY/Ko9RBchyfzsta0/yAx0mSRgpv3QIH7VNNHZuObE1Rfm27Jah8CSvvALS8NqszQsAJJJHfppQxuDX7WH6CIkGc7md1a7mqyAmfZDg/hV00Rn45oTV1+Yb8tqHQJL+sIvLA2rzdKwAEgmdeinDW0MftUeoouQZEez64+Bu5gUYKb90CB+1TTR2bjmxNUX5tuyWofAkr7wC0vDarM0LACSSR36aUMbg1+1h+giJFmaHZvV7iYemGk/NIhfNU10Nq45cfWF+bas1iGwpC/8wtKw2iwNC4BkUod+2tDG4FftIboISWbvrHYzqWdhpv3QIH7VNNHZuObE1Rfm27Jah8CSvvALS8NqszQsAJJJHfppQxuDX7WH6CKNZPDTwOkmiXoWZtoPDeJXTROdjWtOXH1hvi2rdQgs6Qu/sDSsNkvDAiCZ1KGfNrQx+FV7iC4SkkGzSkwzOaKehZn2Q4P4VdNEZ+OaE1dfmG/Lah0CS/rCLywNq83SsABIJnXopw1tDH7VHqKLQDL3z8ev2N4EqWdhpv3QIH7VNNHZuObE1Rfm27Jah8CSvvALS8NqszQsAJJJHfppQxuDX7WH6CKWbPXOakeTSD0LM+2HBvGrponOxjUnrr4w35bVOgSW9IVfWBpWm6VhAZBM6tBPG9oY/Ko9RBe59trh/wfpLZd1elaciQAAAABJRU5ErkJggg==;" vertex="1" parent="cB-VQLEL9NJTstsM0TsG-150">
          <mxGeometry x="15.050000000000011" y="45" width="29.9" height="30" as="geometry" />
        </mxCell>
        <mxCell id="cB-VQLEL9NJTstsM0TsG-153" value="AWS Aurora DB Cluster" style="text;html=1;strokeColor=none;fillColor=none;align=center;verticalAlign=middle;whiteSpace=wrap;rounded=0;" vertex="1" parent="1">
          <mxGeometry x="720" y="765" width="60" height="30" as="geometry" />
        </mxCell>
        <mxCell id="cB-VQLEL9NJTstsM0TsG-154" value="" style="endArrow=classic;html=1;rounded=0;exitX=1;exitY=0.5;exitDx=0;exitDy=0;fillColor=#dae8fc;strokeColor=#6c8ebf;" edge="1" parent="1" source="cB-VQLEL9NJTstsM0TsG-92">
          <mxGeometry width="50" height="50" relative="1" as="geometry">
            <mxPoint x="430" y="919" as="sourcePoint" />
            <mxPoint x="390" y="930" as="targetPoint" />
          </mxGeometry>
        </mxCell>
        <mxCell id="cB-VQLEL9NJTstsM0TsG-155" value="" style="endArrow=classic;html=1;rounded=0;exitX=1;exitY=0;exitDx=0;exitDy=0;fillColor=#d5e8d4;strokeColor=#82b366;entryX=0;entryY=0.5;entryDx=0;entryDy=0;" edge="1" parent="1" source="cB-VQLEL9NJTstsM0TsG-93" target="cB-VQLEL9NJTstsM0TsG-147">
          <mxGeometry width="50" height="50" relative="1" as="geometry">
            <mxPoint x="300" y="849" as="sourcePoint" />
            <mxPoint x="390" y="779" as="targetPoint" />
          </mxGeometry>
        </mxCell>
        <mxCell id="cB-VQLEL9NJTstsM0TsG-156" value="" style="endArrow=classic;html=1;rounded=0;dashed=1;entryX=0;entryY=0.5;entryDx=0;entryDy=0;" edge="1" parent="1" target="cB-VQLEL9NJTstsM0TsG-151">
          <mxGeometry width="50" height="50" relative="1" as="geometry">
            <mxPoint x="290" y="839" as="sourcePoint" />
            <mxPoint x="310" y="720" as="targetPoint" />
          </mxGeometry>
        </mxCell>
        <mxCell id="cB-VQLEL9NJTstsM0TsG-157" value="Failover call" style="edgeLabel;html=1;align=center;verticalAlign=middle;resizable=0;points=[];" vertex="1" connectable="0" parent="cB-VQLEL9NJTstsM0TsG-156">
          <mxGeometry x="-0.3823" relative="1" as="geometry">
            <mxPoint x="14" y="-13" as="offset" />
          </mxGeometry>
        </mxCell>
      </root>
    </mxGraphModel>
  </diagram>
  <diagram id="h54WNxDeRkiYh9RRA_kG" name="Services HLA">
    <mxGraphModel dx="704" dy="629" grid="1" gridSize="10" guides="1" tooltips="1" connect="1" arrows="1" fold="1" page="1" pageScale="1" pageWidth="827" pageHeight="1169" math="0" shadow="0">
      <root>
        <mxCell id="0" />
        <mxCell id="1" parent="0" />
        <mxCell id="7WFM9Dii7TAWC0Gw2qNG-1" value="&lt;h1&gt;&lt;span style=&quot;background-color: initial;&quot;&gt;Cloud Sales System - Services HLA&lt;/span&gt;&lt;/h1&gt;&lt;h1&gt;&lt;span style=&quot;background-color: initial; font-size: 12px; font-weight: normal;&quot;&gt;This HLA diagram describes the services that would be used for system design.&lt;/span&gt;&lt;span style=&quot;background-color: initial; font-size: 12px;&quot;&gt;&lt;br&gt;&lt;/span&gt;&lt;/h1&gt;&lt;div&gt;&lt;span style=&quot;background-color: initial; font-size: 12px; font-weight: normal;&quot;&gt;Services will be deployed on &lt;/span&gt;&lt;span style=&quot;background-color: initial; font-size: 12px;&quot;&gt;&lt;b&gt;Kubernetes &lt;/b&gt;&lt;/span&gt;&lt;span style=&quot;background-color: initial; font-size: 12px; font-weight: normal;&quot;&gt;so auto-scale can be easily supported.&lt;/span&gt;&lt;/div&gt;" style="text;html=1;strokeColor=none;fillColor=none;spacing=5;spacingTop=-20;whiteSpace=wrap;overflow=hidden;rounded=0;" vertex="1" parent="1">
          <mxGeometry x="19" y="10" width="451" height="120" as="geometry" />
        </mxCell>
        <mxCell id="0RbEMYmqIvCmLQGYnShm-1" value="Gateway" style="ellipse;whiteSpace=wrap;html=1;aspect=fixed;" vertex="1" parent="1">
          <mxGeometry x="160" y="300" width="60" height="60" as="geometry" />
        </mxCell>
        <mxCell id="0RbEMYmqIvCmLQGYnShm-2" value="Web Api" style="shape=umlActor;verticalLabelPosition=bottom;verticalAlign=top;html=1;outlineConnect=0;" vertex="1" parent="1">
          <mxGeometry x="61" y="245" width="30" height="60" as="geometry" />
        </mxCell>
        <mxCell id="0RbEMYmqIvCmLQGYnShm-5" value="UI" style="shape=umlActor;verticalLabelPosition=bottom;verticalAlign=top;html=1;outlineConnect=0;" vertex="1" parent="1">
          <mxGeometry x="60" y="355" width="30" height="60" as="geometry" />
        </mxCell>
        <mxCell id="0RbEMYmqIvCmLQGYnShm-6" value="" style="endArrow=classic;html=1;rounded=0;exitX=0.5;exitY=0.5;exitDx=0;exitDy=0;exitPerimeter=0;entryX=0;entryY=0.5;entryDx=0;entryDy=0;" edge="1" parent="1" source="0RbEMYmqIvCmLQGYnShm-2" target="0RbEMYmqIvCmLQGYnShm-1">
          <mxGeometry width="50" height="50" relative="1" as="geometry">
            <mxPoint x="260" y="390" as="sourcePoint" />
            <mxPoint x="310" y="340" as="targetPoint" />
          </mxGeometry>
        </mxCell>
        <mxCell id="0RbEMYmqIvCmLQGYnShm-7" value="" style="endArrow=classic;html=1;rounded=0;exitX=0.5;exitY=0.5;exitDx=0;exitDy=0;exitPerimeter=0;" edge="1" parent="1" source="0RbEMYmqIvCmLQGYnShm-5">
          <mxGeometry width="50" height="50" relative="1" as="geometry">
            <mxPoint x="260" y="390" as="sourcePoint" />
            <mxPoint x="160" y="330" as="targetPoint" />
          </mxGeometry>
        </mxCell>
      </root>
    </mxGraphModel>
  </diagram>
</mxfile>
